<svg xmlns="http://www.w3.org/2000/svg" xmlns:xlink="http://www.w3.org/1999/xlink" width="323.041" height="201.686" viewBox="0 0 323.041 201.686"><defs><clipPath id="a"><rect width="323.041" height="201.686" fill="none"/></clipPath><clipPath id="c"><rect width="46.695" height="45.757" fill="none"/></clipPath><clipPath id="d"><rect width="145.921" height="87.647" fill="none"/></clipPath><clipPath id="e"><rect width="27.116" height="40.142" fill="none"/></clipPath><clipPath id="f"><path d="M38.419,195.332a7.11,7.11,0,1,1,7.11,7.11,7.11,7.11,0,0,1-7.11-7.11m-6.311,0a13.421,13.421,0,1,0,13.421-13.421,13.421,13.421,0,0,0-13.421,13.421" transform="translate(-32.108 -181.911)" fill="none"/></clipPath></defs><g clip-path="url(#a)"><g transform="translate(0 0)"><g clip-path="url(#a)"><path d="M36.423,92.688c48.653-18.062,98.1-2.094,131.641,32.687s103.922-24.006,141.25,10.718c25.475,23.7,13.806,84.624-21.124,111.012-47.478,35.868-224.356,36.945-253.7,24.637-50.15-21.033-.32-59.982-23.729-97.318-27.617-44.048,4.164-73.754,25.665-81.736" transform="translate(0 -77.147)" fill="#e7f3fe"/><path d="M397.556,1922.75c-24.354-1.191-107.2.826-132.4,1.613s-54.445-1.038-69.638-3.72-103.013.228-99.028,7.439,39.128,3.226,78.98,6.124,129.482-.362,149.7,0,38.757-.725,64.811-2.174,21.694-8.593,7.577-9.283" transform="translate(-87.265 -1738.524)" fill="#cce2ff"/><g transform="translate(210.923 0)" opacity="0.5"><g clip-path="url(#c)"><path d="M2281.9,25.5a23.589,23.589,0,0,0,.147-2.621c0-.468-.015-.932-.042-1.393l-4.332-1.4a19.038,19.038,0,0,0-1.534-5.19l2.872-3.534a23.422,23.422,0,0,0-2.275-3.307L2272.4,9.465a19.249,19.249,0,0,0-4.289-3.3l.246-4.551a23.16,23.16,0,0,0-3.782-1.34L2261.9,3.968a19.262,19.262,0,0,0-5.408-.142L2254.016,0a23.176,23.176,0,0,0-3.847,1.137l.005,4.558a19.221,19.221,0,0,0-4.457,3.066l-4.25-1.64a23.448,23.448,0,0,0-2.448,3.182l2.682,3.682a19.043,19.043,0,0,0-1.808,5.1l-4.4,1.171a23.532,23.532,0,0,0-.147,2.621c0,.468.015.932.042,1.393l4.331,1.4a19.055,19.055,0,0,0,1.534,5.19l-2.872,3.534a23.422,23.422,0,0,0,2.275,3.307l4.332-1.414a19.254,19.254,0,0,0,4.288,3.3l-.246,4.551a23.176,23.176,0,0,0,3.782,1.34l2.675-3.691a19.258,19.258,0,0,0,5.408.142l2.477,3.828a23.177,23.177,0,0,0,3.848-1.137l-.006-4.558a19.217,19.217,0,0,0,4.457-3.066l4.25,1.64a23.45,23.45,0,0,0,2.448-3.182l-2.682-3.682a19.037,19.037,0,0,0,1.808-5.1Zm-23.2,6.536a9.157,9.157,0,1,1,9.158-9.157,9.157,9.157,0,0,1-9.158,9.157" transform="translate(-2235.347 0.002)" fill="#9ec8ff"/></g></g><path d="M2610.624,199.072a.472.472,0,0,1-.362-.773,15.362,15.362,0,0,0,2.707-14.8.472.472,0,1,1,.892-.307,16.307,16.307,0,0,1-2.873,15.708.472.472,0,0,1-.363.17" transform="translate(-2363.864 -165.62)" fill="#fff"/><path d="M2544.335,84.218a.47.47,0,0,1-.323-.128,15.248,15.248,0,0,0-5.28-3.253.472.472,0,1,1,.322-.887,16.188,16.188,0,0,1,5.6,3.453.472.472,0,0,1-.324.815" transform="translate(-2298.9 -72.38)" fill="#fff"/><path d="M2440.612,71.347a.472.472,0,0,1-.115-.929,16.342,16.342,0,0,1,4-.494.472.472,0,1,1,0,.944,15.394,15.394,0,0,0-3.766.466.472.472,0,0,1-.116.014" transform="translate(-2209.894 -63.325)" fill="#fff"/><g transform="translate(74.229 0.066)" opacity="0.5"><g clip-path="url(#d)"><rect width="145.921" height="87.647" transform="translate(0 0)" fill="#9ec8ff"/></g></g><rect width="137.283" height="80.462" transform="translate(81.338 2.205)" fill="#fff"/><path d="M2043.162,423.1c6.542-6.228,17.724-6.086,17.488,3.4s.548,10.374,3.24,15.349c9.341,17.261-11.134,16.245-19.674,16.811s-7.832-15.522-6.322-24.439,3.354-9.3,5.269-11.118" transform="translate(-1844.76 -379.312)" fill="#303c60"/><path d="M2053.811,1040.3c-2.1,17.614-5.909,30.635-6.333,38.985s-2.123,41.229-2.123,41.229,4.67-.327,5.1-1.034,8.775-19.248,8.35-30.712,8.34-28.895,8.34-28.895l-2.113-17.1Z" transform="translate(-1852.359 -942.14)" fill="#4476bd"/><path d="M2098.448,1121.569l-3.28,1.373c-.892,5.585-1.881,10.607-2.749,15.061,5.22,3.375,7.916,14.618,9.072,21.492.589-7.692,4.218-16.986,6.469-22.125Z" transform="translate(-1894.981 -1015.74)" fill="#3e6bab"/><path d="M2182.5,1021.483s7.069,9.017,6.848,19.248c-.337,15.574-2.036,20.02.919,36.35,1.154,6.378-2.547,27.241-2.547,27.241s-3.162.248-4.861-.6c.142-1.533-2.043-26.469-6.3-37.933-2.061-5.551-4.958-21.1-6.514-30.014s-1.84-10.756-1.274-10.756,13.729-3.538,13.729-3.538" transform="translate(-1963.882 -925.098)" fill="#4476bd"/><path d="M1841.3,671.543s.314-4.666-.189-6.107-4.844-2.7-4.844-2.7-.189,6.668.252,7.486a24.914,24.914,0,0,0,3.019,3.145Z" transform="translate(-1662.963 -600.201)" fill="#f09959"/><path d="M1884.972,720.037c-9.938,10.7-13.182,15.2-13.937,15.2-2.359-4.164-10.194-12.971-10.194-12.971l-3.341,2.148s7.72,20.171,12.627,20.38,14.88-6.956,15.006-7.779-.161-16.976-.161-16.976" transform="translate(-1682.23 -652.096)" fill="#a2dff2"/><path d="M2038.8,743.746c4.862-1.979,10.432-6.119,10.526-6.733.126-.823-.161-16.976-.161-16.976-2.167,2.332-4.058,4.4-5.7,6.209-1.78,6.63-1.664,13.849-4.666,17.5" transform="translate(-1846.419 -652.096)" fill="#96cfe0"/><path d="M2107.212,645.4s9.51,4.767,11.586,13.205-4.066,18.863-4.821,24.427-18.116,6.542-18.116.587c0-5.709-4.35-17.828-4.1-20.915.576-7.243,11.164-16.116,11.164-16.116Z" transform="translate(-1894.373 -584.503)" fill="#a2dff2"/><path d="M2152.1,529.55l4.083,12.59a109.622,109.622,0,0,0-11.82,11.457c.29-5.385,4.8-11.256,4.8-11.256l-3.089-11.889Z" transform="translate(-1942.025 -479.582)" fill="#f09959"/><path d="M2170.447,535.422l-1.9-5.872-6.024.9,3.088,11.889s-.3.481-.746,1.236a14.511,14.511,0,0,0,5.586-8.155" transform="translate(-1958.467 -479.582)" fill="#e38540"/><path d="M2092.39,474.062c-1.1,4.007-5.365,6.212-8.4,5.379s-3.678-4.389-2.577-8.4,4.45-6.579,7.48-5.747,4.594,4.756,3.492,8.762" transform="translate(-1884.564 -421.253)" fill="#f09959"/><path d="M2092.881,908.5c1.322,8.378-3.587,26.3-3.587,26.3s2.927.665,11.7-.184,12.644-9.607,13.965-9.852,2,8.15,2.651,8.814.75-10.6-.953-15.03c-3.02-7.85-2.428-11.18-1.3-15.936,2.007-8.457-22.48,5.887-22.48,5.887" transform="translate(-1892.152 -815.026)" fill="#a2dff2"/><path d="M1956.094,1846.7c.79,3.211-.77,5.758-2.859,7.615-1.7,1.51-6.919,2.151-6.668,2.906s6.416.994,8.492.679,2.642-1.321,5.226-1.32c1.694,0,2.008-1.377,1.253-3.079s-1.019-2.644-.337-4.17-5.108-2.631-5.108-2.631" transform="translate(-1762.885 -1672.449)" fill="#4476bd"/><path d="M2319.7,1824.278c-.126,3.334-.513,5.818.3,7.363,3.158,2.642,5.784,5.643,4.781,5.85-4.781.987-6.605-1.878-9.31-2.693-3.32-1,.314-5.171-.986-10.521-.723-2.974,5.012-2.261,5.012-2.261Z" transform="translate(-2095.689 -1650.026)" fill="#4476bd"/><path d="M2172.333,739.662a15.712,15.712,0,0,0-.713-2.733c-3.02-7.85-2.428-11.18-1.3-15.936a3.734,3.734,0,0,0,.114-.993c.255-.848.492-1.708.7-2.572l-1.025-9.251-7.389-8.775c-5.538,8.115-1.8,18.211-2.631,23.778s-10.11,12.666-10.11,12.666l.3,1.975a5.016,5.016,0,0,0,5.641,4.215c3.824-.531,8.841-1.6,11.074-3.669,2.161-2,4.073-.454,5.337,1.3" transform="translate(-1947.111 -633.408)" fill="#96cfe0"/><path d="M2105.808,1082.254s-4.1,1.146-4.586,1.4-.76,1.61-.76,1.61-2.345,2.036-1.447,2.757,2.5,2.546,4.624,1.7c1.3-.521,2.311-5.3,3.164-5.343s-.994-2.124-.994-2.124" transform="translate(-1900.77 -980.134)" fill="#f09959"/><path d="M2175.105,688.044c4.384.124,8.359,8.02,9.744,14.871s2.843,16.59,2.843,16.59-7.266,5.734-14.445,7.41c-6.262,1.462-9.46,2.034-9.46,2.034l-1.271-3.575,14.984-8.8s-5.51-10.379-6.057-18.211.329-10.411,3.661-10.316" transform="translate(-1958.467 -623.119)" fill="#a2dff2"/><rect width="11.146" height="7.079" transform="translate(163.536 63.157) rotate(-11.346)" fill="#f5dc95"/><path d="M1839.02,684.993c.151-2.871-1.271-6.786-2.089-6.78s.252,2.565-.189,4.264c-.239.92,2.278,2.516,2.278,2.516" transform="translate(-1663.314 -614.218)" fill="#f09959"/><path d="M2094.746,456.279c.243,7.863,9.427,7.26,11.943,6.776s-3.063,16.589,1.73,17.574c3.52.723,2.727-4.782,6.636-4.414,1.73.163,3.469,2.837,3.469,2.837a5.34,5.34,0,0,0-1.581-2.837c-1.321-1.19-4.784-8.487-5.695-13.708s-7.075-8.6-8.9-8.7-6.291,1.972-6.291,1.972Z" transform="translate(-1897.09 -410.981)" fill="#303c60"/><path d="M2212.644,569.021a1.815,1.815,0,0,1-.378-.04c-1.534-.327-2.278-1.939-2.341-5.074a73.11,73.11,0,0,1,.86-9.787c.19-1.475.387-3,.548-4.478a.23.23,0,0,1,.457.05c-.162,1.481-.359,3.009-.549,4.486-.91,7.064-1.77,13.737,1.12,14.352a1.281,1.281,0,0,0,.269.029c1.659,0,3.154-3.235,4.026-6.385a.23.23,0,1,1,.443.123c-.575,2.079-2.122,6.724-4.455,6.725" transform="translate(-2001.396 -497.593)" fill="#303c60"/><path d="M2205.848,570.849a1.813,1.813,0,0,1-1.359-.6c-3.131-3.31-.035-19.915.1-20.62a.23.23,0,1,1,.452.086c-.032.17-3.187,17.078-.216,20.219a1.372,1.372,0,0,0,1.25.445c1.626-.215,2.564-2.42,3.392-4.367.8-1.888,1.559-3.671,2.9-3.624a.23.23,0,1,1-.016.459h-.033c-1.009,0-1.7,1.625-2.432,3.345-.876,2.059-1.869,4.394-3.755,4.643a2.181,2.181,0,0,1-.285.019" transform="translate(-1995.214 -497.594)" fill="#303c60"/><path d="M2199.054,543.109a1.457,1.457,0,1,1,.078-2.359,1.713,1.713,0,0,1-.078,2.359" transform="translate(-1989.114 -489.525)" fill="#f09959"/><path d="M1309.754,827.383a8.222,8.222,0,0,1-4.024,11.471c-4.439,1.836-9.293.793-11.535-3.69a8.706,8.706,0,1,1,15.559-7.781" transform="translate(-1171.175 -744.681)" fill="#303c60"/><path d="M1293.1,885.939a4.2,4.2,0,0,1-2.71-1.275,6.929,6.929,0,0,1-2.057-3.9,13.554,13.554,0,0,1,.755-6.946.23.23,0,0,1,.435.15,13.106,13.106,0,0,0-.738,6.71,6.47,6.47,0,0,0,1.911,3.64c1.573,1.4,2.627,1.141,2.638,1.139a.23.23,0,0,1,.123.443,1.4,1.4,0,0,1-.356.038" transform="translate(-1166.61 -791.228)" fill="#303c60"/><path d="M1400.578,1061.373c2.552.572,5.774,7.663,7.351,12.206,1.591,4.582,4.289,10.266,6.055,12.032s13.371,5.86,13.371,5.86-28.675.055-28.087,0,1.309-30.1,1.309-30.1" transform="translate(-1267.228 -961.224)" fill="#a8ceff"/><path d="M1426.815,1089.194c-1.57-.224-7.233.5-4.822-.5s2.075-2.3,2.075-2.3-3.42,2.859-4.037.359c-.532-2.156-.735-9.768-2.754-17.4-1.667-3.783-3.85-7.568-5.685-7.979,0,0-.065,2.686-.171,6.453.7,8.335,1.9,20.581,2.2,23.668,3.8.006,10.162,0,15.483-.007l3.539-.169a38,38,0,0,0-5.831-2.124" transform="translate(-1278.242 -961.224)" fill="#93bbf0"/><path d="M1214.71,1044.719s-8.117,4.536-10.01,5.5,5.3,29.277,6.9,30.49,15.684.209,17.288-1.32-1.23-6.22.157-15.614-4.232-17.5-4.954-17.485a48.526,48.526,0,0,1-5.434-1.571Z" transform="translate(-1090.742 -946.141)" fill="#a8ceff"/><path d="M1211.845,1137.47c1.6,1.213,11.678,1.24,15.969-.094.484-.151,2.683-1.027,2.734-1.85-.518-.1-2.573.15-3.408-.042-2.9-.667-4.5-4.261-4.5-4.261s-1.6-.575-5.172-2.089-2.1-6.1-2.187-8.116-3.532-8.62-10.008-13.624l-.594.266c-.462,4.6,5.685,28.688,7.165,29.811" transform="translate(-1090.986 -1002.902)" fill="#93bbf0"/><path d="M1598.853,1190.73h-19.546l-8.9,18.944h21.53l8.058-17.148a1.26,1.26,0,0,0-1.14-1.8" transform="translate(-1422.225 -1078.375)" fill="#75a1de"/><path d="M1457.185,1209.161h-11.761a1.321,1.321,0,1,1,0-2.642h10.918l7.382-15.888a1.321,1.321,0,1,1,2.4,1.113l-7.737,16.652a1.321,1.321,0,0,1-1.2.765" transform="translate(-1307.84 -1077.593)" fill="#3e6bab"/><path d="M1352.938,1351.46c5.1.953,6.357,2.125,9.138,2.573,3.153.508,2.778,1.2.436,1.2s-8.226.091-10.246-.358.672-3.42.672-3.42" transform="translate(-1223.988 -1223.939)" fill="#f09959"/><path d="M1117.8,1103.92c-3.911,12.5-9.454,26.69-8.571,26.69s23.337.908,24.22.152.631-3.657.5-4.036-12.765-2.621-12.765-2.621,1.664-3.244,2.3-9.583-4.942-12.972-5.683-10.6" transform="translate(-1004.479 -999.31)" fill="#a8ceff"/><path d="M1315.076,929.581l-3.15,11.511s5.323,8.308,6.786,7.57-.818-6.753-.818-7.57,2.281-9.25,2.281-9.25Z" transform="translate(-1188.135 -841.867)" fill="#f09959"/><path d="M1338.232,941.678a3.07,3.07,0,0,1-.109-.587c0-.817,2.281-9.25,2.281-9.25l-5.1-2.26-1.042,3.809a19.856,19.856,0,0,0,3.97,8.288" transform="translate(-1208.364 -841.867)" fill="#e38540"/><path d="M1361.426,878.3c.6,3.338.2,7.771-2.759,8.9s-6.534-1.029-7.974-4.816-.2-7.771,2.759-8.9a6.249,6.249,0,0,1,7.975,4.817" transform="translate(-1222.699 -790.781)" fill="#f09959"/><path d="M1332.343,931.824a2.017,2.017,0,0,1-.806,2.667c-.86.306-1.9-.391-2.31-1.558a2.017,2.017,0,0,1,.806-2.667c.861-.306,1.9.391,2.31,1.558" transform="translate(-1203.647 -842.422)" fill="#f09959"/><path d="M1340.384,857.786c-1.009,7.833-10.526,6.824-10.526,6.824s-1.963-2.58-2.846-1.227,1.225-7.941,6.686-8.234c1.794-.1,6.686,2.637,6.686,2.637" transform="translate(-1201.622 -774.456)" fill="#303c60"/><path d="M1269.14,801.612a5.165,5.165,0,1,1-5.154-4.836,5,5,0,0,1,5.154,4.836" transform="translate(-1140.05 -721.594)" fill="#303c60"/><path d="M1204.655,1656.219h1.179l7.611-35.262h-2.593Z" transform="translate(-1090.986 -1468.007)" fill="#2e5b9a"/><path d="M1496.675,1644.255H1495.5l-8.857-36.509h2.593Z" transform="translate(-1346.363 -1456.042)" fill="#2e5b9a"/><path d="M1224.486,1417.422c-4.721,0-7.712-.848-9.621-2.707-2.366-2.305-2.856-5.876-2.863-10.528-.005-3.661-.093-6.046-.291-7.973a1.321,1.321,0,0,1,2.628-.271c.208,2.021.3,4.485.3,8.24.007,4.715.605,7.218,2.064,8.639,1.5,1.458,4.2,2.06,8.773,1.945a51.9,51.9,0,0,0,9.892-1.222c3.21-.652,5.53-1.124,8.281.191a1.321,1.321,0,1,1-1.139,2.384c-1.953-.933-3.609-.6-6.615.015a54.21,54.21,0,0,1-10.353,1.275q-.544.014-1.061.014" transform="translate(-1097.369 -1263.151)" fill="#2e5b9a"/><path d="M1233.486,1393.1l7.227.3-1.924,19.953s-5.387-3.439-5.3-7.139,0-13.115,0-13.115" transform="translate(-1117.095 -1261.653)" fill="#2e5b9a"/><path d="M1601.917,1409.139c6.111-.927,8.188-.635,11.928,6.325s8.718,19.492,11.581,21.111c4.311,2.437,5.74,8.413,7.51,8.145s2.909.514.983,2.115-5.037,2.964-6.1,2.68-1.889-4.88-4.667-6.372-1.943-2.718-1.761-4.038-8.109-7.4-14.36-14.955c-3.819-4.618-5.786-7.667-6.078-10.429a7.247,7.247,0,0,1,.964-4.581" transform="translate(-1449.851 -1275.83)" fill="#f09959"/><path d="M1617.067,1434.379c-1.419-3.6-2.843-9.543-4.181-14.992-1.9-7.748-3.9-9.587-5.161-10.414a15.313,15.313,0,0,0-5.807.167,7.247,7.247,0,0,0-.964,4.581c.292,2.763,2.258,5.811,6.078,10.429a109.673,109.673,0,0,0,10.036,10.229" transform="translate(-1449.851 -1275.831)" fill="#e38540"/><path d="M1574.467,1415.266s-1.626,12.268-3.14,13.515c-1.083.892-1.85.951-2.607-2.708s1.177-17.315,1.177-17.315Z" transform="translate(-1420.539 -1275.83)" fill="#2e5b9a"/><path d="M1473.151,1442.795l-15.048,2.529,8.5-12.182,6.466-1.317,3.877.892Z" transform="translate(-1320.519 -1296.721)" fill="#f09959"/><path d="M1815.018,1730.375c-.488,1.966-.429,3.419.418,4.147s4.051,6.14,4.051,6.14l1-.151-2.31-4.952Z" transform="translate(-1643.477 -1567.1)" fill="#2e5b9a"/><path d="M1821.908,1739.9c1.064.284,4.174-1.079,6.1-2.68s.787-2.383-.983-2.115a.766.766,0,0,1-.3-.015c-.884,1.975-3.792,3.456-4.73,1.37-.93-2.067-4.914-6.182-6.519-7.063a.369.369,0,0,1,0,.092c-.182,1.32-1.017,2.546,1.761,4.038s3.6,6.088,4.667,6.372" transform="translate(-1643.94 -1566.219)" fill="#2e5b9a"/><path d="M1261.4,1412.981c-5.339,9.581-1.692,15.671,4.8,16.291s16.733-.564,22.7-5.526,10.873-10.209,10.188-10.991-37.689.227-37.689.227" transform="translate(-1140.05 -1279.18)" fill="#e38540"/><path d="M1595.568,1437.688c1.093-3.28,2.354-5.8,4.794-5.842,2.565-.048,4.144,1.287,4.253,5.484.13,5,.307,21.551.076,28.91-.175,5.571,1.449,7.355,1.312,13.163-.1,4.374,4.56,2.164,2.759,4.433-1.239,1.56-4.926,1.05-7.191.762-2.018-.256,1.045-6.3-1.749-7.922-2.4-1.388-2.444-3.641-.93-5.346s.168-6.751-.841-10.284a78.022,78.022,0,0,1-3.6-15.705,20.011,20.011,0,0,1,1.12-7.653" transform="translate(-1443.939 -1296.738)" fill="#f09959"/><path d="M1640.611,1859.92a10.565,10.565,0,0,1-2.555.523c-1.682.056-2.187-1.794-2.3-4.308a12.049,12.049,0,0,0-3.326-7.052c-.03.04-.061.079-.094.116-1.514,1.705-1.467,3.958.93,5.346,2.793,1.617-.27,7.665,1.749,7.922,2.265.288,5.953.8,7.191-.762,1.17-1.474-.282-1.591-1.6-1.785" transform="translate(-1477.385 -1674.608)" fill="#2e5b9a"/><path d="M1624.652,1843.687s-2.453,2.562-2.229,3.627a40.746,40.746,0,0,1,1.107,5.831c.126,2.074.239,4.456.239,4.456s.883,0,.953-.251.561-8.432.561-8.432Z" transform="translate(-1469.322 -1669.72)" fill="#2e5b9a"/><path d="M1247.415,1408.758s-3.167,13.439.834,17.164,20.615.374,24.528.151c2.649-.151,5.214,3.082,5.214,3.082s-1.85-7.5-.589-13.554,3.3-6.463,3.3-6.463l-2.708-.382Z" transform="translate(-1128.634 -1275.83)" fill="#75a1de"/><path d="M1244.641,1371.519c1.354,2.873-1.458,7.835-.472,9.265s6.627.2,10.324-2.776,10.694-3.63,10.694-3.63Z" transform="translate(-1126.578 -1242.105)" fill="#a8ceff"/><path d="M1273.317,1594.472c11.186.42,22.96.222,22.96-1.445s-.5-2.844-9.167-2.171-14.549,1.6-17.157,1.009,3.364,2.607,3.364,2.607" transform="translate(-1149.526 -1440.571)" fill="#2e5b9a"/><path d="M1051.761,1394.542h-157.6a1.218,1.218,0,0,1-1.218-1.218v-.609a1.218,1.218,0,0,1,1.218-1.218h157.6a1.218,1.218,0,0,1,1.218,1.218v.609a1.218,1.218,0,0,1-1.218,1.218" transform="translate(-808.688 -1260.198)" fill="#2e5b9a"/><path d="M2693.26,905.424a7.244,7.244,0,0,1-4.479,8.584c-2.916.827-5-1.769-6.08-5.589s.4-7.588,3.317-8.415,6.158,1.6,7.241,5.42" transform="translate(-2429.246 -814.935)" fill="#f09959"/><path d="M2592.354,1743.547s7.472,11.605,8.481,12.11,3.532.631,2.586,2.523-1.325,9.335-2.208,9.713-8.452,1.261-7.317,0,1.834-.631,2.406-2.9,1.378-6.56.306-7.442-7.632-8.83-7.632-8.83Z" transform="translate(-2344.687 -1579.029)" fill="#f09959"/><path d="M2080.277,1796.366s-9.083,14.97-10.765,16.316-7.233,3.364-2.691,3.7,6.728-1.514,9.587-2.355,6.392-1.346,5.046-3.532-.787-6.96,2.114-9.988-3.292-4.141-3.292-4.141" transform="translate(-1870.217 -1626.864)" fill="#f09959"/><path d="M2235.533,1428.367s-22.485-.588-31.4,6.728c-5.214,7.905-17.829,31.231-18.809,33.8.673.673,4.457,1.887,6.139,1.719,4.962-5.917,11.521-11.031,14.129-15.672,3.214-5.719,4.205-8.578,9.419-9.083s16.988-2.187,20.521-2.187,0-15.306,0-15.306" transform="translate(-1979.122 -1293.578)" fill="#6791c9"/><path d="M2832.8,1670.48h-1.179l-8.452-35.262h2.593Z" transform="translate(-2556.779 -1480.922)" fill="#2e5b9a"/><path d="M2551.055,1658.516h1.178l9.7-36.509h-2.593Z" transform="translate(-2310.343 -1468.957)" fill="#2e5b9a"/><path d="M2428.87,1412.153l-13.073,2.256s-17.372.16-25.312,1.639c-7.224,1.346-8.289,9.554,0,20.857,4.708,6.421,8.69,11.542,16.831,17.318,2.071-1.521,2.863-2.1,3.435-5.754-.589-.808-2.114-5.864-2.588-6.854-4.5-9.413-10.514-12.836-10.6-13.762,1.009-1.64,26.731,8.548,31.846,2.555,4.883-5.722-.543-18.254-.543-18.254" transform="translate(-2159.649 -1278.905)" fill="#75a1de"/><path d="M2698.845,1097.081a13.679,13.679,0,0,0-10.229,2.545c-2.866,2.921-6.108,7.738-5.91,15.684.252,10.092-1.562,10.74.331,13.515,7.892,3.259,21.389,17.261,18.211,2.25-2.3-10.869,5.048-18.971-.881-31.028-.483-.981-1.086-1.933-1.522-2.966" transform="translate(-2429.081 -993.427)" fill="#f37168"/><path d="M2682.709,1143.306c-.154,5.261-.9,6.811-.328,8.46,3.217.329,9.1,1.616,10.573,3.675,1.682,2.355,3.364,2.691,2.579.953s-2.859-4.2.336-12.671,4.71-14.185,1.57-20.072Z" transform="translate(-2429.085 -1017.625)" fill="#d54a41"/><path d="M2760.764,996.219a41.045,41.045,0,0,1-2.641-10.658l-5.551,1.64s3.154,7.064.126,9.587a28.968,28.968,0,0,0-2.164,1.976,13.679,13.679,0,0,1,10.229-2.545" transform="translate(-2490.999 -892.565)" fill="#f09959"/><path d="M2777.928,989.747c-.329-.292-.74-.658-1.172-1.039l-4.527,1.338-.01.025a18.489,18.489,0,0,1,1.414,5.529,15.968,15.968,0,0,0,4.515-4.484c-.092-.517-.164-.979-.22-1.367" transform="translate(-2510.638 -895.415)" fill="#e38540"/><path d="M2493.941,1113.712c-5.717,2-5.083,8.022-10.344,16.9-2.723,4.6-5.252,4.528-5.252,4.528a121.837,121.837,0,0,1-14.109-.893c-4.837-.591-5.144.848-1.78,2.051,6.784,2.425,13.824,5.036,19.5,4.406s15.385-15.114,15.886-18.885c.692-5.214-1.023-9.117-3.9-8.111" transform="translate(-2228.079 -1008.48)" fill="#f09959"/><path d="M2594.923,1286.465c-.354,0-.717,0-1.09-.014a54.208,54.208,0,0,1-10.353-1.275c-3.007-.611-4.663-.948-6.615-.015a1.321,1.321,0,1,1-1.139-2.384c2.75-1.314,5.07-.843,8.281-.191a51.92,51.92,0,0,0,9.892,1.223c4.97.123,8.01-.622,9.563-2.344,1.387-1.538,1.8-4.1,1.285-8.07-.173-1.344-.345-2.461-.5-3.447a23.726,23.726,0,0,1-.361-7.409c.325-2.626,1.2-6.129,3.215-12.925a1.321,1.321,0,0,1,2.533.752c-3.775,12.713-3.583,13.954-2.775,19.178.155,1,.33,2.136.507,3.514.616,4.789,0,8.022-1.944,10.176-2,2.219-5.264,3.23-10.5,3.23" transform="translate(-2332.004 -1130.848)" fill="#2e5b9a"/><path d="M2080.894,1930.081c-6.027,2.947-9.271,4.636-11.2,4.476-.456-.038-.834-.085-1.151-.134-2.149,1.27-5.58,2.771-1.72,3.057,4.542.336,6.728-1.514,9.588-2.355s6.392-1.346,5.046-3.532a4.6,4.6,0,0,1-.56-1.512" transform="translate(-1870.216 -1747.962)" fill="#d54a41"/><path d="M2647.6,1874.5c-.147,4.772-.8,9.5-3.721,10.393a4.9,4.9,0,0,1-2.1.188c-.459.568-1.019.574-1.771,1.409-1.135,1.261,6.433.378,7.316,0s1.261-7.821,2.208-9.713c.777-1.554-.787-1.917-1.929-2.277" transform="translate(-2390.794 -1697.623)" fill="#d54a41"/><path d="M2204.876,1209.16h-19.146a1.321,1.321,0,0,1-1.2-.764l-7.737-16.652a1.321,1.321,0,1,1,2.4-1.113l7.382,15.888h18.3a1.321,1.321,0,0,1,0,2.642" transform="translate(-1971.284 -1077.592)" fill="#75a1de"/><path d="M2354.635,1314.9c-3.868-.056-7.705-2.362-9.612-2.026s-8.13,4.654-7.345,4.822,5.719-2.389,5.887-2.428a8.3,8.3,0,0,0,3.869,2.436c2.635.665.019-1.975,8.187.492,5.311,1.6-.987-3.3-.987-3.3" transform="translate(-2117.038 -1188.967)" fill="#f09959"/><path d="M2727.216,1049.971l.569,4.58s-5.006.3-7.5,1.7-6.167,5.451-6.167,5.451l3-5.171.433-3.308Z" transform="translate(-2458.021 -950.897)" fill="#f2e5de"/><path d="M2550.44,1108.511c-3.718-.7-5.438,2.635-7.85,8.074a78.18,78.18,0,0,1-7.345,12.9c-.818.852-13.792,0-13.792,0s-.392,3.757,0,4.205,2.635.392,2.635.392.9.716,1.738,1.283,7.962,1.632,11.27,1.464,6.336-.448,6.784-.953,9.475-14.409,10.036-19.4-1.579-7.606-3.476-7.962" transform="translate(-2283.376 -1003.831)" fill="#f2e5de"/><path d="M2656.6,842.625c-7.032.336-5.929,10.916-5.929,10.916a13.676,13.676,0,0,0,5.653-.067,21.111,21.111,0,0,1-.168-4.037,26.427,26.427,0,0,0,1.009,3.784c.809.371,1.724.042,3.28-.334a6.92,6.92,0,0,0,4.6,5.268c1.708.537,3.516,1.177,5.534.168s.908-11.326-.163-13.4c-1.609-3.114-4.283-5.9-8.908-4.429a34.36,34.36,0,0,0-4.91,2.131" transform="translate(-2400.506 -760.82)" fill="#303c60"/><path d="M2843.727,992.853l2.875,4.2s-3.187,7.962,6.081,11.569c7.258,2.825,6.4,7.8,3.124,12.808s1.962,9.377,1.962,9.377.8-5.545,7.851-6.592c9.616-1.427,12.338-14.337,5.156-20.792-5.943-5.342-7.751-.918-11.774-5.712s-11.617-1.556-11.617-1.556L2844.6,992.1Z" transform="translate(-2575.398 -898.483)" fill="#303c60"/><path d="M2906.99,1038.06a.23.23,0,0,1-.2-.34c2.423-4.429.446-9.8-.549-11.249-.1-.154-.2-.309-.31-.474-.978-1.526-2.195-3.425-8.68-4.593a10.286,10.286,0,0,1-4.147-2.184c-2.767-2.031-5.9-4.333-12.715-1.2a.23.23,0,1,1-.192-.418c7.059-3.249,10.31-.862,13.179,1.244a9.957,9.957,0,0,0,3.957,2.1c6.683,1.2,7.96,3.2,8.985,4.8.1.162.2.314.3.462a12.446,12.446,0,0,1,1.643,4.769,11.194,11.194,0,0,1-1.07,6.96.231.231,0,0,1-.2.12" transform="translate(-2608.303 -920.143)" fill="#303c60"/><path d="M2755.586,949.935a10.1,10.1,0,0,1-1.49-.12c-2.451-.367-5.74-1.761-6-9.594a.23.23,0,0,1,.222-.237.226.226,0,0,1,.237.222c.107,3.242.751,5.642,1.914,7.132a5.388,5.388,0,0,0,3.693,2.022c2.289.343,3.806-.082,4.511-1.262a.23.23,0,1,1,.395.236,3.728,3.728,0,0,1-3.485,1.6" transform="translate(-2488.793 -851.288)" fill="#303c60"/><path d="M334.026,1104.348c-8.162,4.667-19.515,24.069-17.119,27.235s15.264-5.159,15.264-5.159Z" transform="translate(-286.71 -1000.144)" fill="#96cfe0"/><path d="M517.431,849.641c-3.117-.085-1.96-2.4-5.544-1.476-1.884.486-.493,1.262-2.941,1.009s-3.653-.5-3.961,1.093-.458,2.1-1.635,2.355-1.709,2.355,0,3.784.878,2.018.5,3.2.911,1.262,1.612,2.355-.645,1.3.364,2.248a3.576,3.576,0,0,0,2.425.864l4.249-8.146Z" transform="translate(-454.866 -767.937)" fill="#303c60"/><path d="M1286.065,1869.108a24.036,24.036,0,0,0,8.073-1.261c3.532-1.388,5.929-3.532,5.3-1.009s-3.532,6.851-6.055,7.273-3.406,3.2-4.794,3.2-3.406-3.2-6.938-4.795c-3.219-1.457,4.415-3.4,4.415-3.4" transform="translate(-1159.998 -1689.628)" fill="#2e5b9a"/><path d="M902.261,1868.682a17.466,17.466,0,0,0,5.234,4.466c3.433,1.892,7.394,2.8,4.938,3.659a16.1,16.1,0,0,1-9.549.5c-2.456-.713-5.336-.863-6.1-2.023s.9-4.075.206-8.431c-.552-3.49,5.268,1.826,5.268,1.826" transform="translate(-811.983 -1689.628)" fill="#2e5b9a"/><path d="M668,1448.947s26.307,9.85,28.426,12.6,29.772,27.838,29.772,29.688-4.71,5.214-4.71,5.214-23.717-14.549-29.6-21.95-20.255-10.969-27.894-11.654,4.009-13.9,4.009-13.9" transform="translate(-598.989 -1312.227)" fill="#3e6bab"/><path d="M535.363,1446.076s18-.673,21.866,0,12.354.665,6.8,16.33c-4.35,12.278-5.786,27.822-5.786,27.822l-8.65,2.125s.343-27.952,4.471-35.394a138.726,138.726,0,0,0-16.169,3.649c-14.185,4.056-21.962,2.025-21.962,2.025l-2.112-7.4Z" transform="translate(-465.341 -1309.356)" fill="#4476bd"/><path d="M540.6,956.485l-4.4,12.993,5.556,3.658,3.148-11.227Z" transform="translate(-485.612 -866.233)" fill="#a86b48"/><path d="M569.028,971.365l2.652-9.455-4.307-5.424-1.609,4.753a27.062,27.062,0,0,0,3.263,10.127" transform="translate(-512.38 -866.234)" fill="#7a4e34"/><path d="M594.029,916.109c.143,3.952-1.8,7.372-4.884,7.676s-5.9-2.639-6.289-6.575,1.8-7.372,4.884-7.676,6.064.339,6.289,6.575" transform="translate(-527.819 -823.658)" fill="#a86b48"/><path d="M442.353,1090.173c-13.5,9.116-5.1,23.847-2.139,34.612,2.525,9.169,2.442,14.71,2.821,14.71s9.662-1.388,14.96-6.181a81.181,81.181,0,0,0,8.88-9.437s-6.788-1.209-9.006-9.99c-1.126-4.458-.614-6.878-3.182-13.942s-12.334-9.773-12.334-9.773" transform="translate(-393.87 -987.306)" fill="#a2dff2"/><path d="M513.825,1056.22l1.446-3.537s4.584,3.028,6.413,4.457a10.313,10.313,0,0,0,2.957,1.766s.661,5.071.232,4.611a25.981,25.981,0,0,0-11.048-7.3" transform="translate(-465.341 -953.354)" fill="#a2dff2"/><path d="M450.423,1670.48H451.6l8.452-35.262h-2.593Z" transform="translate(-407.922 -1480.922)" fill="#2e5b9a"/><path d="M720.2,1658.516h-1.179l-9.7-36.509h2.593Z" transform="translate(-642.393 -1468.957)" fill="#2e5b9a"/><path d="M436.818,1333.6c-4.721,0-7.713-.848-9.621-2.707-2.366-2.305-2.856-5.876-2.863-10.528-.015-9.78-.556-11.8-3.309-17.774a1.321,1.321,0,0,1,2.4-1.106c2.91,6.313,3.536,8.633,3.552,18.876.007,4.715.605,7.218,2.064,8.639,1.5,1.458,4.2,2.059,8.773,1.945a51.9,51.9,0,0,0,9.892-1.222c3.21-.653,5.53-1.124,8.281.191a1.321,1.321,0,1,1-1.139,2.384c-1.952-.933-3.609-.6-6.615.015a54.209,54.209,0,0,1-10.353,1.275q-.544.014-1.061.013" transform="translate(-381.187 -1177.984)" fill="#2e5b9a"/><path d="M1011.253,1207.542H992.107a1.321,1.321,0,0,1,0-2.642h18.3l7.382-15.888a1.321,1.321,0,1,1,2.4,1.113l-7.737,16.652a1.321,1.321,0,0,1-1.2.764" transform="translate(-897.297 -1076.127)" fill="#3e6bab"/><path d="M519.121,1108.9s3.364,10.26,7.527,14.507,12.541,5.674,15.164,5.507c-2.091-.841-6.074-3.233-7.675-9.572-1.126-4.458-.614-6.878-3.182-13.943-1.906-5.244-7.778-8.087-10.678-9.2,3.62,2.6,8.146,6.881,9.537,10.139,1.544,3.617-10.693,2.565-10.693,2.565" transform="translate(-470.138 -992.76)" fill="#96cfe0"/><path d="M989.983,1303.1s5.8-2.649,6.433-2.4,7.064,4.137,7.064,4.781-5.677-2.4-5.677-2.4a4.41,4.41,0,0,1,.252,2.488c-.378.807-4.742.807-8.678.554s.605-3.028.605-3.028" transform="translate(-894.568 -1177.958)" fill="#a86b48"/><path d="M511.909,1141.03c-5.349,10.963,13,22.077,23.885,23.065s23.819-2.574,23.819-2.574l-1.458-3.559s-21.809-2.846-22.361-3.245-21.926-17.7-23.885-13.687" transform="translate(-462.741 -1032.818)" fill="#a2dff2"/><path d="M559.845,943.137c.5,1.3.132,2.652-.812,3.011s-2.112-.407-2.607-1.711-.132-2.652.812-3.011,2.112.407,2.607,1.711" transform="translate(-503.722 -852.515)" fill="#a86b48"/><path d="M585.588,859.883c1.478-.617,3.143-1.278,2.627,1.233-.224,1.093,0,.785.392,1.794s-.989,1.8-1.438,2.362.653,1.17-.244,1.843-2.08-.249-2.915,0c-2.5.745-2.187-1.218-3.588-1.626s-2.089-.345-2.355.552.981,3.849-.084,3.569-1.305,2.1-1.592,3.448-1.017-.929-.97-2.468c.072-2.361-.514-3.352-1.383-4.013s-1.24-6.667,2.965-6.891a20.818,20.818,0,0,0,6.026-1.009c1.794-.379,1.885,1.486,2.559,1.205" transform="translate(-519.371 -777.608)" fill="#303c60"/><path d="M3173.414,1598.823c2.681,2.448,1.516,4.9-.466,9.443s-2.331,21.333-2.331,21.333l1.632-.233s-.233-17.253,1.982-21.916,3.148-6.995,5.129-5.479-5.945-3.148-5.945-3.148" transform="translate(-2871.443 -1447.961)" fill="#74b570"/><path d="M3183.267,1492.622c.326-1.451,2.26-3.021,4.845-4.352-.385,2.14-1.617,5.639-.342,6.356,1.721.968.168-3.917.832-6.6a31.958,31.958,0,0,1,8.039-2.637l-.011.03c-1.516,3.847-3.5,5.362-2.681,5.945.614.438,2.613-4.005,5.254-6.283a7.112,7.112,0,0,1,4.651.948c1.533,1.214,2.562,2.291,1.02,5.987a6.928,6.928,0,0,1-3.347,1.213c-3.5.35-5.129.466-2.681,1.632,1.2.571,3.208-.032,4.837-.4-.529.974-1.178,2.076-1.968,3.332a12.371,12.371,0,0,1-1.639,2.085,5.169,5.169,0,0,1-2.63,0c-1.632-.7-5.829-2.914-6.878-1.982-1.027.913,7.772,1.491,7.163,3.81-4.265,2.457-9.146,1.288-10.008-.968-1.158-3.03-5.436-3.743-4.456-8.11" transform="translate(-2882.769 -1344.929)" fill="#9cd499"/><path d="M3151.454,1726.58c-4.663-3.5-9.442-.233-11.891,3.5s-.7,12.124-.7,12.124.933,0,.933-.35-2.565-9.909,3.5-14.222c3.792-2.7,6.528-1.4,6.878-.117s-1.515,3.614-1.515,3.614Z" transform="translate(-2842.139 -1562.312)" fill="#74b570"/><path d="M3162.449,1664.713c4.663,0,6.178,7.227,4.9,11.424s-3.031,12.007-3.031,12.007l-1.166-1.166s4.43-10.958,3.381-15.854-3.614-5.712-4.08-5.712,0-.7,0-.7" transform="translate(-2863.859 -1507.634)" fill="#9cd499"/><path d="M3194.654,1776.229a3.376,3.376,0,0,1,1.227-1.031,9.172,9.172,0,0,1-.242,1c-.584,1.912-1.265,4.574-1.833,6.906l-.254-1.469c-.029-.167-.051-.35-.067-.542a45.236,45.236,0,0,0,1.17-4.862" transform="translate(-2892.153 -1607.693)" fill="#74b570"/><path d="M3196.257,1723.417c8.86-3.73,4.192-8.849,12-5.469a1.359,1.359,0,1,1-.583,1.865c-2.332-.35-1.516,1.515,2.331,1.982a8.64,8.64,0,0,1,1.8.38c1.832,3.52,2.658,8.152-1.22,9.762a8.783,8.783,0,0,1-2.76.566c-1.2-.951.292-6.455-1.553-5.7-1.771.729.555,4.719.236,5.724a25.546,25.546,0,0,1-5.534-.776,2.755,2.755,0,0,1-1.463-1.684c-.583-2.448,3.264-3.963,3.381-6.062.107-1.929-1.41,4.244-5.429,5.152-3.635-1.7-5.352-4-1.211-5.745" transform="translate(-2892.48 -1554.846)" fill="#9cd499"/><path d="M3015.993,1635.49c.932-1.982-1.516-2.448-1.4-.933.1,1.343.115,4.607-1.262,5.5a21.607,21.607,0,0,1-8.05-2.673.99.99,0,0,1,.1-.608c1.049-2.1,7.811-3.847,5.712-4.546-1.671-.557-4.6,2.731-6.959,4.387a5.019,5.019,0,0,1-2.367-3.788c0-1.937,2.353-4.129,5.4-5.177,1.369.138,2.642.887,4.629,2.013,2.936,1.664,2.257-1.026-.519-2.622a8.36,8.36,0,0,1,6.547,3.594,4.088,4.088,0,0,0,.94,2.662c3.018,4.412-.465,6.987-4.629,6.82a27.382,27.382,0,0,1,1.858-4.625" transform="translate(-2718.529 -1473.514)" fill="#9cd499"/><path d="M3265.119,1738.521a39.606,39.606,0,0,0,7.921,5.22c3.109,1.4,2.487,5.958,2.487,5.958s.466-3.938-2.124-5.285-4.3-2.953-6.27-3.264a28.5,28.5,0,0,1-3.057-.622s.622-1.244.259-1.71.784-.3.784-.3" transform="translate(-2956.084 -1574.45)" fill="#74b570"/><path d="M3233.587,1519.572a36.559,36.559,0,0,0-15.6,8.86c-1.14,1.3-1.14,1.658-1.14,1.658l.881,1.658.415-.207s-.674-1.4,1.088-3.212a31.879,31.879,0,0,1,9.275-6.684c2.539-1.088,5.078-2.073,5.078-2.073" transform="translate(-2913.316 -1376.188)" fill="#74b570"/><path d="M3110.8,1899.257h3.187a4.1,4.1,0,0,0,4.1-4.1v-7.323h-11.394v7.323a4.1,4.1,0,0,0,4.1,4.1" transform="translate(-2813.553 -1709.699)" fill="#75a1de"/><rect width="11.394" height="0.802" transform="translate(293.142 179.441)" fill="#fff"/><rect width="11.394" height="0.472" transform="translate(293.142 180.904)" fill="#fff"/><path d="M1415.162,116.028a15.759,15.759,0,1,0-27.348,10.68,7.149,7.149,0,0,1,1.894,4.846v7.064a8.334,8.334,0,0,0,8.31,8.31h2.77a8.334,8.334,0,0,0,8.31-8.31v-7.064a7.224,7.224,0,0,1,1.922-4.879,15.7,15.7,0,0,0,4.142-10.649" transform="translate(-1253.085 -90.807)" fill="#f5dc95"/><g transform="translate(132.76 12.721)" opacity="0.5"><g clip-path="url(#e)"><path d="M1434.091,148.367a13.558,13.558,0,1,0-23.527,9.188,6.15,6.15,0,0,1,1.629,4.169V167.8a7.17,7.17,0,0,0,7.149,7.149h2.383a7.17,7.17,0,0,0,7.149-7.149v-6.077a6.215,6.215,0,0,1,1.654-4.2,13.508,13.508,0,0,0,3.564-9.161" transform="translate(-1406.976 -134.809)" fill="#fff"/></g></g><path d="M1466.517,325.325h-5.19a.472.472,0,0,1-.47-.429c-.009-.1-.978-10.119-5.458-12.925a.472.472,0,1,1,.5-.8c4.37,2.737,5.612,11.178,5.851,13.21h4.267a15.439,15.439,0,0,1,.425-3.783,20.779,20.779,0,0,1,5.076-9.346.472.472,0,0,1,.7.638c-5.89,6.412-5.235,12.845-5.228,12.909a.472.472,0,0,1-.469.525" transform="translate(-1317.871 -281.745)" fill="#94bdf2"/><path d="M1464.807,266.243c-1.752,0-4.141-1.245-6.657-2.594-3.249,1.731-6.284,3.283-7.983,2.253-.8-.484-1.18-1.431-1.167-2.9a2.994,2.994,0,0,1,1.175-2.763c1.7-1.008,4.743.6,7.976,2.335,3.3-1.758,6.4-3.4,8.1-2.363a2.987,2.987,0,0,1,1.12,2.8c-.019,1.451-.436,2.428-1.24,2.9a2.56,2.56,0,0,1-1.323.325m-5.654-3.128c2.591,1.377,5.3,2.7,6.5,1.99.5-.3.762-1,.776-2.1.013-1.038-.211-1.7-.668-1.983-1.156-.7-3.966.693-6.606,2.093m-7.7-2.244a1.543,1.543,0,0,0-.794.184c-.463.274-.7.933-.712,1.959-.01,1.088.23,1.788.712,2.08,1.164.706,3.884-.606,6.492-1.983-2.109-1.125-4.322-2.241-5.7-2.241" transform="translate(-1312.276 -235.371)" fill="#94bdf2"/><path d="M1520.8,578.677h-3.02a1.94,1.94,0,0,1-1.934-1.934v-.283a1.94,1.94,0,0,1,1.934-1.934h3.02a1.94,1.94,0,0,1,1.934,1.934v.283a1.94,1.94,0,0,1-1.934,1.934" transform="translate(-1372.814 -520.314)" fill="#94bdf2"/><path d="M1443.061,452.859v5a8.728,8.728,0,0,0,8.7,8.7h2.9a8.728,8.728,0,0,0,8.7-8.7v-5Z" transform="translate(-1306.897 -410.128)" fill="#94bdf2"/><path d="M1455.689,446.582h-19.878a1.136,1.136,0,0,1-1.132-1.132v-.126a1.136,1.136,0,0,1,1.132-1.132h19.878a1.136,1.136,0,0,1,1.132,1.132v.126a1.136,1.136,0,0,1-1.132,1.132" transform="translate(-1299.305 -402.279)" fill="#9ec8ff"/><path d="M1456.407,465.664l-19.728,2.437a1.136,1.136,0,0,1-1.262-.985l-.016-.125a1.136,1.136,0,0,1,.985-1.263l19.728-2.437a1.136,1.136,0,0,1,1.262.985l.015.125a1.136,1.136,0,0,1-.985,1.263" transform="translate(-1299.951 -419.569)" fill="#9ec8ff"/><path d="M1456.407,502.256l-19.728,2.437a1.136,1.136,0,0,1-1.262-.985l-.016-.125a1.136,1.136,0,0,1,.985-1.263l19.728-2.437a1.136,1.136,0,0,1,1.262.985l.015.125a1.135,1.135,0,0,1-.985,1.263" transform="translate(-1299.951 -452.708)" fill="#9ec8ff"/><path d="M1475.937,541.421l-16.431,2.03a1.042,1.042,0,0,1-1.159-.9l-.038-.31a1.042,1.042,0,0,1,.9-1.159l16.431-2.03a1.042,1.042,0,0,1,1.159.9l.038.31a1.042,1.042,0,0,1-.9,1.159" transform="translate(-1320.699 -488.178)" fill="#9ec8ff"/><path d="M3051.2,510.093h10.59a10.59,10.59,0,1,1-10.59-10.59Z" transform="translate(-2753.701 -452.371)" fill="#9ec8ff"/><path d="M3182.231,494.378a10.591,10.591,0,0,0-10.59-10.59v10.59Z" transform="translate(-2872.371 -438.138)" fill="#f39892"/><path d="M3059.4,596.024a10.59,10.59,0,0,0,10.59,10.59,10.641,10.641,0,0,1-10.59-10.59" transform="translate(-2770.724 -539.784)" fill="#f39892"/><path d="M3069.994,483.787a10.59,10.59,0,0,0-10.59,10.59,10.641,10.641,0,0,1,10.59-10.59" transform="translate(-2770.724 -438.138)" fill="#f39892"/><path d="M3171.64,606.614a10.59,10.59,0,0,0,10.59-10.59,10.641,10.641,0,0,1-10.59,10.59" transform="translate(-2872.37 -539.784)" fill="#f39892"/><rect width="2.313" height="6.693" transform="translate(90.228 50.717)" fill="#9ec8ff"/><rect width="2.313" height="4.515" transform="translate(119.875 52.895)" fill="#9ec8ff"/><rect width="2.313" height="15.659" transform="translate(100.03 41.751)" fill="#9ec8ff"/><rect width="2.313" height="7.038" transform="translate(104.932 50.372)" fill="#9ec8ff"/><rect width="2.313" height="9.031" transform="translate(109.833 48.379)" fill="#9ec8ff"/><rect width="2.313" height="11.111" transform="translate(95.129 46.299)" fill="#9ec8ff"/><rect width="2.313" height="13.686" transform="translate(114.75 43.725)" fill="#9ec8ff"/></g></g><g transform="translate(3.03 17.165)"><g clip-path="url(#f)"><path d="M165.415,331.565l-12.13-7.418L151.091,338.2a14.234,14.234,0,0,0,14.324-6.631" transform="translate(-139.864 -310.726)" fill="#a2dff2"/><path d="M186.487,267.051c.033-.054.075-.127.074-.124a14.219,14.219,0,0,0,.315-14c-4.293,2.249-1.736.883-12.532,6.72,12.15,7.43,10.263,6.284,12.143,7.4" transform="translate(-160.923 -246.229)" fill="#9cd499"/><path d="M33.029,182.914l13.334,4.913,12.509-6.764c-5.851-10.821-21.6-9.523-25.843,1.851" transform="translate(-32.942 -174.406)" fill="#9ec8ff"/><path d="M35.588,291.039l2.194-14.048-13.334-4.913a14.248,14.248,0,0,0,11.14,18.962" transform="translate(-24.361 -263.569)" fill="#f39892"/><path d="M21.31,232.123a1.368,1.368,0,0,1,.674.174,13.6,13.6,0,0,1,.484-1.892l7.24,2.668s0,0,0-.007a1.286,1.286,0,0,1,.315-.883l-.725-.267-6.5-2.4A13.929,13.929,0,0,1,24.891,226a1.409,1.409,0,0,1-.723-.607,14.892,14.892,0,0,0-2.256,3.8l-.008,0-.164.44-.166.444.008,0a14.554,14.554,0,0,0-.53,2.07,1.311,1.311,0,0,1,.258-.027" transform="translate(-22.095 -221.289)" fill="#fff"/><path d="M46.475,176.728l.008,0-.224-.415-.014-.025-.183-.341-.007,0a14.52,14.52,0,0,0-5.861-5.685A14.915,14.915,0,0,0,23.9,172.04a1.459,1.459,0,0,1,.6.73,13.779,13.779,0,0,1,7.943-3.17A13.534,13.534,0,0,1,45.2,176.347l-3.694,2c-.763.41-1.829.987-3.614,1.953l-4.426,2.394-.114.062-.371-.227-.02.13-2.6-.959a1.3,1.3,0,0,1-.348.877l2.8,1.032L30.749,196.8a13.836,13.836,0,0,1-11.162-13.342,1.35,1.35,0,0,1-.459.084,1.376,1.376,0,0,1-.485-.088A14.777,14.777,0,0,0,30.6,197.73v.008l.465.073.467.074v-.008a14.7,14.7,0,0,0,14.093-6.541l.009.006.092-.151s.151-.247.151-.247l.067-.112.01-.017.007-.013.15-.244-.007,0a14.748,14.748,0,0,0,.368-13.826M31.681,196.945l2.011-12.876,5.234,3.2c2.11,1.291,3.317,2.029,4.077,2.493l1.807,1.1a13.692,13.692,0,0,1-13.129,6.078m13.63-6.9L45.22,190c-.5-.294-.711-.421-1.7-1.023l-9.242-5.651,7.672-4.148c1.127-.606,1.589-.848,2.733-1.446l.98-.513a13.8,13.8,0,0,1-.354,12.834" transform="translate(-19.914 -169.876)" fill="#e7f3fe"/></g></g><g transform="translate(0 0)"><g clip-path="url(#a)"><path d="M615.867,175.343H576.75a.771.771,0,0,1-.771-.771V157.739a.771.771,0,0,1,.771-.771h39.117a.771.771,0,0,1,.771.771v16.833a.771.771,0,0,1-.771.771" transform="translate(-521.631 -142.157)" fill="#9ec8ff"/><path d="M625.573,220.815h-37.19a.623.623,0,0,1-.623-.623V208.753a.623.623,0,0,1,.623-.623h37.19a.623.623,0,0,1,.623.623v11.439a.623.623,0,0,1-.623.623" transform="translate(-532.3 -188.491)" fill="#fff"/><path d="M594.991,172.733h-.9a.345.345,0,0,1-.345-.345v-.743a.345.345,0,0,1,.345-.345h.9a.345.345,0,0,1,.345.345v.743a.345.345,0,0,1-.345.345" transform="translate(-537.718 -155.136)" fill="#fff"/><path d="M625.682,172.733h-.9a.345.345,0,0,1-.345-.345v-.743a.345.345,0,0,1,.345-.345h.9a.345.345,0,0,1,.345.345v.743a.345.345,0,0,1-.345.345" transform="translate(-565.514 -155.136)" fill="#fff"/><path d="M656.376,172.733h-.9a.345.345,0,0,1-.345-.345v-.743a.345.345,0,0,1,.345-.345h.9a.345.345,0,0,1,.345.345v.743a.345.345,0,0,1-.345.345" transform="translate(-593.311 -155.136)" fill="#fff"/><path d="M777.557,225.92h-20.33a.608.608,0,1,1,0-1.216h20.33a.608.608,0,1,1,0,1.216" transform="translate(-685.225 -203.501)" fill="#9ec8ff"/><path d="M615.5,325.364h-20.33a.608.608,0,1,1,0-1.216H615.5a.608.608,0,0,1,0,1.216" transform="translate(-538.459 -293.562)" fill="#9ec8ff"/><path d="M833.973,325.364h-2.1a.209.209,0,0,1-.208-.208v-.8a.209.209,0,0,1,.208-.208h2.1a.209.209,0,0,1,.208.208v.8a.209.209,0,0,1-.208.208" transform="translate(-753.187 -293.562)" fill="#9ec8ff"/><path d="M867.582,325.364h-2.1a.209.209,0,0,1-.208-.208v-.8a.209.209,0,0,1,.208-.208h2.1a.209.209,0,0,1,.208.208v.8a.209.209,0,0,1-.208.208" transform="translate(-783.625 -293.562)" fill="#9ec8ff"/><path d="M653.5,257.756H619.835a.413.413,0,0,1,0-.825H653.5a.413.413,0,1,1,0,.825" transform="translate(-560.974 -232.687)" fill="#9ec8ff"/><path d="M653.5,276.632H619.835a.413.413,0,0,1,0-.825H653.5a.413.413,0,1,1,0,.825" transform="translate(-560.974 -249.782)" fill="#9ec8ff"/><path d="M1890.376,130.579h-17.362V120.46h13.057l4.3,4.3Z" transform="translate(-1696.28 -109.093)" fill="#ffb8b3"/><path d="M2008.014,120.46v5.4h4.624v-1.038l-4.334-4.334Z" transform="translate(-1818.542 -109.093)" fill="#f39892"/><path d="M2011.392,120.46v4.363h4.3Z" transform="translate(-1821.601 -109.093)" fill="#ffb8b3"/><path d="M1898.558,154.817h-7.737a.307.307,0,1,1,0-.613h7.737a.307.307,0,1,1,0,.613" transform="translate(-1712.129 -139.653)" fill="#fff"/><path d="M1898.558,171.445h-7.737a.307.307,0,1,1,0-.613h7.737a.307.307,0,1,1,0,.613" transform="translate(-1712.129 -154.712)" fill="#fff"/><path d="M1898.558,188.945h-7.737a.307.307,0,1,1,0-.613h7.737a.307.307,0,1,1,0,.613" transform="translate(-1712.129 -170.561)" fill="#fff"/><path d="M1955.052,123.723a.519.519,0,1,1-.519-.519.519.519,0,0,1,.519.519" transform="translate(-1769.637 -111.579)" fill="#3e6bab"/><rect width="13.305" height="11.035" transform="translate(106.083 22.831) rotate(-79.065)" fill="#fae8b6"/><path d="M1184.2,169.518l-5.744-1.11a.283.283,0,0,1,.107-.556l5.744,1.11a.283.283,0,1,1-.107.556" transform="translate(-1067.052 -152.01)" fill="#9ec8ff"/><path d="M1181.261,184.736l-5.744-1.11a.283.283,0,0,1,.107-.556l5.744,1.11a.283.283,0,1,1-.107.556" transform="translate(-1064.389 -165.792)" fill="#9ec8ff"/><path d="M1178.239,200.373l-5.744-1.11a.283.283,0,1,1,.107-.556l5.744,1.11a.283.283,0,1,1-.107.556" transform="translate(-1061.653 -179.953)" fill="#9ec8ff"/><path d="M1191.349,116.7a.472.472,0,1,1-.374-.553.472.472,0,0,1,.374.553" transform="translate(-1078.089 -105.176)" fill="#3e6bab"/><path d="M1981,259.928l-16.767-1.766,1.107-10.51,13.294,1.4,3.107,3.839Z" transform="translate(-1778.895 -224.284)" fill="#9ec8ff"/><path d="M1985.591,257.823l-12.481-1.315-.934,8.868,15.516,1.634.547-5.192-3.036-.32Z" transform="translate(-1786.086 -232.305)" fill="#fff"/><path d="M2015.907,289.925l-8.085-.852a.339.339,0,0,1,.071-.674l8.085.852a.339.339,0,0,1-.071.674" transform="translate(-1818.094 -261.185)" fill="#9ec8ff"/><path d="M2013.918,308.808l-8.084-.852a.339.339,0,1,1,.071-.674l8.085.852a.339.339,0,1,1-.071.674" transform="translate(-1816.292 -278.286)" fill="#9ec8ff"/><path d="M2011.841,328.521l-8.085-.852a.339.339,0,0,1,.071-.674l8.085.852a.339.339,0,0,1-.071.674" transform="translate(-1814.411 -296.14)" fill="#9ec8ff"/><path d="M2038,268.389a.519.519,0,1,1-.519-.519.519.519,0,0,1,.519.519" transform="translate(-1844.761 -242.594)" fill="#3e6bab"/><path d="M2913.718,130.933a5.789,5.789,0,1,1-5.789-5.789,5.789,5.789,0,0,1,5.789,5.789" transform="translate(-2628.301 -113.335)" fill="#9cd499"/><path d="M2939.592,170.5h-.01a.284.284,0,0,1-.2-.1l-1.572-1.787a.283.283,0,1,1,.425-.374l1.375,1.563,3.146-3.079a.283.283,0,0,1,.4.4l-3.359,3.288a.283.283,0,0,1-.2.081" transform="translate(-2660.537 -150.924)" fill="#fff"/><path d="M184.375,611.69H217.75a1.56,1.56,0,0,0,1.555-1.555V598.21a1.56,1.56,0,0,0-1.555-1.555H184.375a1.56,1.56,0,0,0-1.555,1.555v11.924a1.56,1.56,0,0,0,1.555,1.555" transform="translate(-165.569 -540.356)" fill="#9ec8ff"/><path d="M431.04,719.825v8.3l-9.559-9.559s9.364,1.264,9.559,1.264" transform="translate(-381.711 -650.759)" fill="#9ec8ff"/><path d="M204.138,624.506h30.074a1.322,1.322,0,0,0,1.319-1.319v-9.417a1.322,1.322,0,0,0-1.319-1.319H204.138a1.323,1.323,0,0,0-1.319,1.319v9.417a1.323,1.323,0,0,0,1.319,1.319" transform="translate(-183.681 -554.662)" fill="#fff"/><path d="M354.479,631.605h14.775a.648.648,0,1,0,0-1.3H354.479a.648.648,0,0,0,0,1.3" transform="translate(-320.444 -570.834)" fill="#9ec8ff"/><path d="M226.448,663.317h27.4a.361.361,0,0,0,.36-.36v-.007a.361.361,0,0,0-.36-.36h-27.4a.361.361,0,0,0-.36.36v.007a.361.361,0,0,0,.36.36" transform="translate(-204.755 -600.068)" fill="#9ec8ff"/><path d="M226.448,678.265h27.4a.361.361,0,0,0,.36-.36V677.9a.361.361,0,0,0-.36-.36h-27.4a.361.361,0,0,0-.36.36v.007a.361.361,0,0,0,.36.36" transform="translate(-204.755 -613.606)" fill="#9ec8ff"/><path d="M2808.856,618h1.749a.669.669,0,0,0,.669-.669v-1.44a.669.669,0,0,0-.669-.669h-1.749a.669.669,0,0,0-.669.669v1.44a.669.669,0,0,0,.669.669" transform="translate(-2543.212 -557.172)" fill="#9ec8ff"/><path d="M2749.376,618h1.749a.669.669,0,0,0,.669-.669v-1.44a.669.669,0,0,0-.669-.669h-1.749a.669.669,0,0,0-.669.669v1.44a.669.669,0,0,0,.669.669" transform="translate(-2489.344 -557.172)" fill="#9ec8ff"/><path d="M2689.9,618h1.749a.669.669,0,0,0,.669-.669v-1.44a.669.669,0,0,0-.669-.669H2689.9a.669.669,0,0,0-.669.669v1.44a.669.669,0,0,0,.669.669" transform="translate(-2435.477 -557.172)" fill="#9ec8ff"/></g></g></g></svg>