<svg xmlns="http://www.w3.org/2000/svg" xmlns:xlink="http://www.w3.org/1999/xlink" width="342.541" height="205.074" viewBox="0 0 342.541 205.074"><defs><clipPath id="a"><rect width="342.541" height="205.074" transform="translate(0 0)" fill="none"/></clipPath></defs><g transform="translate(0 0.002)"><g transform="translate(0 -0.002)" clip-path="url(#a)"><path d="M137.464,205.073l105.683-.554,28.171-.008,9.333,0,28.224-.008,128.945-.036s29.494-38.169-2.011-74.421c-32.664-37.586-48.547-6.976-58.587-59.883C351.948-63.016,102.075,14.5,167.615,127.822c23.6,40.805-46.452,19.117-30.15,77.251" transform="translate(-116.483 0.002)" fill="#e6eff2"/><path d="M1905.973,1153.8s12.994-35.186,22.489-33.156-22.489,33.156-22.489,33.156" transform="translate(-1644.823 -967.025)" fill="#8bd0ca"/><path d="M1909.113,1165.013s35.4-42.617,51.418-37.15-7.827,15.537-17.006,18.555-34.412,18.6-34.412,18.6" transform="translate(-1647.533 -972.909)" fill="#8bd0ca"/><path d="M1842.677,1232.5s-.348-1.247-.879-3.062c-1.035-3.541-2.766-9.244-3.965-12.068-1.815-4.271.08-8.867,5.831-6.437s-.136,19.732-.136,19.732Z" transform="translate(-1585.447 -1044.433)" fill="#8bd0ca"/><path d="M493.994,914.782s-24.581-10-22.926-16.666,22.926,16.666,22.926,16.666" transform="translate(-406.455 -774.026)" fill="#b3e0dc"/><path d="M561.018,825.237s-29.318-26.014-25.084-37.214,10.805,5.893,12.728,12.453,12.356,24.761,12.356,24.761" transform="translate(-462.142 -676.847)" fill="#b3e0dc"/><path d="M543.372,1031.2c-2.528.65-6.6,1.743-8.624,2.526-3.062,1.185-6.268-.261-4.418-4.271s15.228,1.195,15.228,1.195-.89.217-2.186.551" transform="translate(-457.196 -887.093)" fill="#b3e0dc"/><path d="M1664.4,607.822c-5.219-9.389-21.424-2.036-21.424-2.036s-7.169,20.47-10.42,21.72,2.712-18.7,2.712-18.7c-6.656.981-21.246,13.052-21.246,13.052s6.139,20.289,2.68,20.7-4.519-18.242-4.519-18.242c-5.823,3.445-9.876,12.238-9.876,12.238-4.378,13.769,13.529,18.68,13.529,18.68a34.459,34.459,0,0,1-.4,16.345h0a24.982,24.982,0,0,0-.994,4.573l1.715-.425c.026-.495.07-.977.136-1.447a.01.01,0,0,1,0-.009c0-.007,0-.013,0-.02.052-.294.127-.713.224-1.224v0s0,0,0,0c.27-1.155.436-2,.524-2.6a.029.029,0,0,0,0-.006c.772-3.608,1.995-8.364,3.285-9.617a3.42,3.42,0,0,1-.562-.7l.562.7c4.494,5.563,19.431,2.975,27.192-.728s3.626-5.127-1.7-7.779-14.312.62-17.4-.173.531-3.247,6.086-4.178,9.632,3.845,18.646,2.5,11.62-19.569,11.62-19.569c-5.613,3.393-17.347,2.74-18.286.747s15.258-5.783,17.618-7.035,5.517-7.375.3-16.765" transform="translate(-1382.17 -520.419)" fill="#72c4f4"/><path d="M695.551,596.854c5.481-4.495,13.64,3.949,13.64,3.949s-.569,14.3,1.123,15.857,2.874-12.132,2.874-12.132c3.846,2.217,9.87,13.165,9.87,13.165s-8.691,10.96-6.668,12.052,7.2-10.1,7.2-10.1c2.737,3.527,3.09,9.906,3.09,9.906-.655,9.512-12.835,8.179-12.835,8.179a22.74,22.74,0,0,0-3.72,10.127h0a16.513,16.513,0,0,1-.5,3.047l-.949-.677q.156-.465.268-.921a.006.006,0,0,0,0-.006l0-.013c.04-.193.095-.469.16-.806h0s0,0,0,0c.115-.774.218-1.334.31-1.725v0c.4-2.4.806-5.616.318-6.7a2.25,2.25,0,0,0,.514-.29l-.514.29c-4.107,2.323-12.645-2.89-16.509-7.046s-.981-4.026,2.934-4.36,8.632,3.854,10.72,4.117.462-2.121-2.721-4.041-6.843.022-12.049-2.99-2.381-14.828-2.381-14.828c2.621,3.444,9.98,5.891,11.04,4.9s-7.959-7.251-9.1-8.593-1.6-5.864,3.886-10.359" transform="translate(-594.565 -513.938)" fill="#72c4f4"/><path d="M303.93,1203.653c-4.316-6.551,5.919-14.559,5.919-14.559s15.675,2.274,17.583.592-13.022-4.561-13.022-4.561c2.884-3.978,15.629-9.347,15.629-9.347s11.062,10.829,12.5,8.729-10.284-9.089-10.284-9.089c4.2-2.606,11.26-2.26,11.26-2.26,10.394,1.818,7.524,15.071,7.524,15.071a25.168,25.168,0,0,0,10.718,5.262h0a18.238,18.238,0,0,1,3.3.9l-.854.967q-.494-.225-.982-.4a.007.007,0,0,0-.006,0l-.014-.005c-.208-.066-.5-.158-.868-.269h0c-.839-.216-1.443-.394-1.863-.54h0c-2.6-.719-6.089-1.534-7.337-1.122a2.5,2.5,0,0,0-.26-.6l.26.6c2.084,4.789-4.638,13.586-9.658,17.36s-4.544.616-4.461-3.732,5.236-9.057,5.767-11.325-2.282-.753-4.761,2.529-.764,7.535-4.679,12.918-16.6.912-16.6.912c4.094-2.488,7.635-10.306,6.661-11.587s-8.9,7.925-10.507,9.03-6.639,1.08-10.955-5.471" transform="translate(-261.37 -1012.403)" fill="#afcdfb"/><path d="M786.1,258.087H758.659a.484.484,0,0,1-.483-.483V231.01a.484.484,0,0,1,.483-.483H786.1a.484.484,0,0,1,.483.483V257.6a.484.484,0,0,1-.483.483" transform="translate(-654.293 -198.941)" fill="#c0d8fb"/><path d="M792.663,264.414H767.6a.442.442,0,0,1-.441-.441v-24.29a.442.442,0,0,1,.441-.441h25.064a.442.442,0,0,1,.441.441v24.29a.442.442,0,0,1-.441.441" transform="translate(-662.045 -206.462)" fill="#dfebfd"/><path d="M857.545,253.893a.589.589,0,1,1,.589.589.588.588,0,0,1-.589-.589" transform="translate(-740.047 -218.598)" fill="#b7d3f3"/><path d="M891.733,261.762a.588.588,0,1,1,.229.8.589.589,0,0,1-.229-.8" transform="translate(-769.487 -225.635)" fill="#b7d3f3"/><path d="M920.192,286.665a.588.588,0,1,1-.175.813.588.588,0,0,1,.175-.813" transform="translate(-793.878 -247.305)" fill="#b7d3f3"/><path d="M932.889,323.765a.588.588,0,1,1-.589.589.588.588,0,0,1,.589-.589" transform="translate(-804.56 -279.404)" fill="#b7d3f3"/><path d="M922.759,365.048a.588.588,0,1,1-.832,0,.588.588,0,0,1,.832,0" transform="translate(-795.459 -314.881)" fill="#b7d3f3"/><path d="M895.791,392.087a.588.588,0,1,1-.832,0,.588.588,0,0,1,.832,0" transform="translate(-772.186 -338.215)" fill="#b7d3f3"/><path d="M857.545,403.4a.589.589,0,1,1,.589.588.588.588,0,0,1-.589-.588" transform="translate(-740.047 -347.622)" fill="#b7d3f3"/><path d="M824.4,261.762a.588.588,0,1,0-.229.8.589.589,0,0,0,.229-.8" transform="translate(-710.489 -225.635)" fill="#b7d3f3"/><path d="M795.938,286.665a.588.588,0,1,0,.176.813.588.588,0,0,0-.176-.813" transform="translate(-686.098 -247.305)" fill="#b7d3f3"/><path d="M783.242,323.765a.588.588,0,1,0,.588.589.588.588,0,0,0-.588-.589" transform="translate(-675.417 -279.404)" fill="#b7d3f3"/><path d="M793.372,365.048a.589.589,0,1,0,.832,0,.589.589,0,0,0-.832,0" transform="translate(-684.518 -314.881)" fill="#b7d3f3"/><path d="M820.34,392.087a.588.588,0,1,0,.832,0,.588.588,0,0,0-.832,0" transform="translate(-707.791 -338.215)" fill="#b7d3f3"/><path d="M860.682,324.354a.589.589,0,1,1,.589.588.589.589,0,0,1-.589-.588" transform="translate(-742.754 -279.404)" fill="#b7d3f3"/><rect width="0.161" height="7.351" transform="translate(118.436 37.599)" fill="#b7d3f3"/><rect width="4.955" height="0.482" transform="matrix(0.786, -0.618, 0.618, 0.786, 118.293, 44.75)" fill="#b7d3f3"/><path d="M692.732,1156.29h-89.19v-27.677h89.2a.479.479,0,0,1,.479.479V1155.8a.49.49,0,0,1-.49.49" transform="translate(-520.847 -973.974)" fill="#bbe0f8"/><path d="M733.9,1140v4.164a12.123,12.123,0,0,1-12.127,12.125H574.934a1.758,1.758,0,0,1-1.759-1.757v-.623a1.758,1.758,0,0,1,1.759-1.757h89.513a11.367,11.367,0,0,0,1.256-1.888,11.251,11.251,0,0,0,1.312-5.291v-5.293a11.02,11.02,0,0,0-2.438-6.926H574.934a1.759,1.759,0,0,1-1.759-1.759v-.622a1.759,1.759,0,0,1,1.759-1.759H722.515A11.379,11.379,0,0,1,733.9,1140" transform="translate(-494.641 -973.973)" fill="#699dee"/><path d="M733.464,1136.86h-66.81a11.05,11.05,0,0,0-2.076-4.109H574.934a1.759,1.759,0,0,1-1.759-1.759v-.622a1.759,1.759,0,0,1,1.759-1.759H722.515a11.39,11.39,0,0,1,10.948,8.249" transform="translate(-494.641 -973.972)" fill="#548ee2"/><path d="M603.542,1229.611l10.873.465-10.873.28Z" transform="translate(-520.846 -1061.134)" fill="#f2564b"/><path d="M603.542,1261.3l25.867.465-25.867.28Z" transform="translate(-520.846 -1088.485)" fill="#f2564b"/><path d="M670.011,1351.713h83.42v-21.528h-84.1a10.425,10.425,0,0,0-10.425,10.425,11.1,11.1,0,0,0,11.1,11.1" transform="translate(-568.628 -1147.927)" fill="#2c3a64"/><path d="M1235.085,1351.713h105.4v-21.528H1235.076a.373.373,0,0,0-.373.373v20.773a.381.381,0,0,0,.381.381" transform="translate(-1065.528 -1147.927)" fill="#bbe0f8"/><path d="M1178.3,1467.023h115.416a1.61,1.61,0,0,0,0-3.22H1178.3a1.61,1.61,0,0,0,0,3.22" transform="translate(-1015.462 -1263.237)" fill="#2c3a64"/><path d="M1178.3,1333.4h115.416a1.61,1.61,0,1,0,0-3.22H1178.3a1.61,1.61,0,1,0,0,3.22" transform="translate(-1015.462 -1147.927)" fill="#2c3a64"/><path d="M1925.954,1408.743l-12.825.362,12.825.218Z" transform="translate(-1650.999 -1215.722)" fill="#2680eb"/><path d="M1814.561,1372.585l-30.511.362,30.511.218Z" transform="translate(-1539.606 -1184.518)" fill="#2680eb"/><path d="M1786.342,1374.7a5.022,5.022,0,0,1,1.74,2.445,3.489,3.489,0,0,1,.135.851c.073,2.02,0,6.592,0,6.592l3.86-2.286,3.85,2.286v-6.2a4.918,4.918,0,0,0-.944-3.058,1.461,1.461,0,0,0-1.066-.633Z" transform="translate(-1541.584 -1186.343)" fill="#72c4f4"/><path d="M1786.342,1374.7a5.022,5.022,0,0,1,1.74,2.445l7.736.091s-.3-2.177-1.9-2.536Z" transform="translate(-1541.584 -1186.343)" fill="#568cdb"/><path d="M1151.28,929.826h97.31V898.2h-97.322a.548.548,0,0,0-.548.548v30.521a.56.56,0,0,0,.56.56" transform="translate(-993.052 -775.129)" fill="#bbe0f8"/><path d="M690.926,910.475v6.807a7.866,7.866,0,0,0,3.995,6.778,7.953,7.953,0,0,0,3.94,1.04H791.42a1.964,1.964,0,0,1,1.964,1.964v.8a1.964,1.964,0,0,1-1.964,1.964h-159.9a13.542,13.542,0,0,1-13.542-13.542v-5.371A12.708,12.708,0,0,1,630.7,898.2H791.42a1.963,1.963,0,0,1,1.964,1.962v.8a1.964,1.964,0,0,1-1.964,1.964H698.578a7.669,7.669,0,0,0-5.63,2.456,7.526,7.526,0,0,0-2.021,5.086" transform="translate(-533.306 -775.134)" fill="#72c4f4"/><path d="M808.821,1089.922v.8a1.965,1.965,0,0,1-1.964,1.964H646.96a13.521,13.521,0,0,1-11.091-5.772h74.49a7.951,7.951,0,0,0,3.939,1.04h92.559a1.964,1.964,0,0,1,1.964,1.964" transform="translate(-548.744 -937.991)" fill="#a4c4f4"/><path d="M1790.278,1013.618l-11.865.532,11.865.32Z" transform="translate(-1534.741 -874.735)" fill="#2680eb"/><path d="M1687.216,960.493l-28.229.532,28.229.32Z" transform="translate(-1431.679 -828.889)" fill="#2680eb"/><path d="M1661.108,963.6a5.928,5.928,0,0,1,2.48,2.652,2.971,2.971,0,0,1,.193.922c.1,2.19,0,7.147,0,7.147l5.5-2.479,5.486,2.479V967.6a4.523,4.523,0,0,0-1.345-3.315,2.273,2.273,0,0,0-1.52-.687Z" transform="translate(-1433.509 -831.572)" fill="#72c4f4"/><path d="M1661.108,963.6a5.928,5.928,0,0,1,2.48,2.652l11.023.1a3.518,3.518,0,0,0-2.707-2.75Z" transform="translate(-1433.509 -831.572)" fill="#568cdb"/><path d="M1264.622,543.673s2.619,3.875,4.112,12.02c1.308,7.134,2.455,9.768,4.344,11.231s12.413,5.782,12.413,5.782l-.787,1.844s-15.425-2.1-17.158-4.679-8.338-17.81-7.826-21.318,4.9-4.88,4.9-4.88" transform="translate(-1087.093 -469.18)" fill="#f0bc99"/><path d="M1566.123,1097.578c-.139,1.5,1.956,1.87,4.381,1.991s1.693.618,5.017,1.22,4.657-.308,4.9-.757c.214-.4-1.331-1.022-2.978-1.726-.207-.088-.415-.179-.622-.269-1.854-.815-2.894-2.478-4.339-4.019-1.369-1.46-2.669-6.135-2.669-6.135l-4.517-.965s1.268,4.207,1.709,6a5.563,5.563,0,0,1-.463,3.136,5.92,5.92,0,0,0-.416,1.52" transform="translate(-1350.821 -937.992)" fill="#f0bc99"/><path d="M1575.694,1157.137c2.426.121,1.693.618,5.017,1.22s4.657-.308,4.9-.757c.214-.4-1.331-1.022-2.978-1.726l-.026.028a9.464,9.464,0,0,1-5.035.061c-2.2-.6-4.326-1.911-5.84-2.336a5.911,5.911,0,0,0-.416,1.52c-.139,1.5,1.956,1.87,4.381,1.991" transform="translate(-1356.011 -995.56)" fill="#3a4ace"/><path d="M1205.937,752.437s30.018-2.259,35.67,1.307,14.715,45.111,14.715,45.111a3.686,3.686,0,0,1-1.809.584,15.166,15.166,0,0,1-3.721-.557s-13.025-18.588-13.943-23.271-.694-8.861-2.783-8.973-28.133,3.166-32.072-3.774a15.99,15.99,0,0,1-.683-13.81Z" transform="translate(-1035.62 -646.42)"/><path d="M1482.29,1132.767c-.139,1.5,1.956,1.87,4.381,1.991s1.693.618,5.017,1.22,4.656-.308,4.9-.757c.214-.4-1.331-1.022-2.978-1.726-.208-.088-.415-.178-.623-.269-1.854-.815-2.894-2.478-4.339-4.019-1.369-1.46-2.669-6.135-2.669-6.135l-4.518-.965s1.268,4.207,1.709,6a5.561,5.561,0,0,1-.462,3.136,5.917,5.917,0,0,0-.416,1.52" transform="translate(-1278.475 -968.359)" fill="#f0bc99"/><path d="M1491.862,1192.325c2.426.121,1.692.617,5.017,1.22s4.656-.308,4.9-.757c.214-.4-1.331-1.022-2.978-1.726l-.026.028a9.464,9.464,0,0,1-5.035.06c-2.2-.6-4.326-1.911-5.84-2.336a5.915,5.915,0,0,0-.416,1.52c-.139,1.5,1.956,1.87,4.381,1.991" transform="translate(-1283.666 -1025.927)" fill="#3a4ace"/><path d="M1146.665,787.328s26.667,1.262,32.175,5.046,12.948,45.649,12.948,45.649a3.684,3.684,0,0,1-1.83.513,15.166,15.166,0,0,1-3.7-.7s-12.292-19.081-13.027-23.8-.348-8.882-2.431-9.075-28.235,2.069-31.9-5.019,7.763-12.616,7.763-12.616" transform="translate(-982.227 -679.451)" fill="#050542"/><path d="M1108.673,348.675a6.916,6.916,0,0,0-3.687-.964,1.752,1.752,0,0,1,.813-.321,5.8,5.8,0,0,0-2.1.4c-8.664-4.02-10.935,8.981-10.951,12.036s-.228,6.557-4.849,8.989c-9.092,4.786-2.347,14.648-2.347,14.648.066.045,6.059,7.982,6.059,7.982-.06-2.473,9.7-15.583,15.873-19.074,1.582-2.025,2.344-5.737,2.4-6.029a16.2,16.2,0,0,1-1.583,5.494c5.318-4.278,3.51-21.093.373-23.162" transform="translate(-934.733 -299.479)" fill="#2c3a64"/><path d="M1191.7,510.438a30.027,30.027,0,0,1,4.966,0,15.958,15.958,0,0,1,4.31,1.082c2.35.982,2.1,5.143-2.828,4.373s-6.794-4.22-6.448-5.454" transform="translate(-1028.379 -440.409)" fill="#fc9490"/><path d="M1202.463,475.007c.029.015.7,3.58-2.526,3.437-2.12-.094-6.691-2.659-6.288-4.473a22.443,22.443,0,0,0,2.116-8.21l.386.1,6.488,1.74s-.288,2.059-.422,4.008c-.114,1.637-.118,3.2.245,3.4" transform="translate(-1030.079 -401.943)" fill="#f0bc99"/><path d="M1218.555,468.251s-.288,2.059-.422,4.008c-3.672-.349-5.393-3.835-6.066-5.749Z" transform="translate(-1045.994 -402.591)" fill="#fb7369"/><path d="M1194.655,377.376a19.376,19.376,0,0,1-2.014-5.811c-.207-1.882,1.2-8.712,8.062-7.258a9.43,9.43,0,0,1,3.8,1.736c1.436,1.116,3.461,3.454.633,9.308l-.766,1.99Z" transform="translate(-1029.213 -314.217)" fill="#2c3a64"/><path d="M1214.776,399.172s-8.715-.437-8.359-5.86-.53-9.131,5.049-9.082,6.523,2.19,6.845,4.029-1.259,10.887-3.535,10.913" transform="translate(-1041.108 -331.584)" fill="#f0bc99"/><path d="M1198.2,377.288s-2.808,6.2-6.528,6.9-5.242-.389-5.242-.389a10.382,10.382,0,0,0,3.8-5.894s6.378-3.764,7.974-.617" transform="translate(-1023.873 -324.51)" fill="#2c3a64"/><path d="M1267.772,382.769a7.7,7.7,0,0,1,2.027,2.949c.342,1.41.348,4.265,1.183,4.224,0,0,2.084-4.2.229-6.785-1.967-2.736-3.439-.388-3.439-.388" transform="translate(-1094.066 -329.514)" fill="#2c3a64"/><path d="M1156.8,547.543c-.7.843-2.907,1.1-5.261,1.489a15.8,15.8,0,0,0-5.181,1.5c-3.141,1.844-13.405,8.078-16.414,7.794-1.166-.11-.948-2.336-.242-5.29,1.112-4.665,3.44-11.144,3.44-13.961a81.78,81.78,0,0,1,1.194-9.335q.083-.5.169-1.015c1.351-8.087,3.223-17.624,3.223-17.624s2.087,4.554,6.155,4.554,3.122-3.473,3.122-3.473,3.711.436,4.588,1.381a36.328,36.328,0,0,1,3.542,6.14s.09,1.417-3.418,2.091a45.993,45.993,0,0,1,.955,6.408c.075,1.894-1.292,7.82-1.685,11.506a6.809,6.809,0,0,0,.054,2.8,5.43,5.43,0,0,0,2.148,1.77c1.982,1.154,4.447,2.265,3.61,3.267" transform="translate(-974.417 -441.073)" fill="#739af0"/><path d="M1153.194,639.772c2.251,3.838-6.105,4.992-7.489,5.8-3.141,1.844-12.748,8.532-15.756,8.248-1.166-.11-.948-2.336-.242-5.29,1.112-4.665,3.44-11.144,3.44-13.961a81.793,81.793,0,0,1,1.195-9.336l3.621-3.477s3.88,10.028,7.578,11.672a31.092,31.092,0,0,0,5.451,1.774,6.811,6.811,0,0,0,.054,2.795,5.428,5.428,0,0,0,2.148,1.77" transform="translate(-974.418 -536.569)" fill="#4a75cb"/><path d="M1139.843,529.891s-3.1-1.88-6.089,1.687,2.128,29.062,6.563,30.372c4.927,1.455,19.159-.233,19.159-.233l-.274-2.224s-15.151-2.905-15.781-3.715-2-25.476-3.578-25.887" transform="translate(-977.64 -456.86)" fill="#f0bc99"/><path d="M1125.242,511.1s-6.358.574-8.2,2.665-2.386,7.758-2.386,7.758,5.6,4.52,12.346,2.766Z" transform="translate(-961.925 -441.069)" fill="#739af0"/><rect width="11.392" height="1.346" transform="translate(179.557 105.999)" fill="#bbe0f8"/><path d="M1375.959,676.829c.111-.445,10.472-16.714,10.472-16.714h23.052l-11.562,16.277Z" transform="translate(-1187.43 -569.668)" fill="#bbe0f8"/><path d="M1383.038,677.012c.112-.445,10.505-16.9,10.505-16.9h22.049l-11,16.9Z" transform="translate(-1193.539 -569.667)" fill="#bbe0f8"/><path d="M1500.752,718.38a1.841,1.841,0,0,1-1.6,1.194.822.822,0,0,1-.782-1.194,1.841,1.841,0,0,1,1.6-1.193.822.822,0,0,1,.783,1.193" transform="translate(-1293.004 -618.919)" fill="#72c4f4"/><path d="M1316.09,743.336s4.933-.955,5.49-.716,3.66,3.024,3.342,3.581-1.592.955-3.024.478-4.535-.716-5.093-1.432a4.671,4.671,0,0,1-.716-1.91" transform="translate(-1135.764 -640.836)" fill="#fc9490"/><path d="M1541.43,458.254l-4.565,3.276-4.589-3.24a5.619,5.619,0,0,1,9.153-.036" transform="translate(-1322.33 -393.445)" fill="#fff"/><path d="M1495.824,397.654a13.566,13.566,0,0,0-11.1,5.771l2.9,2.034a10.034,10.034,0,0,1,16.367-.059l2.886-2.069a13.579,13.579,0,0,0-11.046-5.676" transform="translate(-1281.288 -343.169)" fill="#fff"/><path d="M1417.766,286.918a28.7,28.7,0,0,0-23.5,12.2l2.9,2.034A25.2,25.2,0,0,1,1438.26,301l2.874-2.07a28.708,28.708,0,0,0-23.368-12.015" transform="translate(-1203.23 -247.605)" fill="#fff"/><path d="M1460.221,347.508a20.534,20.534,0,0,0-16.757,8.657l2.9,2.034a17.024,17.024,0,0,1,27.649-.106l2.874-2.058a20.531,20.531,0,0,0-16.663-8.526" transform="translate(-1245.686 -299.893)" fill="#fff"/><path d="M342.523,1488.364H.019a.019.019,0,0,1-.019-.019v-1.026a.019.019,0,0,1,.019-.019h342.5a.019.019,0,0,1,.019.019v1.026a.019.019,0,0,1-.019.019" transform="translate(0 -1283.516)" fill="#2e3552"/><path d="M972.967,631.433,972.4,632a1.554,1.554,0,0,1-2.2,0l-4.753-4.762a1.554,1.554,0,0,1,0-2.2l.813-.811a.3.3,0,1,1,.429.43l-.813.811a.946.946,0,0,0,0,1.336l4.753,4.762a.946.946,0,0,0,1.336,0l.568-.567a.946.946,0,0,0,0-1.336l-3.155-3.161a.3.3,0,1,1,.43-.429l3.155,3.161a1.554,1.554,0,0,1,0,2.2" transform="translate(-832.778 -538.623)" fill="#fb7369"/><path d="M985.492,632.383l-1.017,1.016a2.514,2.514,0,0,1-3.545-.126l-7.145-7.159a.3.3,0,0,1,.43-.429l7.145,7.159a1.907,1.907,0,0,0,2.685.125l1.017-1.015a1.907,1.907,0,0,0-.12-2.686l-8.139-8.155a1.907,1.907,0,0,0-2.686-.125.3.3,0,1,1-.429-.43,2.514,2.514,0,0,1,3.545.126l8.139,8.155a2.514,2.514,0,0,1,.119,3.545" transform="translate(-840.202 -534.951)" fill="#fb7369"/><path d="M592.961,598.361l-.8-.153a1.582,1.582,0,0,1-1.256-1.848l1.282-6.725a1.582,1.582,0,0,1,1.848-1.256l1.148.219a.309.309,0,1,1-.116.607l-1.148-.219a.962.962,0,0,0-1.125.764l-1.282,6.725a.962.962,0,0,0,.764,1.124l.8.153a.963.963,0,0,0,1.124-.764l.851-4.464a.309.309,0,1,1,.607.116l-.851,4.465a1.581,1.581,0,0,1-1.848,1.256" transform="translate(-509.915 -507.737)" fill="#afcdfb"/><path d="M577.571,606.82l-1.437-.274a2.558,2.558,0,0,1-1.925-3.053l1.928-10.111a.309.309,0,1,1,.607.116l-1.927,10.111a1.941,1.941,0,0,0,1.434,2.33l1.437.274a1.941,1.941,0,0,0,2.19-1.639l2.2-11.517a1.941,1.941,0,0,0-1.434-2.33.309.309,0,0,1,.116-.607,2.558,2.558,0,0,1,1.925,3.053l-2.2,11.517a2.558,2.558,0,0,1-2.914,2.131" transform="translate(-495.489 -509.258)" fill="#afcdfb"/></g></g></svg>