<svg xmlns="http://www.w3.org/2000/svg" xmlns:xlink="http://www.w3.org/1999/xlink" width="740.812" height="462.515" viewBox="0 0 740.812 462.515"><defs><clipPath id="a"><rect width="740.812" height="462.515" fill="none"/></clipPath><clipPath id="c"><rect width="107.083" height="104.932" fill="none"/></clipPath><clipPath id="d"><rect width="334.632" height="200.997" fill="none"/></clipPath><clipPath id="e"><rect width="62.183" height="92.055" fill="none"/></clipPath><clipPath id="f"><path d="M46.581,212.689a16.3,16.3,0,1,1,16.3,16.3,16.3,16.3,0,0,1-16.3-16.3m-14.473,0a30.778,30.778,0,1,0,30.778-30.778,30.778,30.778,0,0,0-30.778,30.778" transform="translate(-32.108 -181.911)" fill="none"/></clipPath></defs><g transform="translate(-126 -1385.961)"><g transform="translate(126 1385.961)"><g clip-path="url(#a)"><g transform="translate(0 0)"><g clip-path="url(#a)"><path d="M83.528,102.392C195.1,60.971,308.5,97.591,385.413,177.351S623.732,122.3,709.335,201.929C767.755,256.273,741,395.992,660.893,456.508c-108.88,82.255-514.5,84.725-581.8,56.5-115.005-48.233-.734-137.552-54.417-223.174C-38.663,188.819,34.221,120.7,83.528,102.392" transform="translate(0 -66.752)" fill="#e7f3fe"/><path d="M787.08,1926.746c-55.851-2.73-245.846,1.9-303.629,3.7s-124.856-2.379-159.7-8.53-236.235.524-227.1,17.06,89.73,7.4,181.121,14.044,296.933-.831,343.3,0,88.879-1.662,148.627-4.985,49.75-19.706,17.376-21.288" transform="translate(-75.506 -1504.271)" fill="#cce2ff"/><g transform="translate(483.699 0)" opacity="0.5"><g clip-path="url(#c)"><path d="M2342.093,58.476a54.009,54.009,0,0,0,.338-6.011c0-1.073-.035-2.137-.1-3.194l-9.933-3.214a43.664,43.664,0,0,0-3.517-11.9l6.587-8.1a53.684,53.684,0,0,0-5.218-7.584l-9.934,3.242a44.149,44.149,0,0,0-9.835-7.56l.565-10.438a53.112,53.112,0,0,0-8.672-3.074L2296.241,9.1a44.173,44.173,0,0,0-12.4-.325L2278.16,0a53.158,53.158,0,0,0-8.823,2.607l.013,10.453a44.063,44.063,0,0,0-10.221,7.031l-9.747-3.761a53.76,53.76,0,0,0-5.613,7.3l6.15,8.444a43.664,43.664,0,0,0-4.146,11.7l-10.088,2.684a54.013,54.013,0,0,0-.338,6.012c0,1.073.035,2.137.1,3.194l9.933,3.214a43.673,43.673,0,0,0,3.517,11.9l-6.587,8.1a53.683,53.683,0,0,0,5.218,7.584l9.935-3.242a44.152,44.152,0,0,0,9.834,7.56l-.565,10.438a53.127,53.127,0,0,0,8.672,3.074l6.135-8.465a44.161,44.161,0,0,0,12.4.325l5.68,8.779a53.139,53.139,0,0,0,8.823-2.608l-.013-10.453a44.06,44.06,0,0,0,10.221-7.031L2328.4,88.6a53.785,53.785,0,0,0,5.613-7.3l-6.151-8.443A43.659,43.659,0,0,0,2332,61.16Zm-53.2,14.989a21,21,0,1,1,21-21,21,21,0,0,1-21,21" transform="translate(-2235.348 0.002)" fill="#9ec8ff"/></g></g><path d="M2611.234,220.017a1.082,1.082,0,0,1-.832-1.774,35.231,35.231,0,0,0,6.207-33.933,1.082,1.082,0,1,1,2.046-.7,37.394,37.394,0,0,1-6.589,36.022,1.081,1.081,0,0,1-.833.39" transform="translate(-2045.351 -143.304)" fill="#fff"/><path d="M2551.983,89.775a1.078,1.078,0,0,1-.741-.294,34.972,34.972,0,0,0-12.108-7.46,1.082,1.082,0,1,1,.738-2.034,37.121,37.121,0,0,1,12.854,7.919,1.082,1.082,0,0,1-.742,1.87" transform="translate(-1989.141 -62.627)" fill="#fff"/><path d="M2441.222,73.188a1.082,1.082,0,0,1-.264-2.131,37.484,37.484,0,0,1,9.166-1.134,1.082,1.082,0,1,1,0,2.164,35.307,35.307,0,0,0-8.636,1.068,1.081,1.081,0,0,1-.266.033" transform="translate(-1912.128 -54.792)" fill="#fff"/><g transform="translate(170.225 0.152)" opacity="0.5"><g clip-path="url(#d)"><rect width="334.632" height="200.996" transform="translate(0 0.001)" fill="#9ec8ff"/></g></g><rect width="314.824" height="184.519" transform="translate(186.528 5.058)" fill="#fff"/><path d="M2051.178,428.621c15-14.281,40.645-13.957,40.1,7.79s1.255,23.791,7.429,35.2c21.422,39.584-25.534,37.254-45.117,38.552s-17.96-35.6-14.5-56.044,7.692-21.319,12.082-25.5" transform="translate(-1596.193 -328.203)" fill="#303c60"/><path d="M2064.747,1040.3c-4.81,40.393-13.55,70.253-14.523,89.4s-4.868,94.548-4.868,94.548,10.71-.749,11.684-2.372,20.123-44.141,19.149-70.43,19.126-66.263,19.126-66.263l-4.845-39.22Z" transform="translate(-1602.768 -815.194)" fill="#4476bd"/><path d="M2106.245,1121.569l-7.522,3.148c-2.045,12.808-4.313,24.325-6.3,34.539,11.971,7.739,18.154,33.522,20.8,49.286,1.35-17.639,9.672-38.952,14.836-50.738Z" transform="translate(-1639.647 -878.876)" fill="#3e6bab"/><path d="M2200.6,1021.483s16.212,20.679,15.7,44.141c-.774,35.714-4.668,45.911,2.108,83.359,2.647,14.626-5.842,62.47-5.842,62.47s-7.251.568-11.146-1.371c.324-3.515-4.686-60.7-14.447-86.989-4.726-12.73-11.369-48.381-14.939-68.829s-4.219-24.667-2.921-24.667,31.483-8.114,31.483-8.114" transform="translate(-1699.264 -800.448)" fill="#4476bd"/><path d="M1847.859,682.932s.721-10.7-.433-14.006-11.108-6.19-11.108-6.19-.433,15.291.577,17.166,6.924,7.213,6.924,7.213Z" transform="translate(-1438.892 -519.329)" fill="#f09959"/><path d="M1920.5,720.037c-22.791,24.531-30.229,34.853-31.96,34.853-5.41-9.549-23.378-29.746-23.378-29.746l-7.661,4.925s17.7,46.258,28.957,46.736,34.123-15.952,34.413-17.839-.37-38.929-.37-38.929" transform="translate(-1455.562 -564.23)" fill="#a2dff2"/><path d="M2038.8,774.407c11.149-4.539,23.923-14.033,24.139-15.44.29-1.887-.369-38.929-.369-38.929-4.969,5.348-9.307,10.091-13.071,14.239-4.082,15.2-3.816,31.76-10.7,40.131" transform="translate(-1597.628 -564.23)" fill="#96cfe0"/><path d="M2127.214,645.4s21.809,10.932,26.569,30.283-9.325,43.258-11.057,56.016-41.544,15-41.544,1.346c0-13.092-9.975-40.883-9.412-47.963,1.321-16.61,25.6-36.957,25.6-36.957Z" transform="translate(-1639.121 -505.745)" fill="#a2dff2"/><path d="M2162.107,529.55l9.363,28.872s-10,7.715-27.107,26.274c.664-12.35,11.011-25.813,11.011-25.813l-7.083-27.265Z" transform="translate(-1680.352 -414.962)" fill="#f09959"/><path d="M2180.7,543.017l-4.367-13.467-13.815,2.069,7.083,27.265s-.691,1.1-1.711,2.835a33.28,33.28,0,0,0,12.811-18.7" transform="translate(-1694.579 -414.962)" fill="#e38540"/><path d="M2107.229,485.6c-2.525,9.188-12.3,14.246-19.253,12.336s-8.436-10.065-5.91-19.252,10.206-15.088,17.154-13.178,10.534,10.907,8.009,20.095" transform="translate(-1630.634 -364.492)" fill="#f09959"/><path d="M2097.519,919.564c3.032,19.212-8.225,60.315-8.225,60.315s6.713,1.525,26.837-.423,29-22.032,32.025-22.592,4.585,18.691,6.079,20.212,1.721-24.312-2.185-34.467c-6.924-18-5.569-25.638-2.981-36.545,4.6-19.394-51.552,13.5-51.552,13.5" transform="translate(-1637.199 -705.208)" fill="#a2dff2"/><path d="M1968.425,1846.7c1.812,7.364-1.766,13.205-6.555,17.462-3.895,3.462-15.868,4.934-15.291,6.665s14.714,2.279,19.475,1.558,6.059-3.03,11.984-3.026c3.884,0,4.605-3.158,2.874-7.062s-2.336-6.063-.772-9.563-11.715-6.033-11.715-6.033" transform="translate(-1525.35 -1447.1)" fill="#4476bd"/><path d="M2327.031,1827.3c-.289,7.646-1.176,13.341.7,16.885,7.243,6.059,13.263,12.941,10.963,13.416-10.963,2.264-15.147-4.307-21.35-6.175-7.612-2.292.721-11.858-2.262-24.127-1.658-6.821,11.494-5.186,11.494-5.186Z" transform="translate(-1813.311 -1427.698)" fill="#4476bd"/><path d="M2201.241,791.729a36.022,36.022,0,0,0-1.636-6.267c-6.924-18-5.569-25.638-2.98-36.545a8.581,8.581,0,0,0,.262-2.277c.584-1.945,1.128-3.916,1.606-5.9l-2.35-21.215L2179.2,699.4c-12.7,18.609-4.129,41.763-6.034,54.529s-23.185,29.045-23.185,29.045l.692,4.53a11.5,11.5,0,0,0,12.936,9.665c8.771-1.217,20.275-3.663,25.4-8.413,4.955-4.6,9.342-1.04,12.239,2.971" transform="translate(-1684.753 -548.061)" fill="#96cfe0"/><path d="M2114.858,1082.254s-9.394,2.628-10.517,3.216-1.744,3.693-1.744,3.693-5.377,4.669-3.317,6.323,5.739,5.839,10.6,3.892c2.985-1.2,5.3-12.164,7.256-12.252s-2.28-4.871-2.28-4.871" transform="translate(-1644.656 -848.069)" fill="#f09959"/><path d="M2191.384,688.047c10.054.285,19.169,18.393,22.346,34.1s6.52,38.044,6.52,38.044-16.661,13.15-33.125,16.993c-14.362,3.353-21.694,4.664-21.694,4.664l-2.913-8.2,34.362-20.184s-12.635-23.8-13.891-41.763.754-23.875,8.395-23.658" transform="translate(-1694.579 -539.159)" fill="#a2dff2"/><rect width="25.561" height="16.234" transform="translate(375.029 144.834) rotate(-11.346)" fill="#f5dc95"/><path d="M1842.134,693.761c.346-6.583-2.916-15.561-4.791-15.548s.577,5.883-.433,9.778c-.547,2.111,5.224,5.77,5.224,5.77" transform="translate(-1439.195 -531.457)" fill="#f09959"/><path d="M2094.746,459.485c.557,18.032,21.618,16.65,27.388,15.538s-7.025,38.042,3.967,40.3c8.072,1.659,6.253-10.967,15.219-10.123,3.967.373,7.954,6.505,7.954,6.505a12.244,12.244,0,0,0-3.626-6.505c-3.029-2.728-10.971-19.462-13.059-31.435s-16.225-19.717-20.408-19.957-14.426,4.521-14.426,4.521Z" transform="translate(-1641.472 -355.604)" fill="#303c60"/><path d="M2216.167,594.347a4.162,4.162,0,0,1-.868-.093c-3.518-.749-5.224-4.446-5.369-11.635-.124-6.163.895-14.071,1.973-22.444.436-3.383.886-6.882,1.258-10.268a.527.527,0,1,1,1.048.115c-.372,3.4-.823,6.9-1.26,10.288-2.087,16.2-4.058,31.5,2.569,32.913a2.943,2.943,0,0,0,.616.065c3.806,0,7.234-7.418,9.232-14.643a.527.527,0,1,1,1.016.281c-1.319,4.769-4.867,15.42-10.215,15.421" transform="translate(-1731.723 -430.546)" fill="#303c60"/><path d="M2209.41,598.539a4.158,4.158,0,0,1-3.116-1.385c-7.18-7.59-.081-45.67.225-47.287a.527.527,0,1,1,1.036.2c-.074.391-7.308,39.165-.5,46.366a3.145,3.145,0,0,0,2.866,1.021c3.729-.492,5.881-5.551,7.78-10.014,1.842-4.329,3.574-8.419,6.661-8.311a.527.527,0,1,1-.037,1.054h-.076c-2.314,0-3.9,3.727-5.578,7.671-2.009,4.723-4.287,10.075-8.612,10.647a5.006,5.006,0,0,1-.654.044" transform="translate(-1726.375 -430.546)" fill="#303c60"/><path d="M2202.541,546.447c-1.484,1.913-3.81,2.593-5.195,1.518s-1.3-3.5.18-5.409,3.81-2.592,5.195-1.518,1.3,3.5-.18,5.409" transform="translate(-1721.096 -423.565)" fill="#f09959"/><path d="M1331.165,834c5.142,10.282.886,22.123-9.228,26.306-10.179,4.211-21.31,1.819-26.452-8.463s-1.323-22.612,8.529-27.539,22.008-.586,27.15,9.7" transform="translate(-1013.368 -644.341)" fill="#303c60"/><path d="M1299.5,901.812c-1.135,0-3.372-.4-6.216-2.925a15.89,15.89,0,0,1-4.717-8.938c-.895-4.662-.312-10.022,1.731-15.93a.527.527,0,0,1,1,.345c-1.982,5.732-2.552,10.908-1.692,15.387a14.835,14.835,0,0,0,4.382,8.348c3.606,3.2,6.025,2.617,6.049,2.611a.527.527,0,0,1,.283,1.016,3.208,3.208,0,0,1-.816.086" transform="translate(-1009.418 -684.616)" fill="#303c60"/><path d="M1402.283,1061.373c5.852,1.312,13.24,17.573,16.859,27.991,3.649,10.508,9.835,23.543,13.885,27.593s30.664,13.439,30.664,13.439-65.758.127-64.411,0,3-69.021,3-69.021" transform="translate(-1096.479 -831.706)" fill="#a8ceff"/><path d="M1446.723,1125.173c-3.6-.514-16.586,1.157-11.058-1.157s4.757-5.272,4.757-5.272-7.843,6.557-9.258.823c-1.219-4.944-1.686-22.4-6.315-39.9-3.824-8.675-8.828-17.354-13.038-18.3,0,0-.148,6.16-.392,14.8,1.615,19.115,4.356,47.2,5.051,54.276,8.716.013,23.3,0,35.506-.016l8.116-.387s-9.772-4.357-13.372-4.871" transform="translate(-1106.009 -831.706)" fill="#93bbf0"/><path d="M1228.062,1044.719s-18.615,10.4-22.955,12.614,12.157,67.139,15.826,69.921,35.968.479,39.646-3.027-2.822-14.265.36-35.806-9.706-40.139-11.362-40.1-12.462-3.6-12.462-3.6Z" transform="translate(-943.773 -818.656)" fill="#a8ceff"/><path d="M1221.144,1176.367c3.669,2.782,26.781,2.845,36.619-.216,1.111-.346,6.152-2.354,6.27-4.243-1.187-.223-5.9.343-7.815-.1-6.654-1.529-10.318-9.771-10.318-9.771s-3.664-1.318-11.861-4.79-4.822-13.983-5.015-18.612-8.1-19.769-22.951-31.244l-1.362.61c-1.06,10.552,13.038,65.789,16.432,68.363" transform="translate(-943.984 -867.769)" fill="#93bbf0"/><path d="M1635.643,1190.73h-44.823l-20.414,43.443h49.373l18.48-39.325a2.889,2.889,0,0,0-2.615-4.118" transform="translate(-1230.591 -933.072)" fill="#75a1de"/><path d="M1474.1,1234.113h-26.972a3.029,3.029,0,1,1,0-6.059h25.039l16.929-36.434a3.029,3.029,0,1,1,5.494,2.553l-17.743,38.187a3.029,3.029,0,0,1-2.747,1.753" transform="translate(-1131.619 -932.395)" fill="#3e6bab"/><path d="M1354.778,1351.46c11.7,2.186,14.578,4.872,20.956,5.9,7.23,1.165,6.37,2.763,1,2.763s-18.865.209-23.5-.82,1.54-7.843,1.54-7.843" transform="translate(-1059.065 -1059.022)" fill="#f09959"/><path d="M1129.005,1104.556c-8.968,28.671-21.68,61.206-19.655,61.206s53.516,2.082,55.542.348,1.447-8.387,1.157-9.255-29.274-6.012-29.274-6.012,3.817-7.438,5.263-21.975-11.333-29.749-13.034-24.311" transform="translate(-869.133 -864.661)" fill="#a8ceff"/><path d="M1319.15,929.581l-7.224,26.4s12.206,19.053,15.562,17.36-1.876-15.486-1.876-17.36,5.232-21.214,5.232-21.214Z" transform="translate(-1028.043 -728.432)" fill="#f09959"/><path d="M1343.366,957.323a7.047,7.047,0,0,1-.251-1.346c0-1.874,5.232-21.214,5.232-21.214l-11.694-5.183-2.39,8.735a45.535,45.535,0,0,0,9.1,19.007" transform="translate(-1045.546 -728.432)" fill="#e38540"/><path d="M1376.085,884.942c1.376,7.655.47,17.821-6.328,20.406s-14.985-2.36-18.287-11.045-.47-17.821,6.328-20.406,16.644,1.9,18.288,11.045" transform="translate(-1057.95 -684.229)" fill="#f09959"/><path d="M1336.6,933.932c.953,2.676.125,5.415-1.848,6.117s-4.346-.9-5.3-3.573-.125-5.415,1.848-6.117,4.346.9,5.3,3.573" transform="translate(-1041.465 -728.912)" fill="#f09959"/><path d="M1357.928,861.2c-2.314,17.962-24.138,15.648-24.138,15.648s-4.5-5.917-6.526-2.814,2.809-18.211,15.332-18.882c4.115-.221,15.332,6.048,15.332,6.048" transform="translate(-1039.713 -670.104)" fill="#303c60"/><path d="M1282.471,807.866c0,6.125-5.292,11.09-11.82,11.09s-11.82-4.965-11.82-11.09,5.292-11.09,11.82-11.09,11.82,4.965,11.82,11.09" transform="translate(-986.437 -624.364)" fill="#303c60"/><path d="M1204.655,1701.822h2.7l17.453-80.865h-5.946Z" transform="translate(-943.984 -1270.204)" fill="#2e5b9a"/><path d="M1509.654,1691.47h-2.7l-20.312-83.723h5.946Z" transform="translate(-1164.951 -1259.852)" fill="#2e5b9a"/><path d="M1241.016,1446.733c-10.827,0-17.686-1.945-22.064-6.209-5.426-5.286-6.549-13.475-6.565-24.143-.013-8.4-.213-13.864-.668-18.284a3.03,3.03,0,0,1,6.027-.62c.477,4.634.686,10.285.7,18.9.017,10.812,1.388,16.552,4.734,19.812,3.433,3.344,9.64,4.723,20.12,4.461a119.029,119.029,0,0,0,22.684-2.8c7.362-1.5,12.681-2.577,18.99.437a3.029,3.029,0,1,1-2.612,5.466c-4.478-2.139-8.276-1.367-15.171.034a124.336,124.336,0,0,1-23.742,2.923q-1.248.031-2.433.031" transform="translate(-949.507 -1092.951)" fill="#2e5b9a"/><path d="M1233.487,1393.1l16.573.69-4.412,45.758s-12.354-7.886-12.161-16.372,0-30.076,0-30.076" transform="translate(-966.576 -1091.655)" fill="#2e5b9a"/><path d="M1603.22,1409.633c14.015-2.126,18.777-1.456,27.354,14.506s19.993,44.7,26.558,48.413c9.887,5.589,13.163,19.294,17.222,18.678s6.672,1.178,2.255,4.849-11.55,6.8-13.99,6.146-4.331-11.191-10.7-14.613-4.457-6.234-4.038-9.26-18.6-16.963-32.931-34.3c-8.758-10.591-13.269-17.581-13.937-23.917a16.62,16.62,0,0,1,2.21-10.505" transform="translate(-1254.495 -1103.921)" fill="#f09959"/><path d="M1637.962,1467.512c-3.255-8.257-6.519-21.885-9.588-34.379-4.364-17.768-8.938-21.987-11.836-23.882-3.5-.878-7.655-.476-13.318.383a16.62,16.62,0,0,0-2.21,10.505c.668,6.336,5.179,13.326,13.938,23.917,7.547,9.126,16.391,17.31,23.014,23.456" transform="translate(-1254.495 -1103.922)" fill="#e38540"/><path d="M1582.126,1423.682s-3.729,28.134-7.2,30.993c-2.483,2.046-4.243,2.182-5.979-6.209s2.7-39.708,2.7-39.708Z" transform="translate(-1229.133 -1103.922)" fill="#2e5b9a"/><path d="M1492.612,1456.981l-34.509,5.8,19.483-27.936,14.827-3.019,8.891,2.045Z" transform="translate(-1142.589 -1121.997)" fill="#f09959"/><path d="M1815.416,1730.375c-1.119,4.509-.984,7.841.96,9.511s9.289,14.081,9.289,14.081l2.289-.347-5.3-11.356Z" transform="translate(-1422.031 -1355.945)" fill="#2e5b9a"/><path d="M1830.556,1753.486c2.44.652,9.573-2.474,13.99-6.145s1.8-5.465-2.255-4.849a1.751,1.751,0,0,1-.68-.034c-2.028,4.529-8.7,7.926-10.848,3.142-2.133-4.741-11.27-14.177-14.95-16.2a.838.838,0,0,1,0,.211c-.418,3.027-2.333,5.838,4.038,9.261s8.262,13.961,10.7,14.613" transform="translate(-1422.432 -1355.183)" fill="#2e5b9a"/><path d="M1264.728,1413.659c-12.244,21.972-3.88,35.937,11,37.36s38.373-1.294,52.066-12.673,24.934-23.411,23.364-25.206-86.431.519-86.431.519" transform="translate(-986.437 -1106.82)" fill="#e38540"/><path d="M1597.1,1445.245c2.507-7.522,5.4-13.292,10.993-13.4,5.883-.11,9.5,2.951,9.754,12.577.3,11.461.7,49.42.174,66.3-.4,12.776,3.323,16.867,3.008,30.187-.237,10.031,10.458,4.964,6.327,10.166-2.841,3.578-11.3,2.408-16.491,1.747-4.628-.588,2.4-14.458-4.01-18.167-5.5-3.182-5.6-8.349-2.133-12.259s.386-15.483-1.929-23.583-5.9-16.864-8.262-36.017c-.672-5.46,1.037-12.957,2.569-17.551" transform="translate(-1249.379 -1122.013)" fill="#f09959"/><path d="M1652.636,1873.935a24.239,24.239,0,0,1-5.859,1.2c-3.857.129-5.014-4.115-5.272-9.878-.224-5.033-3.88-12.958-7.628-16.172-.069.092-.14.181-.215.266-3.471,3.911-3.364,9.077,2.133,12.259,6.406,3.709-.618,17.579,4.01,18.167,5.194.661,13.651,1.83,16.491-1.747,2.684-3.381-.647-3.649-3.66-4.094" transform="translate(-1278.319 -1448.967)" fill="#2e5b9a"/><path d="M1627.553,1843.687s-5.625,5.875-5.111,8.318,2.249,8.615,2.539,13.372.547,10.218.547,10.218,2.025,0,2.186-.575,1.286-19.337,1.286-19.337Z" transform="translate(-1271.342 -1444.738)" fill="#2e5b9a"/><path d="M1248.953,1408.758s-7.262,30.82,1.913,39.362,47.276.858,56.25.347c6.075-.347,11.958,7.068,11.958,7.068s-4.243-17.2-1.35-31.082,7.562-14.82,7.562-14.82l-6.211-.875Z" transform="translate(-976.559 -1103.922)" fill="#75a1de"/><path d="M1245.529,1371.519c3.106,6.588-3.343,17.968-1.083,21.246s15.2.459,23.676-6.365,24.524-8.324,24.524-8.324Z" transform="translate(-974.78 -1074.741)" fill="#a8ceff"/><path d="M1278.519,1599.4c25.651.964,52.652.509,52.652-3.314s-1.157-6.522-21.022-4.98-33.365,3.664-39.344,2.315,7.714,5.979,7.714,5.979" transform="translate(-994.636 -1246.465)" fill="#2e5b9a"/><path d="M1257.15,1398.48H895.739a2.794,2.794,0,0,1-2.794-2.794v-1.4a2.794,2.794,0,0,1,2.794-2.793H1257.15a2.794,2.794,0,0,1,2.794,2.793v1.4a2.794,2.794,0,0,1-2.794,2.794" transform="translate(-699.724 -1090.396)" fill="#2e5b9a"/><path d="M2707.372,912.642c2.485,8.761-3.584,17.789-10.27,19.686s-11.457-4.057-13.942-12.818.92-17.4,7.606-19.3,14.121,3.668,16.606,12.429" transform="translate(-2101.924 -705.128)" fill="#f09959"/><path d="M2596.721,1743.547s17.135,26.614,19.449,27.771,8.1,1.446,5.93,5.786-3.038,21.407-5.062,22.275-19.382,2.893-16.779,0,4.205-1.447,5.518-6.654,3.16-15.043.7-17.067-17.5-20.25-17.5-20.25Z" transform="translate(-2028.759 -1366.267)" fill="#f09959"/><path d="M2099.939,1796.366s-20.829,34.33-24.687,37.416-16.586,7.714-6.172,8.486,15.429-3.472,21.987-5.4,14.658-3.086,11.572-8.1-1.8-15.961,4.848-22.9-7.549-9.5-7.549-9.5" transform="translate(-1618.219 -1407.657)" fill="#f09959"/><path d="M2300.465,1428.381s-51.563-1.349-72.007,15.429c-11.957,18.129-40.885,71.62-43.133,77.515,1.543,1.543,10.222,4.327,14.079,3.941,11.379-13.568,26.419-25.3,32.4-35.94,7.372-13.115,9.643-19.672,21.6-20.829s38.958-5.015,47.059-5.015,0-35.1,0-35.1" transform="translate(-1712.451 -1119.278)" fill="#6791c9"/><path d="M2845.252,1716.083h-2.7l-19.382-80.865h5.946Z" transform="translate(-2212.272 -1281.379)" fill="#2e5b9a"/><path d="M2551.055,1705.73h2.7L2576,1622.007h-5.946Z" transform="translate(-1999.042 -1271.027)" fill="#2e5b9a"/><path d="M2486.043,1412.153l-29.978,5.174s-39.838.366-58.047,3.758c-16.567,3.086-19.009,21.91,0,47.831,10.8,14.724,19.927,26.47,38.6,39.714,4.749-3.487,6.566-4.806,7.878-13.2-1.351-1.853-4.849-13.448-5.934-15.718-10.327-21.586-24.111-29.437-24.3-31.56,2.314-3.76,61.3,19.6,73.031,5.859,11.2-13.121-1.245-41.862-1.245-41.862" transform="translate(-1868.653 -1106.582)" fill="#75a1de"/><path d="M2720.417,1097.273a31.369,31.369,0,0,0-23.457,5.837c-6.572,6.7-14.008,17.746-13.552,35.968.579,23.142-3.581,24.629.758,30.993,18.1,7.474,49.051,39.584,41.762,5.159-5.278-24.926,11.576-43.506-2.02-71.155-1.107-2.25-2.49-4.433-3.49-6.8" transform="translate(-2101.782 -859.57)" fill="#f37168"/><path d="M2683.406,1168.725c-.352,12.065-2.056,15.619-.753,19.4,7.378.753,20.874,3.706,24.247,8.427,3.857,5.4,7.714,6.172,5.915,2.186s-6.557-9.643.771-29.058,10.8-32.53,3.6-46.03Z" transform="translate(-2101.785 -880.508)" fill="#d54a41"/><path d="M2773.992,1010a94.135,94.135,0,0,1-6.056-24.44l-12.729,3.761s7.232,16.2.289,21.985a66.409,66.409,0,0,0-4.962,4.531,31.369,31.369,0,0,1,23.458-5.837" transform="translate(-2155.356 -772.299)" fill="#f09959"/><path d="M2785.312,991.092c-.754-.671-1.7-1.508-2.688-2.384l-10.382,3.068-.022.056a42.4,42.4,0,0,1,3.243,12.68c3.094-1.877,6.482-4.938,10.355-10.284-.21-1.186-.376-2.244-.505-3.136" transform="translate(-2172.349 -774.765)" fill="#e38540"/><path d="M2537.549,1113.917c-13.11,4.585-11.656,18.4-23.721,38.764-6.244,10.541-12.043,10.384-12.043,10.384a279.381,279.381,0,0,1-32.357-2.049c-11.091-1.356-11.8,1.946-4.082,4.7,15.558,5.562,31.7,11.55,44.721,10.1s35.282-34.661,36.43-43.307c1.587-11.958-2.346-20.908-8.949-18.6" transform="translate(-1927.863 -872.595)" fill="#f09959"/><path d="M2620.723,1335.344c-.813,0-1.646-.011-2.5-.032a124.343,124.343,0,0,1-23.741-2.923c-6.9-1.4-10.693-2.173-15.17-.034a3.029,3.029,0,1,1-2.612-5.467c6.308-3.014,11.627-1.933,18.989-.437a119.061,119.061,0,0,0,22.684,2.8c11.4.282,18.369-1.427,21.931-5.377,3.182-3.527,4.118-9.407,2.948-18.505-.4-3.082-.792-5.643-1.142-7.9-.98-6.342-1.628-10.532-.829-16.992.746-6.021,2.744-14.055,7.372-29.64a3.029,3.029,0,1,1,5.808,1.724c-8.656,29.153-8.216,32-6.363,43.981.355,2.3.757,4.9,1.164,8.057,1.412,10.982,0,18.4-4.458,23.335-4.59,5.089-12.072,7.408-24.079,7.408" transform="translate(-2017.785 -978.475)" fill="#2e5b9a"/><path d="M2101.354,1930.081c-13.821,6.759-21.26,10.633-25.69,10.264-1.046-.087-1.913-.194-2.64-.307-4.929,2.913-12.8,6.355-3.944,7.011,10.415.772,15.429-3.471,21.987-5.4s14.657-3.086,11.572-8.1a10.556,10.556,0,0,1-1.284-3.467" transform="translate(-1618.219 -1512.438)" fill="#d54a41"/><path d="M2657.572,1874.5c-.338,10.943-1.842,21.786-8.534,23.834a11.248,11.248,0,0,1-4.822.43c-1.053,1.3-2.337,1.316-4.061,3.231-2.6,2.893,14.753.868,16.779,0s2.893-17.936,5.062-22.275c1.782-3.565-1.8-4.4-4.423-5.221" transform="translate(-2068.653 -1468.881)" fill="#d54a41"/><path d="M2241.352,1234.112h-43.907a3.029,3.029,0,0,1-2.747-1.753l-17.744-38.187a3.029,3.029,0,1,1,5.495-2.553l16.929,36.434h41.975a3.029,3.029,0,0,1,0,6.059" transform="translate(-1705.669 -932.394)" fill="#75a1de"/><path d="M2376.652,1317.567c-8.871-.129-17.67-5.417-22.042-4.646s-18.644,10.672-16.844,11.058,13.115-5.479,13.5-5.568,2.829,4.062,8.872,5.587.043-4.529,18.775,1.128c12.18,3.679-2.262-7.559-2.262-7.559" transform="translate(-1831.784 -1028.763)" fill="#f09959"/><path d="M2744.151,1049.971l1.305,10.5s-11.48.683-17.193,3.9-14.144,12.5-14.144,12.5l6.887-11.859.992-7.586Z" transform="translate(-2126.822 -822.771)" fill="#f2e5de"/><path d="M2588.152,1108.63c-8.527-1.6-12.472,6.043-18,18.515s-14.967,27.619-16.844,29.572-31.629,0-31.629,0-.9,8.615,0,9.643,6.043.9,6.043.9,2.057,1.643,3.986,2.943,18.258,3.743,25.844,3.357,14.529-1.029,15.558-2.186,21.729-33.044,23.015-44.487-3.62-17.443-7.972-18.258" transform="translate(-1975.709 -868.572)" fill="#f2e5de"/><path d="M2664.354,845.9c-16.127.771-13.6,25.033-13.6,25.033s4.189,1.293,12.964-.153c-.675-2.6-.386-9.257-.386-9.257a60.612,60.612,0,0,0,2.314,8.679c1.855.851,3.954.1,7.521-.766,1.832,7.709,7.01,10.966,10.555,12.08,3.917,1.231,8.063,2.7,12.691.386s2.083-25.972-.375-30.73c-3.689-7.141-9.821-13.533-20.429-10.158a78.814,78.814,0,0,0-11.26,4.886" transform="translate(-2077.056 -658.305)" fill="#303c60"/><path d="M2843.727,993.832l6.594,9.63s-7.308,18.258,13.945,26.53c16.645,6.479,14.684,17.893,7.163,29.372s4.5,21.5,4.5,21.5,1.833-12.716,18.005-15.116c22.051-3.273,28.294-32.878,11.825-47.68-13.629-12.25-17.775-2.106-27-13.1s-26.641-3.568-26.641-3.568l-6.383-9.309Z" transform="translate(-2228.384 -777.42)" fill="#303c60"/><path d="M2941.815,1066.574a.527.527,0,0,1-.462-.78c5.558-10.157,1.023-22.463-1.258-25.8-.24-.352-.469-.709-.711-1.087-2.243-3.5-5.033-7.855-19.906-10.532-3.562-.641-6.452-2.763-9.511-5.009-6.345-4.658-13.536-9.936-29.159-2.746a.527.527,0,0,1-.441-.958c16.188-7.45,23.644-1.976,30.224,2.854,2.958,2.172,5.752,4.223,9.075,4.821,15.325,2.759,18.253,7.329,20.605,11,.238.371.462.721.694,1.06a28.551,28.551,0,0,1,3.767,10.936c.6,4.134.667,10.26-2.453,15.962a.529.529,0,0,1-.463.274" transform="translate(-2256.855 -796.16)" fill="#303c60"/><path d="M2765.27,962.8a23.163,23.163,0,0,1-3.416-.275c-5.621-.842-13.163-4.039-13.755-22a.527.527,0,0,1,.51-.544.52.52,0,0,1,.544.51c.245,7.435,1.722,12.938,4.389,16.356a12.356,12.356,0,0,0,8.468,4.637c5.249.786,8.729-.187,10.346-2.894a.527.527,0,1,1,.905.541c-1.459,2.442-4.14,3.67-7.991,3.67" transform="translate(-2153.448 -736.584)" fill="#303c60"/><path d="M356.585,1104.348c-18.718,10.7-44.754,55.2-39.257,62.456s35-11.832,35-11.832Z" transform="translate(-248.078 -865.382)" fill="#96cfe0"/><path d="M537.054,851.832c-7.148-.194-4.5-5.507-12.715-3.386-4.321,1.115-1.131,2.893-6.745,2.314s-8.376-1.157-9.084,2.507-1.05,4.822-3.75,5.4-3.919,5.4,0,8.679,2.014,4.629,1.146,7.329,2.09,2.893,3.7,5.4-1.479,2.982.835,5.155A8.2,8.2,0,0,0,516,887.213l9.743-18.68Z" transform="translate(-393.576 -664.463)" fill="#303c60"/><path d="M1292.8,1873.555s10.414.289,18.514-2.893,13.6-8.1,12.15-2.314-8.1,15.712-13.885,16.679-7.811,7.331-10.993,7.331-7.811-7.331-15.911-11c-7.382-3.34,10.125-7.807,10.125-7.807" transform="translate(-1003.698 -1461.964)" fill="#2e5b9a"/><path d="M909.605,1872.579a40.054,40.054,0,0,0,12,10.241c7.872,4.339,16.955,6.429,11.324,8.391s-13.865,3.488-21.9,1.156c-5.633-1.636-12.237-1.979-13.982-4.64s2.053-9.345.473-19.335c-1.266-8,12.08,4.187,12.08,4.187" transform="translate(-702.574 -1461.964)" fill="#2e5b9a"/><path d="M676.544,1448.947s60.328,22.589,65.188,28.9,68.274,63.838,68.274,68.081-10.8,11.958-10.8,11.958-54.388-33.365-67.888-50.338-46.45-25.154-63.967-26.726,9.193-31.878,9.193-31.878" transform="translate(-518.28 -1135.414)" fill="#3e6bab"/><path d="M563.219,1446.463s41.273-1.543,50.145,0,28.331,1.525,15.6,37.448c-9.976,28.156-13.269,63.8-13.269,63.8l-19.836,4.873s.787-64.1,10.252-81.168a318.115,318.115,0,0,0-37.08,8.367c-32.53,9.3-50.365,4.644-50.365,4.644l-4.843-16.972Z" transform="translate(-402.64 -1132.931)" fill="#4476bd"/><path d="M546.292,956.485l-10.085,29.8,12.74,8.389,7.22-25.746Z" transform="translate(-420.179 -749.515)" fill="#a86b48"/><path d="M573.249,990.608l6.081-21.683-9.876-12.439-3.689,10.9c1.273,9.843,4.349,17.986,7.484,23.224" transform="translate(-443.341 -749.515)" fill="#7a4e34"/><path d="M608.536,924.69c.327,9.062-4.124,16.906-11.2,17.6s-13.532-6.052-14.422-15.077,4.124-16.906,11.2-17.6,13.906.777,14.422,15.077" transform="translate(-456.699 -712.676)" fill="#a86b48"/><path d="M451.984,1090.173c-30.955,20.906-11.7,54.688-4.9,79.375,5.789,21.027,5.6,33.734,6.468,33.734s22.157-3.182,34.307-14.175a186.145,186.145,0,0,0,20.364-21.64s-15.566-2.772-20.653-22.909c-2.583-10.223-1.408-15.773-7.3-31.973s-28.285-22.411-28.285-22.411" transform="translate(-340.799 -854.274)" fill="#a2dff2"/><path d="M513.825,1060.8l3.315-8.112s10.511,6.943,14.706,10.222,6.782,4.05,6.782,4.05,1.516,11.629.531,10.573c-12.406-13.3-25.335-16.733-25.335-16.733" transform="translate(-402.64 -824.896)" fill="#a2dff2"/><path d="M450.423,1716.083h2.7l19.382-80.865h-5.946Z" transform="translate(-352.958 -1281.379)" fill="#2e5b9a"/><path d="M734.266,1705.73h-2.7l-22.241-83.723h5.946Z" transform="translate(-555.835 -1271.027)" fill="#2e5b9a"/><path d="M457.4,1376.128c-10.827,0-17.687-1.945-22.064-6.209-5.426-5.286-6.549-13.474-6.565-24.143-.034-22.427-1.275-27.065-7.589-40.761a3.029,3.029,0,0,1,5.5-2.537c6.674,14.477,8.109,19.8,8.145,43.288.016,10.812,1.388,16.552,4.734,19.812,3.433,3.344,9.638,4.722,20.119,4.461a119.039,119.039,0,0,0,22.684-2.8c7.362-1.5,12.682-2.578,18.99.437a3.029,3.029,0,1,1-2.612,5.467c-4.477-2.139-8.275-1.367-15.171.034a124.348,124.348,0,0,1-23.741,2.923q-1.248.031-2.433.031" transform="translate(-329.825 -1019.26)" fill="#2e5b9a"/><path d="M1037.723,1232.494H993.815a3.029,3.029,0,1,1,0-6.059h41.974L1052.719,1190a3.029,3.029,0,1,1,5.494,2.553l-17.743,38.187a3.03,3.03,0,0,1-2.747,1.753" transform="translate(-776.393 -931.127)" fill="#3e6bab"/><path d="M519.121,1125.33s7.715,23.53,17.261,33.269,28.759,13.012,34.775,12.629c-4.8-1.928-13.928-7.414-17.6-21.951-2.583-10.223-1.409-15.774-7.3-31.973-4.37-12.026-17.837-18.546-24.487-21.109,8.3,5.963,18.68,15.781,21.87,23.252,3.54,8.294-24.522,5.883-24.522,5.883" transform="translate(-406.79 -858.993)" fill="#96cfe0"/><path d="M992.841,1306.224s13.307-6.075,14.753-5.5,16.2,9.487,16.2,10.963-13.018-5.5-13.018-5.5,1.447,3.856.579,5.706-10.875,1.85-19.9,1.271,1.388-6.943,1.388-6.943" transform="translate(-774.032 -1019.238)" fill="#a86b48"/><path d="M513.146,1141.812c-12.266,25.141,29.812,50.628,54.775,52.894s54.622-5.9,54.622-5.9l-3.344-8.162s-50.012-6.527-51.278-7.442-50.282-40.595-54.775-31.387" transform="translate(-400.39 -893.653)" fill="#a2dff2"/><path d="M564.554,945.464c1.137,2.99.3,6.081-1.862,6.9s-4.842-.933-5.979-3.923-.3-6.081,1.862-6.9,4.843.933,5.979,3.923" transform="translate(-435.849 -737.645)" fill="#a86b48"/><path d="M601.243,861.508c3.389-1.414,7.207-2.93,6.025,2.828-.514,2.507,0,1.8.9,4.115s-2.269,4.132-3.3,5.418,1.5,2.682-.56,4.225-4.769-.572-6.686,0c-5.722,1.708-5.014-2.792-8.229-3.729s-4.79-.792-5.4,1.266,2.25,8.828-.193,8.185-2.993,4.822-3.65,7.907-2.333-2.13-2.225-5.66c.166-5.414-1.178-7.688-3.172-9.2s-2.843-15.289,6.8-15.8,9.7-1.444,13.819-2.314,4.323,3.409,5.868,2.764" transform="translate(-449.39 -672.831)" fill="#303c60"/><path d="M3177.032,1598.823c6.149,5.614,3.476,11.228-1.069,21.654s-5.347,48.922-5.347,48.922l3.742-.534s-.535-39.565,4.545-50.259,7.218-16.04,11.763-12.565-13.634-7.218-13.634-7.218" transform="translate(-2484.538 -1252.859)" fill="#74b570"/><path d="M3183.454,1502.406c.747-3.328,5.181-6.927,11.111-9.981-.882,4.907-3.709,12.93-.783,14.576,3.946,2.219.385-8.982,1.907-15.14a73.283,73.283,0,0,1,18.435-6.047l-.025.068c-3.476,8.822-8.02,12.3-6.148,13.634,1.408,1.006,5.993-9.185,12.049-14.409,4.545-.242,8.39.374,10.665,2.175,3.515,2.784,5.875,5.253,2.339,13.729a15.887,15.887,0,0,1-7.677,2.782c-8.02.8-11.763,1.069-6.149,3.743,2.749,1.309,7.356-.074,11.093-.916-1.212,2.233-2.7,4.761-4.512,7.64a28.382,28.382,0,0,1-3.758,4.782c-2.585.5-4.838.5-6.031-.011-3.742-1.6-13.366-6.683-15.772-4.544-2.355,2.093,17.823,3.419,16.426,8.738-9.781,5.635-20.973,2.954-22.951-2.22-2.657-6.949-12.467-8.584-10.219-18.6" transform="translate(-2494.338 -1163.71)" fill="#9cd499"/><path d="M3168.518,1728.51c-10.693-8.02-21.654-.535-27.268,8.02s-1.6,27.8-1.6,27.8,2.139,0,2.139-.8-5.881-22.723,8.02-32.614c8.7-6.188,14.971-3.208,15.773-.268s-3.475,8.287-3.475,8.287Z" transform="translate(-2459.183 -1351.802)" fill="#74b570"/><path d="M3162.717,1664.713c10.693,0,14.169,16.574,11.228,26.2s-6.951,27.535-6.951,27.535l-2.673-2.673s10.159-25.129,7.752-36.357-8.287-13.1-9.356-13.1,0-1.6,0-1.6" transform="translate(-2477.976 -1304.492)" fill="#9cd499"/><path d="M3196.167,1777.563a7.747,7.747,0,0,1,2.815-2.365,21.191,21.191,0,0,1-.556,2.291c-1.34,4.385-2.9,10.49-4.205,15.837-.119-.685-.3-1.74-.583-3.368-.066-.384-.118-.8-.155-1.244a103.715,103.715,0,0,0,2.684-11.151" transform="translate(-2502.458 -1391.069)" fill="#74b570"/><path d="M3199.375,1731.917c20.318-8.555,9.614-20.294,27.524-12.541a13.291,13.291,0,0,1,4.339,3.822,13.339,13.339,0,0,1-5.675.456c-5.347-.8-3.475,3.475,5.346,4.545a19.8,19.8,0,0,1,4.134.872c4.2,8.072,6.1,18.694-2.8,22.386a20.146,20.146,0,0,1-6.33,1.3c-2.744-2.182.67-14.8-3.561-13.062-4.062,1.673,1.273,10.821.542,13.125a58.567,58.567,0,0,1-12.692-1.779,6.319,6.319,0,0,1-3.356-3.861c-1.336-5.614,7.486-9.089,7.753-13.9.246-4.423-3.233,9.733-12.451,11.816-8.335-3.893-12.273-9.177-2.776-13.176" transform="translate(-2502.741 -1345.342)" fill="#9cd499"/><path d="M3034.386,1646.419c2.138-4.545-3.476-5.614-3.208-2.139.237,3.08.263,10.565-2.9,12.6a49.546,49.546,0,0,1-18.46-6.13,2.27,2.27,0,0,1,.236-1.393c2.406-4.812,17.912-8.822,13.1-10.426-3.832-1.277-10.547,6.263-15.959,10.061-3.25-2.466-5.428-5.405-5.428-8.687,0-4.441,5.4-9.469,12.376-11.872,3.141.317,6.058,2.034,10.615,4.616,6.732,3.815,5.175-2.353-1.19-6.014a19.172,19.172,0,0,1,15.014,8.241s-.382,2.4,2.155,6.105c6.922,10.117-1.066,16.023-10.615,15.639.54-2.666,2.783-7.465,4.261-10.605" transform="translate(-2352.229 -1274.969)" fill="#9cd499"/><path d="M3266.467,1738.559c5.228,4.04,11.035,8.763,18.165,11.971s5.7,13.665,5.7,13.665,1.069-9.03-4.872-12.12-9.862-6.773-14.377-7.486a65.36,65.36,0,0,1-7.01-1.426s1.426-2.852.594-3.921,1.8-.683,1.8-.683" transform="translate(-2557.775 -1362.305)" fill="#74b570"/><path d="M3255.231,1519.572c-19.13,5.109-33.151,17.348-35.765,20.318s-2.614,3.8-2.614,3.8l2.02,3.8.951-.475s-1.545-3.208,2.5-7.367c6.967-7.172,15.447-12.833,21.269-15.328s11.645-4.753,11.645-4.753" transform="translate(-2520.769 -1190.757)" fill="#74b570"/><path d="M3116.1,1914.034h7.309a9.41,9.41,0,0,0,9.41-9.41v-16.792h-26.129v16.792a9.41,9.41,0,0,0,9.41,9.41" transform="translate(-2434.448 -1479.33)" fill="#75a1de"/><rect width="26.129" height="1.839" transform="translate(672.246 411.503)" fill="#fff"/><rect width="26.129" height="1.082" transform="translate(672.246 414.857)" fill="#fff"/><path d="M1455.924,136.408a36.14,36.14,0,1,0-62.715,24.492,16.394,16.394,0,0,1,4.342,11.114v16.2a19.112,19.112,0,0,0,19.056,19.056h6.353a19.112,19.112,0,0,0,19.056-19.056v-16.2a16.566,16.566,0,0,1,4.408-11.188,36.007,36.007,0,0,0,9.5-24.42" transform="translate(-1084.242 -78.571)" fill="#f5dc95"/><g transform="translate(304.451 29.171)" opacity="0.5"><g clip-path="url(#e)"><path d="M1469.159,165.9a31.092,31.092,0,1,0-53.954,21.07,14.1,14.1,0,0,1,3.735,9.561v13.937a16.442,16.442,0,0,0,16.394,16.394h5.465a16.442,16.442,0,0,0,16.394-16.394V196.534a14.252,14.252,0,0,1,3.793-9.625,30.978,30.978,0,0,0,8.172-21.008" transform="translate(-1406.976 -134.809)" fill="#fff"/></g></g><path d="M1481.181,343.722h-11.9a1.082,1.082,0,0,1-1.077-.983c-.021-.231-2.242-23.206-12.516-29.64a1.082,1.082,0,0,1,1.148-1.834c10.022,6.276,12.87,25.635,13.417,30.293h9.785a35.42,35.42,0,0,1,.974-8.676,47.653,47.653,0,0,1,11.64-21.432,1.082,1.082,0,0,1,1.594,1.464c-13.508,14.705-12.006,29.456-11.989,29.6a1.083,1.083,0,0,1-1.075,1.2" transform="translate(-1140.298 -243.782)" fill="#94bdf2"/><path d="M1485.249,274.454c-4.018,0-9.5-2.855-15.265-5.949-7.452,3.969-14.411,7.528-18.307,5.166-1.831-1.11-2.706-3.282-2.676-6.641.028-3.162.935-5.293,2.694-6.335,3.9-2.311,10.877,1.376,18.292,5.356,7.562-4.033,14.681-7.788,18.571-5.42,1.746,1.063,2.611,3.224,2.57,6.423-.043,3.328-1,5.567-2.844,6.654a5.871,5.871,0,0,1-3.034.745m-12.966-7.174c5.941,3.158,12.157,6.181,14.9,4.564,1.148-.677,1.747-2.3,1.779-4.818.031-2.38-.484-3.91-1.531-4.547-2.652-1.615-9.095,1.589-15.149,4.8m-17.664-5.145a3.538,3.538,0,0,0-1.822.422c-1.062.629-1.612,2.14-1.633,4.492-.022,2.5.527,4.1,1.634,4.771,2.67,1.618,8.906-1.39,14.888-4.547-4.836-2.58-9.912-5.139-13.067-5.139" transform="translate(-1135.457 -203.657)" fill="#94bdf2"/><path d="M1527.206,584.046h-6.925a4.449,4.449,0,0,1-4.436-4.436v-.649a4.449,4.449,0,0,1,4.436-4.436h6.925a4.449,4.449,0,0,1,4.436,4.436v.649a4.449,4.449,0,0,1-4.436,4.436" transform="translate(-1187.838 -450.205)" fill="#94bdf2"/><path d="M1443.061,452.859v11.459a20.015,20.015,0,0,0,19.957,19.957h6.653a20.015,20.015,0,0,0,19.957-19.957V452.859Z" transform="translate(-1130.802 -354.866)" fill="#94bdf2"/><path d="M1482.861,449.674h-45.585a2.6,2.6,0,0,1-2.6-2.6v-.288a2.6,2.6,0,0,1,2.6-2.6h45.585a2.6,2.6,0,0,1,2.6,2.6v.288a2.6,2.6,0,0,1-2.6,2.6" transform="translate(-1124.234 -348.075)" fill="#9ec8ff"/><path d="M1483.584,468.744l-45.242,5.588a2.6,2.6,0,0,1-2.9-2.259l-.036-.286a2.6,2.6,0,0,1,2.259-2.9l45.242-5.589a2.6,2.6,0,0,1,2.9,2.259l.035.286a2.6,2.6,0,0,1-2.259,2.9" transform="translate(-1124.793 -363.035)" fill="#9ec8ff"/><path d="M1483.584,505.335l-45.242,5.588a2.6,2.6,0,0,1-2.9-2.259l-.036-.286a2.6,2.6,0,0,1,2.259-2.9l45.242-5.588a2.6,2.6,0,0,1,2.9,2.259l.035.286a2.6,2.6,0,0,1-2.259,2.9" transform="translate(-1124.793 -391.709)" fill="#9ec8ff"/><path d="M1498.744,544.5l-37.68,4.654a2.39,2.39,0,0,1-2.657-2.073l-.088-.71a2.39,2.39,0,0,1,2.073-2.657l37.68-4.654a2.39,2.39,0,0,1,2.657,2.073l.088.71a2.39,2.39,0,0,1-2.073,2.657" transform="translate(-1142.745 -422.399)" fill="#9ec8ff"/><path d="M3064.893,523.789h24.286a24.286,24.286,0,1,1-24.286-24.286Z" transform="translate(-2382.661 -391.417)" fill="#9ec8ff"/><path d="M3195.927,508.074a24.286,24.286,0,0,0-24.286-24.286v24.286Z" transform="translate(-2485.342 -379.102)" fill="#f39892"/><path d="M3059.4,596.024a24.287,24.287,0,0,0,24.287,24.286,24.4,24.4,0,0,1-24.287-24.286" transform="translate(-2397.39 -467.052)" fill="#f39892"/><path d="M3083.69,483.787a24.287,24.287,0,0,0-24.287,24.286,24.4,24.4,0,0,1,24.287-24.286" transform="translate(-2397.39 -379.102)" fill="#f39892"/><path d="M3171.64,620.31a24.287,24.287,0,0,0,24.287-24.286,24.4,24.4,0,0,1-24.287,24.286" transform="translate(-2485.34 -467.052)" fill="#f39892"/><rect width="5.304" height="15.348" transform="translate(206.915 116.308)" fill="#9ec8ff"/><rect width="5.304" height="10.355" transform="translate(274.902 121.301)" fill="#9ec8ff"/><rect width="5.304" height="35.91" transform="translate(229.394 95.745)" fill="#9ec8ff"/><rect width="5.304" height="16.141" transform="translate(240.634 115.515)" fill="#9ec8ff"/><rect width="5.304" height="20.71" transform="translate(251.874 110.946)" fill="#9ec8ff"/><rect width="5.304" height="25.481" transform="translate(218.154 106.174)" fill="#9ec8ff"/><rect width="5.304" height="31.384" transform="translate(263.151 100.271)" fill="#9ec8ff"/></g></g><g transform="translate(6.948 39.363)"><g clip-path="url(#f)"><path d="M183.94,341.158l-27.817-17.011-5.032,32.216a32.642,32.642,0,0,0,32.849-15.206" transform="translate(-125.345 -293.369)" fill="#a2dff2"/><path d="M202.191,285.313c.075-.123.173-.292.169-.285a32.608,32.608,0,0,0,.722-32.1c-9.844,5.157-3.982,2.024-28.738,15.411,27.863,17.039,23.536,14.411,27.847,16.972" transform="translate(-143.566 -237.562)" fill="#9cd499"/><path d="M33.029,194.928,63.608,206.2l28.685-15.511c-13.418-24.814-49.535-21.838-59.264,4.244" transform="translate(-32.83 -175.417)" fill="#9ec8ff"/><path d="M51.152,315.561l5.032-32.216L25.6,272.077c-7.272,19.495,5.635,40.345,25.547,43.484" transform="translate(-25.405 -252.566)" fill="#f39892"/><path d="M21.643,240.827a3.137,3.137,0,0,1,1.545.4,31.178,31.178,0,0,1,1.11-4.339l16.6,6.118s0-.01,0-.015a2.95,2.95,0,0,1,.722-2.025l-1.662-.613L25.054,234.86a31.943,31.943,0,0,1,4.8-8.077,3.23,3.23,0,0,1-1.658-1.392,34.15,34.15,0,0,0-5.174,8.721l-.018-.007-.377,1.01-.38,1.018.018.007a33.374,33.374,0,0,0-1.217,4.748,3,3,0,0,1,.591-.061" transform="translate(-23.444 -215.983)" fill="#fff"/><path d="M82.469,187.212l.018-.01-.514-.952-.032-.057-.421-.783-.016.008a33.3,33.3,0,0,0-13.441-13.037A34.2,34.2,0,0,0,30.7,176.459a3.345,3.345,0,0,1,1.375,1.675,31.6,31.6,0,0,1,18.216-7.27,31.037,31.037,0,0,1,29.251,15.471l-8.472,4.581c-1.749.941-4.194,2.264-8.288,4.479l-10.149,5.49-.262.141-.852-.521-.046.3-5.966-2.2a2.986,2.986,0,0,1-.8,2.012l6.423,2.367L46.4,233.236a31.729,31.729,0,0,1-25.6-30.6,3.1,3.1,0,0,1-1.052.192,3.155,3.155,0,0,1-1.112-.2A33.887,33.887,0,0,0,46.07,235.374l0,.019,1.066.168,1.071.169,0-.019a33.716,33.716,0,0,0,32.319-15l.022.013.212-.347c.005,0,.345-.566.345-.566.053-.087.116-.195.153-.256l.023-.038.017-.029.343-.56-.016-.01a33.821,33.821,0,0,0,.844-31.707M48.541,233.574l4.612-29.529,12,7.34c4.839,2.96,7.607,4.653,9.35,5.716l4.143,2.534a31.4,31.4,0,0,1-30.107,13.938M79.8,217.762s-.206-.121-.206-.121c-1.137-.673-1.631-.966-3.9-2.347L54.5,202.333,72.1,192.82c2.584-1.39,3.643-1.944,6.267-3.316l2.247-1.176a31.652,31.652,0,0,1-.812,29.433" transform="translate(-21.557 -171.498)" fill="#e7f3fe"/></g></g><g transform="translate(0 0)"><g clip-path="url(#a)"><path d="M667.452,199.106H577.747a1.768,1.768,0,0,1-1.768-1.768v-38.6a1.768,1.768,0,0,1,1.768-1.768h89.705a1.768,1.768,0,0,1,1.768,1.768v38.6a1.768,1.768,0,0,1-1.768,1.768" transform="translate(-451.345 -123.002)" fill="#9ec8ff"/><path d="M674.474,237.219H589.188a1.428,1.428,0,0,1-1.428-1.428V209.558a1.428,1.428,0,0,1,1.428-1.428h85.286a1.428,1.428,0,0,1,1.428,1.428v26.233a1.428,1.428,0,0,1-1.428,1.428" transform="translate(-460.577 -163.093)" fill="#fff"/><path d="M596.6,174.587h-2.07a.791.791,0,0,1-.792-.791v-1.7a.791.791,0,0,1,.792-.791h2.07a.791.791,0,0,1,.792.791v1.7a.791.791,0,0,1-.792.791" transform="translate(-465.265 -134.233)" fill="#fff"/><path d="M627.3,174.587h-2.07a.791.791,0,0,1-.792-.791v-1.7a.791.791,0,0,1,.792-.791h2.07a.791.791,0,0,1,.791.791v1.7a.791.791,0,0,1-.791.791" transform="translate(-489.315 -134.233)" fill="#fff"/><path d="M657.989,174.587h-2.07a.791.791,0,0,1-.791-.791v-1.7a.791.791,0,0,1,.791-.791h2.07a.791.791,0,0,1,.792.791v1.7a.791.791,0,0,1-.792.791" transform="translate(-513.367 -134.233)" fill="#fff"/><path d="M804.636,227.493H758.013a1.395,1.395,0,1,1,0-2.789h46.623a1.395,1.395,0,1,1,0,2.789" transform="translate(-592.896 -176.081)" fill="#9ec8ff"/><path d="M642.579,326.937H595.956a1.395,1.395,0,1,1,0-2.789h46.623a1.395,1.395,0,0,1,0,2.789" transform="translate(-465.906 -254.006)" fill="#9ec8ff"/><path d="M836.962,326.937h-4.824a.478.478,0,0,1-.477-.477v-1.836a.478.478,0,0,1,.477-.477h4.824a.478.478,0,0,1,.477.477v1.836a.478.478,0,0,1-.477.477" transform="translate(-651.701 -254.006)" fill="#9ec8ff"/><path d="M870.571,326.937h-4.824a.478.478,0,0,1-.477-.477v-1.836a.478.478,0,0,1,.477-.477h4.824a.478.478,0,0,1,.477.477v1.836a.478.478,0,0,1-.477.477" transform="translate(-678.037 -254.006)" fill="#9ec8ff"/><path d="M697.575,258.824H620.368a.946.946,0,0,1,0-1.893h77.207a.946.946,0,1,1,0,1.893" transform="translate(-485.388 -201.334)" fill="#9ec8ff"/><path d="M697.575,277.7H620.368a.946.946,0,0,1,0-1.893h77.207a.946.946,0,1,1,0,1.893" transform="translate(-485.388 -216.126)" fill="#9ec8ff"/><path d="M1912.829,143.666h-39.815V120.46h29.943l9.872,9.872Z" transform="translate(-1467.719 -94.394)" fill="#ffb8b3"/><path d="M2008.014,120.46v12.387h10.6v-2.38l-9.94-9.939Z" transform="translate(-1573.508 -94.393)" fill="#f39892"/><path d="M2011.392,120.46v10.007h9.872Z" transform="translate(-1576.155 -94.393)" fill="#ffb8b3"/><path d="M1908.961,155.611h-17.744a.7.7,0,1,1,0-1.407h17.744a.7.7,0,1,1,0,1.407" transform="translate(-1481.433 -120.836)" fill="#fff"/><path d="M1908.961,172.238h-17.744a.7.7,0,1,1,0-1.406h17.744a.7.7,0,1,1,0,1.406" transform="translate(-1481.433 -133.866)" fill="#fff"/><path d="M1908.961,189.738h-17.744a.7.7,0,1,1,0-1.406h17.744a.7.7,0,1,1,0,1.406" transform="translate(-1481.433 -147.579)" fill="#fff"/><path d="M1956.394,124.394a1.19,1.19,0,1,1-1.19-1.19,1.19,1.19,0,0,1,1.19,1.19" transform="translate(-1531.192 -96.544)" fill="#3e6bab"/><rect width="30.511" height="25.305" transform="translate(243.274 52.358) rotate(-79.065)" fill="#fae8b6"/><path d="M1191.926,171.679l-13.172-2.545a.649.649,0,0,1,.246-1.275l13.172,2.545a.649.649,0,1,1-.246,1.275" transform="translate(-923.275 -131.527)" fill="#9ec8ff"/><path d="M1188.986,186.9l-13.172-2.545a.649.649,0,0,1,.246-1.275l13.172,2.545a.649.649,0,1,1-.246,1.275" transform="translate(-920.971 -143.452)" fill="#9ec8ff"/><path d="M1185.964,202.534l-13.172-2.545a.649.649,0,1,1,.246-1.275l13.172,2.545a.649.649,0,1,1-.246,1.275" transform="translate(-918.603 -155.706)" fill="#9ec8ff"/><path d="M1192.558,117.422a1.082,1.082,0,1,1-.857-1.268,1.082,1.082,0,0,1,.857,1.268" transform="translate(-932.825 -91.004)" fill="#3e6bab"/><path d="M2002.688,275.8l-38.451-4.051,2.539-24.1,30.488,3.212,7.125,8.8Z" transform="translate(-1539.203 -194.063)" fill="#9ec8ff"/><path d="M2002.94,259.524l-28.621-3.015-2.142,20.336,35.582,3.748,1.254-11.907-6.961-.733Z" transform="translate(-1545.424 -201.003)" fill="#fff"/><path d="M2026.754,291.9l-18.54-1.953a.777.777,0,0,1,.163-1.545l18.54,1.953a.777.777,0,1,1-.163,1.545" transform="translate(-1573.12 -225.992)" fill="#9ec8ff"/><path d="M2024.766,310.783l-18.54-1.953a.777.777,0,0,1,.162-1.545l18.54,1.953a.777.777,0,0,1-.163,1.545" transform="translate(-1571.561 -240.789)" fill="#9ec8ff"/><path d="M2022.688,330.5l-18.54-1.953a.777.777,0,0,1,.163-1.545l18.54,1.953a.777.777,0,0,1-.163,1.545" transform="translate(-1569.933 -256.237)" fill="#9ec8ff"/><path d="M2039.345,269.06a1.19,1.19,0,1,1-1.19-1.19,1.19,1.19,0,0,1,1.19,1.19" transform="translate(-1596.194 -209.906)" fill="#3e6bab"/><path d="M2928.691,138.419a13.275,13.275,0,1,1-13.275-13.275,13.275,13.275,0,0,1,13.275,13.275" transform="translate(-2274.157 -98.064)" fill="#9cd499"/><path d="M2941.991,175.486h-.023a.649.649,0,0,1-.463-.22l-3.606-4.1a.649.649,0,1,1,.975-.858l3.154,3.584,7.214-7.06a.649.649,0,0,1,.908.928l-7.7,7.539a.65.65,0,0,1-.455.185" transform="translate(-2302.051 -130.588)" fill="#fff"/><path d="M186.387,631.133h76.536a3.577,3.577,0,0,0,3.566-3.567V600.222a3.577,3.577,0,0,0-3.566-3.567H186.387a3.577,3.577,0,0,0-3.567,3.567v27.345a3.577,3.577,0,0,0,3.567,3.567" transform="translate(-143.26 -467.547)" fill="#9ec8ff"/><path d="M443.4,721.459v19.023l-21.92-21.921s21.475,2.9,21.92,2.9" transform="translate(-330.278 -563.074)" fill="#9ec8ff"/><path d="M205.843,640.094h68.966a3.033,3.033,0,0,0,3.024-3.024V615.476a3.033,3.033,0,0,0-3.024-3.024H205.843a3.033,3.033,0,0,0-3.024,3.024V637.07a3.033,3.033,0,0,0,3.024,3.024" transform="translate(-158.932 -479.925)" fill="#fff"/><path d="M355.317,633.281H389.2a1.486,1.486,0,1,0,0-2.972H355.317a1.486,1.486,0,0,0,0,2.972" transform="translate(-277.267 -493.918)" fill="#9ec8ff"/><path d="M226.914,664.258H289.76a.828.828,0,0,0,.826-.826v-.017a.829.829,0,0,0-.826-.826H226.914a.829.829,0,0,0-.826.826v.017a.828.828,0,0,0,.826.826" transform="translate(-177.166 -519.213)" fill="#9ec8ff"/><path d="M226.914,679.206H289.76a.829.829,0,0,0,.826-.826v-.017a.829.829,0,0,0-.826-.826H226.914a.829.829,0,0,0-.826.826v.017a.829.829,0,0,0,.826.826" transform="translate(-177.166 -530.927)" fill="#9ec8ff"/><path d="M2809.721,621.594h4.011a1.534,1.534,0,0,0,1.534-1.534v-3.3a1.534,1.534,0,0,0-1.534-1.534h-4.011a1.534,1.534,0,0,0-1.534,1.534v3.3a1.533,1.533,0,0,0,1.534,1.534" transform="translate(-2200.534 -482.097)" fill="#9ec8ff"/><path d="M2750.241,621.594h4.011a1.533,1.533,0,0,0,1.534-1.534v-3.3a1.534,1.534,0,0,0-1.534-1.534h-4.011a1.534,1.534,0,0,0-1.534,1.534v3.3a1.534,1.534,0,0,0,1.534,1.534" transform="translate(-2153.924 -482.097)" fill="#9ec8ff"/><path d="M2690.761,621.594h4.011a1.534,1.534,0,0,0,1.534-1.534v-3.3a1.534,1.534,0,0,0-1.534-1.534h-4.011a1.534,1.534,0,0,0-1.534,1.534v3.3a1.534,1.534,0,0,0,1.534,1.534" transform="translate(-2107.315 -482.097)" fill="#9ec8ff"/></g></g></g></g></g></svg>