<svg xmlns="http://www.w3.org/2000/svg" xmlns:xlink="http://www.w3.org/1999/xlink" width="663" height="660" viewBox="0 0 663 660"><defs><clipPath id="a"><circle cx="182" cy="182" r="182" transform="translate(32.96 33.243)" fill="#245f8c"/></clipPath></defs><g transform="translate(-723 -995)"><g transform="translate(829 1116)" fill="none" stroke="#245f8c" stroke-width="2"><circle cx="199" cy="199" r="199" stroke="none"/><circle cx="199" cy="199" r="198" fill="none"/></g><circle cx="182" cy="182" r="182" transform="translate(846 1133)" fill="#245f8c"/><g transform="translate(813.04 1099.758)" clip-path="url(#a)"><circle cx="155" cy="155" r="155" transform="translate(268.96 -110.757)" fill="#fff"/><circle cx="122.5" cy="122.5" r="122.5" transform="translate(-89.04 -33.757)" fill="#fff"/><circle cx="162.5" cy="162.5" r="162.5" transform="translate(221.96 230.243)" fill="#fff"/></g><circle cx="117.5" cy="117.5" r="117.5" transform="translate(723 1067)" fill="#8bd0ca"/><g transform="translate(735 1078)" fill="#8bd0ca" stroke="#fff" stroke-width="1"><circle cx="106" cy="106" r="106" stroke="none"/><circle cx="106" cy="106" r="105.5" fill="none"/></g><circle cx="158" cy="158" r="158" transform="translate(1044 1339)" fill="#83b6ec"/><g transform="translate(1062 1356)" fill="#83b6ec" stroke="#fff" stroke-width="1"><circle cx="141" cy="141" r="141" stroke="none"/><circle cx="141" cy="141" r="140.5" fill="none"/></g><circle cx="147.5" cy="147.5" r="147.5" transform="translate(1091 995)" fill="#f39892"/><g transform="translate(1105 1010)" fill="none" stroke="#fff" stroke-width="1"><circle cx="133" cy="133" r="133" stroke="none"/><circle cx="133" cy="133" r="132.5" fill="none"/></g><path d="M-50.75-7.558h-7.086v5.795H-49.6V0H-59.993V-16.352h10.276v1.763h-8.12v5.267h7.086ZM-46.921,0V-16.352h4.616a7.43,7.43,0,0,1,3.773.943A6.38,6.38,0,0,1-36-12.724a8.736,8.736,0,0,1,.9,4v1.044a8.767,8.767,0,0,1-.893,4.054A6.28,6.28,0,0,1-38.537-.955,7.9,7.9,0,0,1-42.4,0Zm2.156-14.588V-1.763H-42.5a4.936,4.936,0,0,0,3.88-1.551,6.409,6.409,0,0,0,1.387-4.418v-.955a6.51,6.51,0,0,0-1.308-4.333,4.656,4.656,0,0,0-3.712-1.568Zm24.438-1.763V-5.233a5.215,5.215,0,0,1-1.454,3.785A5.861,5.861,0,0,1-25.7.2l-.573.022a6.12,6.12,0,0,1-4.279-1.449,5.181,5.181,0,0,1-1.617-3.987V-16.352h2.134V-5.278a3.74,3.74,0,0,0,.977,2.757,3.755,3.755,0,0,0,2.785.983,3.78,3.78,0,0,0,2.8-.977,3.733,3.733,0,0,0,.971-2.751V-16.352ZM-4.9-5.188a6.016,6.016,0,0,1-1.915,4A6.275,6.275,0,0,1-11.1.225,5.762,5.762,0,0,1-15.74-1.853a8.359,8.359,0,0,1-1.746-5.559V-8.984a9.317,9.317,0,0,1,.814-4.009,6.082,6.082,0,0,1,2.308-2.656,6.426,6.426,0,0,1,3.459-.927,5.909,5.909,0,0,1,4.178,1.454A6.088,6.088,0,0,1-4.9-11.1H-7.064a4.7,4.7,0,0,0-1.219-2.839,3.687,3.687,0,0,0-2.622-.879,3.858,3.858,0,0,0-3.24,1.529,7.017,7.017,0,0,0-1.174,4.35V-7.35a7.214,7.214,0,0,0,1.112,4.237A3.592,3.592,0,0,0-11.1-1.539a4.149,4.149,0,0,0,2.757-.814A4.518,4.518,0,0,0-7.064-5.188Zm11.972.91H.225L-1.314,0H-3.538L2.707-16.352H4.593L10.849,0H8.636ZM.876-6.042H6.435L3.65-13.69ZM22.9-14.588H17.643V0H15.5V-14.588H10.253v-1.763H22.9ZM27.638,0H25.482V-16.352h2.156Zm16.52-7.648a10.115,10.115,0,0,1-.809,4.195A6.125,6.125,0,0,1,41.059-.719,6.3,6.3,0,0,1,37.6.225a6.25,6.25,0,0,1-3.425-.949,6.271,6.271,0,0,1-2.319-2.707A9.705,9.705,0,0,1,31.007-7.5V-8.681a9.995,9.995,0,0,1,.82-4.167,6.249,6.249,0,0,1,2.319-2.768,6.223,6.223,0,0,1,3.431-.96,6.339,6.339,0,0,1,3.465.949,6.113,6.113,0,0,1,2.308,2.751,10.164,10.164,0,0,1,.809,4.195ZM42.013-8.7a7.331,7.331,0,0,0-1.168-4.464,3.852,3.852,0,0,0-3.268-1.555,3.811,3.811,0,0,0-3.218,1.555A7.181,7.181,0,0,0,33.152-8.85v1.2a7.342,7.342,0,0,0,1.185,4.43A3.827,3.827,0,0,0,37.6-1.606a3.812,3.812,0,0,0,3.234-1.522,7.3,7.3,0,0,0,1.179-4.363ZM59.959,0H57.792L49.56-12.6V0H47.393V-16.352H49.56L57.814-3.695V-16.352h2.145ZM-55.069,26.385h-3.841V33h-2.167V16.648h5.413a6.407,6.407,0,0,1,4.251,1.258,4.525,4.525,0,0,1,1.488,3.661,4.4,4.4,0,0,1-.825,2.662,4.927,4.927,0,0,1-2.3,1.7l3.841,6.94V33H-51.52Zm-3.841-1.763H-55.6a3.737,3.737,0,0,0,2.555-.833,2.815,2.815,0,0,0,.949-2.228,2.965,2.965,0,0,0-.9-2.329,3.828,3.828,0,0,0-2.611-.821h-3.3Zm21.248.82h-7.086v5.795h8.232V33H-46.9V16.648h10.276v1.763h-8.12v5.267h7.086Zm6.615-8.793L-25.7,29.99l5.346-13.342h2.8V33h-2.156V26.632l.2-6.873L-24.881,33h-1.651l-5.357-13.207.213,6.839V33h-2.156V16.648ZM-11.438,33h-2.156V16.648h2.156ZM5.071,33H2.9L-5.329,20.4V33H-7.5V16.648h2.167L2.926,29.305V16.648H5.071ZM8.9,33V16.648h4.616a7.43,7.43,0,0,1,3.773.943,6.38,6.38,0,0,1,2.532,2.684,8.736,8.736,0,0,1,.9,4v1.044a8.767,8.767,0,0,1-.893,4.054,6.28,6.28,0,0,1-2.549,2.673A7.9,7.9,0,0,1,13.426,33Zm2.156-14.588V31.237h2.269a4.936,4.936,0,0,0,3.88-1.551,6.409,6.409,0,0,0,1.387-4.418v-.955a6.51,6.51,0,0,0-1.308-4.333,4.656,4.656,0,0,0-3.712-1.568Zm22.169,7.03H26.139v5.795h8.232V33H23.983V16.648H34.259v1.763h-8.12v5.267h7.086Zm9.827.943H39.211V33H37.044V16.648h5.413a6.407,6.407,0,0,1,4.251,1.258A4.525,4.525,0,0,1,48.2,21.567a4.4,4.4,0,0,1-.825,2.662,4.927,4.927,0,0,1-2.3,1.7l3.841,6.94V33H46.6Zm-3.841-1.763h3.313a3.737,3.737,0,0,0,2.555-.833,2.815,2.815,0,0,0,.949-2.228,2.965,2.965,0,0,0-.9-2.329,3.828,3.828,0,0,0-2.611-.821h-3.3Zm16.823,1.089A10.139,10.139,0,0,1,52,23.752a3.744,3.744,0,0,1-1.263-2.869,3.955,3.955,0,0,1,1.544-3.2,6.137,6.137,0,0,1,4.015-1.263,6.7,6.7,0,0,1,3,.651,4.94,4.94,0,0,1,2.044,1.8,4.6,4.6,0,0,1,.724,2.5H59.9a2.99,2.99,0,0,0-.943-2.339,3.836,3.836,0,0,0-2.662-.851,3.927,3.927,0,0,0-2.488.7,2.346,2.346,0,0,0-.893,1.952,2.11,2.11,0,0,0,.848,1.693A8.317,8.317,0,0,0,56.646,23.8a13.392,13.392,0,0,1,3.189,1.264,4.84,4.84,0,0,1,1.707,1.612,4.113,4.113,0,0,1,.556,2.167,3.82,3.82,0,0,1-1.55,3.184,6.608,6.608,0,0,1-4.144,1.2,7.686,7.686,0,0,1-3.145-.646,5.292,5.292,0,0,1-2.252-1.769,4.317,4.317,0,0,1-.792-2.549h2.167A2.816,2.816,0,0,0,53.479,30.6a4.61,4.61,0,0,0,2.926.859,4.238,4.238,0,0,0,2.617-.7,2.262,2.262,0,0,0,.91-1.9,2.22,2.22,0,0,0-.842-1.859A9.711,9.711,0,0,0,56.034,25.711ZM-92.618,61.721h-6.851L-101.007,66h-2.224l6.244-16.352H-95.1L-88.844,66h-2.212Zm-6.2-1.763h5.559l-2.785-7.648Zm16.992-1.247a10.139,10.139,0,0,1-4.037-1.96,3.744,3.744,0,0,1-1.263-2.869,3.955,3.955,0,0,1,1.544-3.2,6.137,6.137,0,0,1,4.015-1.263,6.7,6.7,0,0,1,3,.651,4.94,4.94,0,0,1,2.044,1.8,4.6,4.6,0,0,1,.724,2.5h-2.167a2.99,2.99,0,0,0-.943-2.339,3.836,3.836,0,0,0-2.662-.851,3.927,3.927,0,0,0-2.488.7,2.346,2.346,0,0,0-.893,1.952,2.11,2.11,0,0,0,.848,1.693A8.317,8.317,0,0,0-81.213,56.8a13.392,13.392,0,0,1,3.189,1.264,4.84,4.84,0,0,1,1.707,1.612,4.113,4.113,0,0,1,.556,2.167,3.82,3.82,0,0,1-1.55,3.184,6.608,6.608,0,0,1-4.144,1.2,7.686,7.686,0,0,1-3.145-.646,5.292,5.292,0,0,1-2.252-1.769,4.317,4.317,0,0,1-.792-2.549h2.167A2.816,2.816,0,0,0-84.38,63.6a4.61,4.61,0,0,0,2.926.859,4.238,4.238,0,0,0,2.617-.7,2.262,2.262,0,0,0,.91-1.9,2.22,2.22,0,0,0-.842-1.859A9.711,9.711,0,0,0-81.825,58.711Zm13.645,0a10.139,10.139,0,0,1-4.037-1.96,3.744,3.744,0,0,1-1.263-2.869,3.955,3.955,0,0,1,1.544-3.2,6.137,6.137,0,0,1,4.015-1.263,6.7,6.7,0,0,1,3,.651,4.94,4.94,0,0,1,2.044,1.8,4.6,4.6,0,0,1,.724,2.5h-2.167a2.99,2.99,0,0,0-.943-2.339,3.836,3.836,0,0,0-2.662-.851,3.927,3.927,0,0,0-2.488.7,2.346,2.346,0,0,0-.893,1.952,2.11,2.11,0,0,0,.848,1.693A8.317,8.317,0,0,0-67.568,56.8a13.392,13.392,0,0,1,3.189,1.264,4.84,4.84,0,0,1,1.707,1.612,4.113,4.113,0,0,1,.556,2.167,3.82,3.82,0,0,1-1.55,3.184,6.608,6.608,0,0,1-4.144,1.2,7.686,7.686,0,0,1-3.145-.646,5.292,5.292,0,0,1-2.252-1.769A4.317,4.317,0,0,1-74,61.261h2.167A2.816,2.816,0,0,0-70.735,63.6a4.61,4.61,0,0,0,2.926.859,4.238,4.238,0,0,0,2.617-.7,2.262,2.262,0,0,0,.91-1.9,2.22,2.22,0,0,0-.842-1.859A9.711,9.711,0,0,0-68.18,58.711Zm18.07-.27H-57.2v5.795h8.232V66H-59.353V49.648h10.276v1.763H-57.2v5.267h7.086Zm8.647.27a10.139,10.139,0,0,1-4.037-1.96,3.744,3.744,0,0,1-1.263-2.869,3.955,3.955,0,0,1,1.544-3.2A6.137,6.137,0,0,1-41.2,49.424a6.7,6.7,0,0,1,3,.651,4.94,4.94,0,0,1,2.044,1.8,4.6,4.6,0,0,1,.724,2.5H-37.6a2.99,2.99,0,0,0-.943-2.339,3.836,3.836,0,0,0-2.662-.851,3.927,3.927,0,0,0-2.488.7,2.346,2.346,0,0,0-.893,1.952,2.11,2.11,0,0,0,.848,1.693A8.317,8.317,0,0,0-40.851,56.8a13.392,13.392,0,0,1,3.189,1.264,4.84,4.84,0,0,1,1.707,1.612,4.113,4.113,0,0,1,.556,2.167,3.82,3.82,0,0,1-1.55,3.184,6.608,6.608,0,0,1-4.144,1.2,7.686,7.686,0,0,1-3.145-.646,5.292,5.292,0,0,1-2.252-1.769,4.317,4.317,0,0,1-.792-2.549h2.167A2.816,2.816,0,0,0-44.018,63.6a4.61,4.61,0,0,0,2.926.859,4.238,4.238,0,0,0,2.617-.7,2.262,2.262,0,0,0,.91-1.9,2.22,2.22,0,0,0-.842-1.859A9.711,9.711,0,0,0-41.463,58.711Zm13.645,0a10.139,10.139,0,0,1-4.037-1.96,3.744,3.744,0,0,1-1.263-2.869,3.955,3.955,0,0,1,1.544-3.2,6.137,6.137,0,0,1,4.015-1.263,6.7,6.7,0,0,1,3,.651,4.94,4.94,0,0,1,2.044,1.8,4.6,4.6,0,0,1,.724,2.5h-2.167a2.99,2.99,0,0,0-.943-2.339,3.836,3.836,0,0,0-2.662-.851,3.927,3.927,0,0,0-2.488.7,2.346,2.346,0,0,0-.893,1.952,2.11,2.11,0,0,0,.848,1.693A8.317,8.317,0,0,0-27.206,56.8a13.392,13.392,0,0,1,3.189,1.264,4.84,4.84,0,0,1,1.707,1.612,4.113,4.113,0,0,1,.556,2.167,3.82,3.82,0,0,1-1.55,3.184,6.608,6.608,0,0,1-4.144,1.2,7.686,7.686,0,0,1-3.145-.646,5.292,5.292,0,0,1-2.252-1.769,4.317,4.317,0,0,1-.792-2.549h2.167A2.816,2.816,0,0,0-30.373,63.6a4.61,4.61,0,0,0,2.926.859,4.238,4.238,0,0,0,2.617-.7,2.262,2.262,0,0,0,.91-1.9,2.22,2.22,0,0,0-.842-1.859A9.711,9.711,0,0,0-27.818,58.711Zm11.612-9.063L-10.86,62.99l5.346-13.342h2.8V66H-4.874V59.632l.2-6.873L-10.04,66h-1.651l-5.357-13.207.213,6.839V66h-2.156V49.648Zm26.538,8.793H3.246v5.795h8.232V66H1.089V49.648H11.365v1.763H3.246v5.267h7.086ZM26.729,66H24.561L16.329,53.4V66H14.162V49.648h2.167l8.254,12.657V49.648h2.145Zm14.8-14.588H36.274V66H34.129V51.412H28.885V49.648H41.53ZM49.2,66V49.648h4.616a7.43,7.43,0,0,1,3.773.943,6.38,6.38,0,0,1,2.532,2.684,8.736,8.736,0,0,1,.9,4v1.044a8.767,8.767,0,0,1-.893,4.054,6.28,6.28,0,0,1-2.549,2.673A7.9,7.9,0,0,1,53.727,66Zm2.156-14.588V64.237h2.269a4.936,4.936,0,0,0,3.88-1.551,6.409,6.409,0,0,0,1.387-4.418v-.955a6.51,6.51,0,0,0-1.308-4.333,4.656,4.656,0,0,0-3.712-1.568Zm21.72,10.31H66.226L64.688,66H62.464l6.244-16.352h1.887L76.85,66H74.638Zm-6.2-1.763h5.559L69.651,52.31ZM88.9,51.412H83.645V66H81.5V51.412H76.255V49.648H88.9Zm10.568,10.31H92.618L91.079,66H88.855L95.1,49.648h1.887L103.242,66h-2.212Zm-6.2-1.763h5.559L96.043,52.31ZM-43.63,93.812a6.016,6.016,0,0,1-1.915,4,6.275,6.275,0,0,1-4.284,1.409,5.762,5.762,0,0,1-4.644-2.078,8.359,8.359,0,0,1-1.746-5.559V90.016a9.317,9.317,0,0,1,.814-4.009A6.082,6.082,0,0,1-53.1,83.35a6.426,6.426,0,0,1,3.459-.927,5.909,5.909,0,0,1,4.178,1.454A6.088,6.088,0,0,1-43.63,87.9H-45.8a4.7,4.7,0,0,0-1.219-2.839,3.687,3.687,0,0,0-2.622-.879,3.858,3.858,0,0,0-3.24,1.529,7.017,7.017,0,0,0-1.174,4.35V91.65a7.214,7.214,0,0,0,1.112,4.237,3.593,3.593,0,0,0,3.111,1.574,4.149,4.149,0,0,0,2.757-.814A4.518,4.518,0,0,0-45.8,93.812Zm15.521-2.459a10.115,10.115,0,0,1-.809,4.195,6.125,6.125,0,0,1-2.291,2.735,6.3,6.3,0,0,1-3.459.943,6.25,6.25,0,0,1-3.425-.949,6.271,6.271,0,0,1-2.319-2.707,9.705,9.705,0,0,1-.848-4.071V90.319a9.995,9.995,0,0,1,.82-4.167,6.249,6.249,0,0,1,2.319-2.768,6.223,6.223,0,0,1,3.431-.96,6.339,6.339,0,0,1,3.465.949,6.113,6.113,0,0,1,2.308,2.751,10.164,10.164,0,0,1,.809,4.195ZM-30.255,90.3a7.331,7.331,0,0,0-1.168-4.464,3.852,3.852,0,0,0-3.268-1.555,3.811,3.811,0,0,0-3.218,1.555,7.181,7.181,0,0,0-1.207,4.318v1.2a7.342,7.342,0,0,0,1.185,4.43,3.827,3.827,0,0,0,3.262,1.612,3.812,3.812,0,0,0,3.234-1.522,7.3,7.3,0,0,0,1.179-4.363Zm14.173,4.425h-6.851L-24.471,99h-2.224l6.244-16.352h1.887L-12.309,99h-2.212Zm-6.2-1.763h5.559l-2.785-7.648ZM1.8,93.812a6.016,6.016,0,0,1-1.915,4A6.275,6.275,0,0,1-4.4,99.225a5.762,5.762,0,0,1-4.644-2.078,8.359,8.359,0,0,1-1.746-5.559V90.016a9.317,9.317,0,0,1,.814-4.009A6.082,6.082,0,0,1-7.67,83.35a6.426,6.426,0,0,1,3.459-.927A5.909,5.909,0,0,1-.034,83.878,6.088,6.088,0,0,1,1.8,87.9H-.371a4.7,4.7,0,0,0-1.219-2.839,3.687,3.687,0,0,0-2.622-.879,3.858,3.858,0,0,0-3.24,1.529,7.017,7.017,0,0,0-1.174,4.35V91.65a7.214,7.214,0,0,0,1.112,4.237A3.593,3.593,0,0,0-4.4,97.461a4.149,4.149,0,0,0,2.757-.814A4.518,4.518,0,0,0-.371,93.812ZM17.306,99H15.139V91.442H6.9V99H4.739V82.648H6.9v7.03h8.243v-7.03h2.167Zm6.143,0H21.293V82.648h2.156Zm16.509,0H37.791L29.559,86.4V99H27.391V82.648h2.167l8.254,12.657V82.648h2.145Zm15.9-2.145a4.981,4.981,0,0,1-2.319,1.78,9.367,9.367,0,0,1-3.465.59,6.719,6.719,0,0,1-3.549-.938,6.247,6.247,0,0,1-2.4-2.667,9.212,9.212,0,0,1-.87-4.009V90.184a8.6,8.6,0,0,1,1.724-5.728,6.007,6.007,0,0,1,4.846-2.033,6.2,6.2,0,0,1,4.122,1.308,5.7,5.7,0,0,1,1.909,3.712H53.7a3.565,3.565,0,0,0-3.863-3.257,3.817,3.817,0,0,0-3.285,1.523,7.436,7.436,0,0,0-1.129,4.412v1.337a6.969,6.969,0,0,0,1.258,4.378,4.077,4.077,0,0,0,3.4,1.624,7.516,7.516,0,0,0,2.123-.269,3.282,3.282,0,0,0,1.5-.907V92.621H49.931V90.858h5.93ZM-25.01,125.6V132h-2.156V115.648h6.031a6.059,6.059,0,0,1,4.206,1.37,4.645,4.645,0,0,1,1.522,3.627,4.583,4.583,0,0,1-1.488,3.667,6.33,6.33,0,0,1-4.262,1.286Zm0-1.763h3.875a3.874,3.874,0,0,0,2.65-.816,2.982,2.982,0,0,0,.921-2.357,3.081,3.081,0,0,0-.921-2.34,3.629,3.629,0,0,0-2.527-.911h-4Zm18.351,1.55H-10.5V132h-2.167V115.648h5.413A6.407,6.407,0,0,1-3,116.906a4.525,4.525,0,0,1,1.488,3.661,4.4,4.4,0,0,1-.825,2.662,4.927,4.927,0,0,1-2.3,1.7l3.841,6.94V132H-3.111Zm-3.841-1.763h3.313a3.737,3.737,0,0,0,2.555-.833,2.815,2.815,0,0,0,.949-2.228,2.965,2.965,0,0,0-.9-2.329,3.828,3.828,0,0,0-2.611-.821h-3.3Zm24.583.73a10.115,10.115,0,0,1-.809,4.195,6.125,6.125,0,0,1-2.291,2.735,6.3,6.3,0,0,1-3.459.943,6.25,6.25,0,0,1-3.425-.949,6.271,6.271,0,0,1-2.319-2.707A9.705,9.705,0,0,1,.932,124.5v-1.179a9.995,9.995,0,0,1,.82-4.167,6.249,6.249,0,0,1,2.319-2.768,6.223,6.223,0,0,1,3.431-.96,6.339,6.339,0,0,1,3.465.949,6.113,6.113,0,0,1,2.308,2.751,10.164,10.164,0,0,1,.809,4.195ZM11.938,123.3a7.331,7.331,0,0,0-1.168-4.464A3.852,3.852,0,0,0,7.5,117.277a3.811,3.811,0,0,0-3.218,1.555,7.181,7.181,0,0,0-1.207,4.318v1.2a7.342,7.342,0,0,0,1.185,4.43,3.827,3.827,0,0,0,3.262,1.612,3.812,3.812,0,0,0,3.234-1.522,7.3,7.3,0,0,0,1.179-4.363Zm10.2,1.415a10.139,10.139,0,0,1-4.037-1.96,3.744,3.744,0,0,1-1.263-2.869,3.955,3.955,0,0,1,1.544-3.2,6.137,6.137,0,0,1,4.015-1.263,6.7,6.7,0,0,1,3,.651,4.94,4.94,0,0,1,2.044,1.8,4.6,4.6,0,0,1,.724,2.5H26a2.99,2.99,0,0,0-.943-2.339,3.836,3.836,0,0,0-2.662-.851,3.927,3.927,0,0,0-2.488.7,2.346,2.346,0,0,0-.893,1.952,2.11,2.11,0,0,0,.848,1.693,8.317,8.317,0,0,0,2.886,1.266,13.392,13.392,0,0,1,3.189,1.264,4.84,4.84,0,0,1,1.707,1.612,4.113,4.113,0,0,1,.556,2.167,3.82,3.82,0,0,1-1.55,3.184,6.608,6.608,0,0,1-4.144,1.2,7.686,7.686,0,0,1-3.145-.646,5.292,5.292,0,0,1-2.252-1.769,4.317,4.317,0,0,1-.792-2.549h2.167A2.816,2.816,0,0,0,19.58,129.6a4.61,4.61,0,0,0,2.926.859,4.238,4.238,0,0,0,2.617-.7,2.262,2.262,0,0,0,.91-1.9,2.22,2.22,0,0,0-.842-1.859A9.711,9.711,0,0,0,22.135,124.711Z" transform="translate(1028 1258)" fill="#fff"/><path d="M-57.686,0h-2.461V-6.309H-66.5V0h-2.471V-14.219H-66.5V-8.3h6.357v-5.918h2.461Zm7.344.2A4.91,4.91,0,0,1-54-1.226,5.154,5.154,0,0,1-55.4-5.01V-5.3a6.34,6.34,0,0,1,.61-2.827,4.646,4.646,0,0,1,1.714-1.938,4.531,4.531,0,0,1,2.461-.693A4.147,4.147,0,0,1-47.28-9.385a5.823,5.823,0,0,1,1.177,3.9v.957h-6.9a3.173,3.173,0,0,0,.874,2.07,2.624,2.624,0,0,0,1.929.762,3.213,3.213,0,0,0,2.656-1.318L-46.27-1.8a4.272,4.272,0,0,1-1.694,1.47A5.3,5.3,0,0,1-50.342.2Zm-.283-9.053a2,2,0,0,0-1.577.684,3.543,3.543,0,0,0-.767,1.9h4.521v-.176a2.884,2.884,0,0,0-.635-1.8A1.983,1.983,0,0,0-50.625-8.857ZM-37.949,0a3.662,3.662,0,0,1-.273-.986A3.694,3.694,0,0,1-41,.2a3.728,3.728,0,0,1-2.6-.908A2.906,2.906,0,0,1-44.6-2.959a3,3,0,0,1,1.255-2.593,6.081,6.081,0,0,1,3.589-.9H-38.3v-.693a1.851,1.851,0,0,0-.459-1.313,1.819,1.819,0,0,0-1.4-.493,2.09,2.09,0,0,0-1.328.405A1.254,1.254,0,0,0-42-7.52h-2.373A2.634,2.634,0,0,1-43.8-9.146a3.838,3.838,0,0,1,1.567-1.187,5.506,5.506,0,0,1,2.212-.43,4.434,4.434,0,0,1,2.959.933,3.326,3.326,0,0,1,1.133,2.622v4.766a5.4,5.4,0,0,0,.4,2.275V0Zm-2.607-1.709a2.7,2.7,0,0,0,1.323-.342,2.284,2.284,0,0,0,.933-.918V-4.961H-39.58a3.5,3.5,0,0,0-1.982.459,1.487,1.487,0,0,0-.664,1.3,1.387,1.387,0,0,0,.454,1.089A1.758,1.758,0,0,0-40.557-1.709ZM-30.918,0h-2.373V-15h2.373Zm5.557-13.135v2.568H-23.5v1.758h-1.865v5.9a1.3,1.3,0,0,0,.239.874,1.109,1.109,0,0,0,.854.269,3.656,3.656,0,0,0,.83-.1V-.029A5.845,5.845,0,0,1-25,.2q-2.734,0-2.734-3.018V-8.809h-1.738v-1.758h1.738v-2.568Zm6.016,3.721a3.714,3.714,0,0,1,2.939-1.348q3.379,0,3.428,3.857V0h-2.373V-6.816a2.086,2.086,0,0,0-.474-1.548,1.936,1.936,0,0,0-1.392-.454,2.286,2.286,0,0,0-2.129,1.27V0h-2.373V-15h2.373ZM2.061-3.662A1.717,1.717,0,0,0,1.4-5.107,7.931,7.931,0,0,0-.977-6.133,11.483,11.483,0,0,1-3.711-7.285a3.649,3.649,0,0,1-1.943-3.184,3.465,3.465,0,0,1,1.4-2.832A5.672,5.672,0,0,1-.615-14.414a6.145,6.145,0,0,1,2.646.547A4.344,4.344,0,0,1,3.857-12.31a4,4,0,0,1,.664,2.241H2.061a2.228,2.228,0,0,0-.7-1.743,2.882,2.882,0,0,0-2-.63,3.01,3.01,0,0,0-1.88.518,1.723,1.723,0,0,0-.669,1.445,1.559,1.559,0,0,0,.723,1.3A8.325,8.325,0,0,0-.078-8.159,10.961,10.961,0,0,1,2.588-7.036,4.241,4.241,0,0,1,4.063-5.591a3.764,3.764,0,0,1,.469,1.909A3.384,3.384,0,0,1,3.169-.854,5.909,5.909,0,0,1-.527.2,6.946,6.946,0,0,1-3.364-.376,4.766,4.766,0,0,1-5.376-1.953,3.93,3.93,0,0,1-6.094-4.3h2.471a2.3,2.3,0,0,0,.8,1.875,3.507,3.507,0,0,0,2.295.664A3.047,3.047,0,0,0,1.411-2.28,1.686,1.686,0,0,0,2.061-3.662Zm8.105.264,2.148-7.168h2.529L10.645,1.6Q9.678,4.268,7.363,4.268a4.231,4.231,0,0,1-1.143-.177V2.246l.449.029a2.31,2.31,0,0,0,1.353-.327A2.167,2.167,0,0,0,8.74.851l.342-.907L5.371-10.566H7.93Zm11.963.527a1.076,1.076,0,0,0-.522-.967,5.557,5.557,0,0,0-1.733-.586,8.911,8.911,0,0,1-2.021-.645,2.7,2.7,0,0,1-1.777-2.49,2.813,2.813,0,0,1,1.152-2.285,4.556,4.556,0,0,1,2.93-.918,4.74,4.74,0,0,1,3.062.938,2.975,2.975,0,0,1,1.167,2.432H22.012A1.462,1.462,0,0,0,21.5-8.53a1.946,1.946,0,0,0-1.348-.454,2.1,2.1,0,0,0-1.274.361,1.139,1.139,0,0,0-.493.967.962.962,0,0,0,.459.85A6.312,6.312,0,0,0,20.7-6.2a8.783,8.783,0,0,1,2.192.732,3.1,3.1,0,0,1,1.182,1.021A2.6,2.6,0,0,1,24.463-3a2.753,2.753,0,0,1-1.182,2.31,5.039,5.039,0,0,1-3.1.884,5.464,5.464,0,0,1-2.314-.469,3.809,3.809,0,0,1-1.582-1.289,3.051,3.051,0,0,1-.566-1.768h2.3a1.672,1.672,0,0,0,.635,1.294,2.467,2.467,0,0,0,1.553.454,2.4,2.4,0,0,0,1.426-.356A1.1,1.1,0,0,0,22.129-2.871ZM29.5-13.135v2.568h1.865v1.758H29.5v5.9a1.3,1.3,0,0,0,.239.874,1.109,1.109,0,0,0,.854.269,3.656,3.656,0,0,0,.83-.1V-.029A5.845,5.845,0,0,1,29.863.2q-2.734,0-2.734-3.018V-8.809H25.391v-1.758h1.738v-2.568ZM37.832.2a4.91,4.91,0,0,1-3.657-1.421,5.154,5.154,0,0,1-1.4-3.784V-5.3a6.34,6.34,0,0,1,.61-2.827A4.646,4.646,0,0,1,35.1-10.068a4.531,4.531,0,0,1,2.461-.693,4.147,4.147,0,0,1,3.335,1.377,5.823,5.823,0,0,1,1.177,3.9v.957h-6.9a3.173,3.173,0,0,0,.874,2.07,2.624,2.624,0,0,0,1.929.762,3.213,3.213,0,0,0,2.656-1.318L41.9-1.8A4.272,4.272,0,0,1,40.21-.327,5.3,5.3,0,0,1,37.832.2Zm-.283-9.053a2,2,0,0,0-1.577.684,3.543,3.543,0,0,0-.767,1.9h4.521v-.176a2.884,2.884,0,0,0-.635-1.8A1.983,1.983,0,0,0,37.549-8.857Zm8.594-1.709.068,1.1a3.8,3.8,0,0,1,3.047-1.3,2.921,2.921,0,0,1,2.9,1.621A3.748,3.748,0,0,1,55.4-10.762a3.294,3.294,0,0,1,2.6.967,4.257,4.257,0,0,1,.874,2.852V0H56.5V-6.875a2.1,2.1,0,0,0-.439-1.475,1.924,1.924,0,0,0-1.455-.469,1.976,1.976,0,0,0-1.323.435,2.292,2.292,0,0,0-.718,1.138L52.578,0H50.205V-6.953a1.693,1.693,0,0,0-1.9-1.865,2.089,2.089,0,0,0-2.021,1.162V0H43.906V-10.566Zm21.094,7.7a1.076,1.076,0,0,0-.522-.967,5.557,5.557,0,0,0-1.733-.586,8.911,8.911,0,0,1-2.021-.645,2.7,2.7,0,0,1-1.777-2.49,2.813,2.813,0,0,1,1.152-2.285,4.556,4.556,0,0,1,2.93-.918,4.74,4.74,0,0,1,3.062.938,2.975,2.975,0,0,1,1.167,2.432H67.119a1.462,1.462,0,0,0-.508-1.138,1.946,1.946,0,0,0-1.348-.454,2.1,2.1,0,0,0-1.274.361,1.139,1.139,0,0,0-.493.967.962.962,0,0,0,.459.85,6.312,6.312,0,0,0,1.855.61A8.783,8.783,0,0,1,68-5.464a3.1,3.1,0,0,1,1.182,1.021A2.6,2.6,0,0,1,69.57-3a2.753,2.753,0,0,1-1.182,2.31,5.039,5.039,0,0,1-3.1.884,5.464,5.464,0,0,1-2.314-.469A3.809,3.809,0,0,1,61.4-1.562,3.051,3.051,0,0,1,60.83-3.33h2.3a1.672,1.672,0,0,0,.635,1.294,2.467,2.467,0,0,0,1.553.454,2.4,2.4,0,0,0,1.426-.356A1.1,1.1,0,0,0,67.236-2.871Z" transform="translate(842 1153)"/><path d="M-29.267-5.8V0h-2.718V-15.641H-26a6.051,6.051,0,0,1,4.163,1.366A4.592,4.592,0,0,1-20.3-10.662a4.44,4.44,0,0,1-1.509,3.581A6.343,6.343,0,0,1-26.034-5.8Zm0-2.191H-26a3.216,3.216,0,0,0,2.213-.682,2.507,2.507,0,0,0,.763-1.971A2.7,2.7,0,0,0-23.8-12.67a2.981,2.981,0,0,0-2.127-.779h-3.341ZM-11.349,0a4.029,4.029,0,0,1-.3-1.085A4.063,4.063,0,0,1-14.7.215a4.1,4.1,0,0,1-2.857-1,3.2,3.2,0,0,1-1.106-2.471,3.3,3.3,0,0,1,1.38-2.852A6.689,6.689,0,0,1-13.336-7.1h1.6v-.763a2.036,2.036,0,0,0-.5-1.445,2,2,0,0,0-1.536-.542,2.3,2.3,0,0,0-1.461.446,1.38,1.38,0,0,0-.569,1.133h-2.61a2.9,2.9,0,0,1,.634-1.789,4.222,4.222,0,0,1,1.724-1.305,6.056,6.056,0,0,1,2.433-.473,4.877,4.877,0,0,1,3.255,1.026A3.658,3.658,0,0,1-9.125-7.928v5.242a5.941,5.941,0,0,0,.44,2.5V0Zm-2.868-1.88a2.969,2.969,0,0,0,1.456-.376,2.512,2.512,0,0,0,1.026-1.01V-5.457h-1.407a3.848,3.848,0,0,0-2.181.5,1.636,1.636,0,0,0-.73,1.429,1.525,1.525,0,0,0,.5,1.2A1.934,1.934,0,0,0-14.217-1.88Zm11.73-1.858,2.363-7.885H2.659L-1.96,1.762Q-3.024,4.694-5.57,4.694A4.654,4.654,0,0,1-6.827,4.5V2.471l.494.032a2.541,2.541,0,0,0,1.488-.36A2.384,2.384,0,0,0-4.055.936l.376-1L-7.761-11.623h2.814ZM9.136.215A5.4,5.4,0,0,1,5.113-1.348,5.67,5.67,0,0,1,3.572-5.511v-.322a6.974,6.974,0,0,1,.671-3.11,5.11,5.11,0,0,1,1.885-2.132,4.984,4.984,0,0,1,2.707-.763A4.562,4.562,0,0,1,12.5-10.323,6.4,6.4,0,0,1,13.8-6.037v1.053H6.2a3.491,3.491,0,0,0,.961,2.277,2.886,2.886,0,0,0,2.122.838,3.535,3.535,0,0,0,2.922-1.45l1.407,1.343A4.7,4.7,0,0,1,11.752-.36,5.835,5.835,0,0,1,9.136.215ZM8.825-9.743a2.2,2.2,0,0,0-1.735.752A3.9,3.9,0,0,0,6.247-6.9H11.22V-7.09a3.173,3.173,0,0,0-.7-1.982A2.181,2.181,0,0,0,8.825-9.743Zm13.084.5a6.459,6.459,0,0,0-1.063-.086,2.394,2.394,0,0,0-2.417,1.375V0h-2.61V-11.623H18.31l.064,1.3A2.941,2.941,0,0,1,21-11.838a2.444,2.444,0,0,1,.924.15Zm8.164,6.08A1.183,1.183,0,0,0,29.5-4.222a6.112,6.112,0,0,0-1.907-.645,9.8,9.8,0,0,1-2.224-.709,2.968,2.968,0,0,1-1.955-2.739,3.094,3.094,0,0,1,1.268-2.514,5.011,5.011,0,0,1,3.223-1.01,5.214,5.214,0,0,1,3.368,1.031,3.272,3.272,0,0,1,1.284,2.675h-2.61a1.609,1.609,0,0,0-.559-1.251,2.141,2.141,0,0,0-1.482-.5,2.313,2.313,0,0,0-1.4.4,1.253,1.253,0,0,0-.542,1.063,1.058,1.058,0,0,0,.5.935,6.943,6.943,0,0,0,2.041.671,9.662,9.662,0,0,1,2.412.806,3.415,3.415,0,0,1,1.3,1.123A2.863,2.863,0,0,1,32.64-3.3a3.028,3.028,0,0,1-1.3,2.541,5.542,5.542,0,0,1-3.405.972A6.01,6.01,0,0,1,25.389-.3a4.19,4.19,0,0,1-1.74-1.418,3.356,3.356,0,0,1-.623-1.944h2.535a1.839,1.839,0,0,0,.7,1.423,2.713,2.713,0,0,0,1.708.5,2.64,2.64,0,0,0,1.568-.392A1.214,1.214,0,0,0,30.073-3.158Z" transform="translate(1239 1108)"/><path d="M-42.485-5.8V0H-45.2V-15.641h5.983a6.051,6.051,0,0,1,4.163,1.366,4.592,4.592,0,0,1,1.542,3.613,4.44,4.44,0,0,1-1.509,3.581A6.343,6.343,0,0,1-39.252-5.8Zm0-2.191h3.266a3.216,3.216,0,0,0,2.213-.682,2.507,2.507,0,0,0,.763-1.971,2.7,2.7,0,0,0-.773-2.025,2.981,2.981,0,0,0-2.127-.779h-3.341Zm17.177-1.246a6.459,6.459,0,0,0-1.063-.086,2.394,2.394,0,0,0-2.417,1.375V0H-31.4V-11.623h2.492l.064,1.3a2.941,2.941,0,0,1,2.621-1.515,2.444,2.444,0,0,1,.924.15Zm.773,3.319A6.854,6.854,0,0,1-23.858-9a4.943,4.943,0,0,1,1.9-2.105,5.357,5.357,0,0,1,2.814-.736,5.077,5.077,0,0,1,3.819,1.515,5.957,5.957,0,0,1,1.584,4.018l.011.612a6.915,6.915,0,0,1-.661,3.072A4.883,4.883,0,0,1-16.28-.526a5.4,5.4,0,0,1-2.841.741,5.042,5.042,0,0,1-3.937-1.638A6.274,6.274,0,0,1-24.535-5.79Zm2.61.226a4.683,4.683,0,0,0,.741,2.809,2.41,2.41,0,0,0,2.063,1.015A2.383,2.383,0,0,0-17.064-2.9a5.173,5.173,0,0,0,.736-3.019,4.623,4.623,0,0,0-.757-2.793,2.418,2.418,0,0,0-2.057-1.031,2.4,2.4,0,0,0-2.03,1.015A5.075,5.075,0,0,0-21.925-5.693ZM-7.584-3.309l2.46-8.314h2.7L-6.456,0H-8.723l-4.061-11.623h2.707ZM1.977,0H-.634V-11.623h2.61ZM-.795-14.642a1.385,1.385,0,0,1,.381-1,1.44,1.44,0,0,1,1.09-.4,1.459,1.459,0,0,1,1.1.4,1.375,1.375,0,0,1,.387,1,1.343,1.343,0,0,1-.387.983,1.47,1.47,0,0,1-1.1.392,1.452,1.452,0,0,1-1.09-.392A1.353,1.353,0,0,1-.795-14.642ZM4.329-5.9A6.91,6.91,0,0,1,5.575-10.21a3.993,3.993,0,0,1,3.341-1.627A3.794,3.794,0,0,1,11.9-10.549V-16.5h2.61V0H12.149l-.129-1.2A3.848,3.848,0,0,1,8.895.215a3.97,3.97,0,0,1-3.3-1.644A7.163,7.163,0,0,1,4.329-5.9Zm2.61.226a4.838,4.838,0,0,0,.682,2.766,2.213,2.213,0,0,0,1.939.994A2.465,2.465,0,0,0,11.9-3.341V-8.3a2.428,2.428,0,0,0-2.32-1.4,2.23,2.23,0,0,0-1.955,1A5.388,5.388,0,0,0,6.939-5.672ZM22.354.215a5.4,5.4,0,0,1-4.023-1.563A5.67,5.67,0,0,1,16.79-5.511v-.322a6.974,6.974,0,0,1,.671-3.11,5.11,5.11,0,0,1,1.885-2.132,4.984,4.984,0,0,1,2.707-.763,4.562,4.562,0,0,1,3.668,1.515,6.4,6.4,0,0,1,1.294,4.286v1.053H19.422a3.491,3.491,0,0,0,.961,2.277,2.886,2.886,0,0,0,2.122.838,3.535,3.535,0,0,0,2.922-1.45l1.407,1.343A4.7,4.7,0,0,1,24.97-.36,5.835,5.835,0,0,1,22.354.215Zm-.312-9.958a2.2,2.2,0,0,0-1.735.752A3.9,3.9,0,0,0,19.465-6.9h4.974V-7.09a3.173,3.173,0,0,0-.7-1.982A2.181,2.181,0,0,0,22.043-9.743Zm13.084.5a6.459,6.459,0,0,0-1.063-.086,2.394,2.394,0,0,0-2.417,1.375V0h-2.61V-11.623h2.492l.064,1.3a2.941,2.941,0,0,1,2.621-1.515,2.444,2.444,0,0,1,.924.15Zm8.164,6.08a1.183,1.183,0,0,0-.575-1.063,6.112,6.112,0,0,0-1.907-.645,9.8,9.8,0,0,1-2.224-.709,2.968,2.968,0,0,1-1.955-2.739A3.094,3.094,0,0,1,37.9-10.828a5.011,5.011,0,0,1,3.223-1.01,5.214,5.214,0,0,1,3.368,1.031,3.272,3.272,0,0,1,1.284,2.675h-2.61A1.609,1.609,0,0,0,42.6-9.383a2.141,2.141,0,0,0-1.482-.5,2.313,2.313,0,0,0-1.4.4,1.253,1.253,0,0,0-.542,1.063,1.058,1.058,0,0,0,.5.935,6.943,6.943,0,0,0,2.041.671,9.662,9.662,0,0,1,2.412.806,3.415,3.415,0,0,1,1.3,1.123,2.863,2.863,0,0,1,.424,1.59,3.028,3.028,0,0,1-1.3,2.541,5.542,5.542,0,0,1-3.405.972A6.01,6.01,0,0,1,38.607-.3a4.19,4.19,0,0,1-1.74-1.418,3.356,3.356,0,0,1-.623-1.944h2.535a1.839,1.839,0,0,0,.7,1.423,2.713,2.713,0,0,0,1.708.5,2.64,2.64,0,0,0,1.568-.392A1.214,1.214,0,0,0,43.291-3.158Z" transform="translate(1203 1468)"/><path d="M12.757,11.823H9.751V17h-1.7V4.2h4.236a5.014,5.014,0,0,1,3.327.984,3.542,3.542,0,0,1,1.165,2.865,3.445,3.445,0,0,1-.646,2.083,3.856,3.856,0,0,1-1.8,1.327l3.006,5.432V17H15.535Zm-3.006-1.38h2.593a2.924,2.924,0,0,0,2-.652,2.2,2.2,0,0,0,.743-1.743,2.32,2.32,0,0,0-.708-1.823,3,3,0,0,0-2.043-.643H9.751Zm13.087,6.732a4.155,4.155,0,0,1-3.146-1.27,4.714,4.714,0,0,1-1.213-3.4v-.3a5.707,5.707,0,0,1,.541-2.527,4.217,4.217,0,0,1,1.512-1.74,3.8,3.8,0,0,1,2.1-.628,3.562,3.562,0,0,1,2.883,1.222,5.289,5.289,0,0,1,1.028,3.5v.677H20.1a3.38,3.38,0,0,0,.822,2.272,2.583,2.583,0,0,0,2,.866,2.832,2.832,0,0,0,1.459-.352,3.666,3.666,0,0,0,1.046-.932l.993.773A3.993,3.993,0,0,1,22.838,17.176Zm-.2-8.525a2.169,2.169,0,0,0-1.652.716,3.482,3.482,0,0,0-.826,2.008h4.764v-.123a3.1,3.1,0,0,0-.668-1.92A2.042,2.042,0,0,0,22.636,8.65Zm5.4,3.516a5.571,5.571,0,0,1,1.037-3.52,3.529,3.529,0,0,1,5.361-.189V3.5h1.626V17H34.563l-.079-1.02a3.311,3.311,0,0,1-2.716,1.2,3.248,3.248,0,0,1-2.694-1.354,5.634,5.634,0,0,1-1.042-3.533Zm1.626.185a4.218,4.218,0,0,0,.668,2.531,2.159,2.159,0,0,0,1.846.914,2.372,2.372,0,0,0,2.259-1.389V10.039A2.39,2.39,0,0,0,32.19,8.694a2.17,2.17,0,0,0-1.863.923A4.644,4.644,0,0,0,29.659,12.351ZM44.451,16.06a3.454,3.454,0,0,1-2.786,1.116,2.956,2.956,0,0,1-2.316-.883,3.823,3.823,0,0,1-.8-2.615V7.49H40.17v6.144q0,2.162,1.758,2.162a2.434,2.434,0,0,0,2.479-1.389V7.49h1.626V17H44.486Zm7.866-.211a2.342,2.342,0,0,0,1.521-.527A1.855,1.855,0,0,0,54.558,14H56.1a2.949,2.949,0,0,1-.562,1.556,3.7,3.7,0,0,1-1.384,1.178,3.994,3.994,0,0,1-1.833.439,3.918,3.918,0,0,1-3.089-1.3,5.163,5.163,0,0,1-1.147-3.546v-.272a5.725,5.725,0,0,1,.51-2.47,3.883,3.883,0,0,1,1.463-1.679,4.157,4.157,0,0,1,2.254-.6,3.814,3.814,0,0,1,2.659.958A3.424,3.424,0,0,1,56.1,10.76H54.558a2.241,2.241,0,0,0-.7-1.516,2.174,2.174,0,0,0-1.551-.593,2.276,2.276,0,0,0-1.92.892,4.19,4.19,0,0,0-.681,2.58v.308a4.106,4.106,0,0,0,.677,2.531A2.287,2.287,0,0,0,52.317,15.849Zm9.554,1.327a4.155,4.155,0,0,1-3.146-1.27,4.714,4.714,0,0,1-1.213-3.4v-.3a5.707,5.707,0,0,1,.541-2.527,4.217,4.217,0,0,1,1.512-1.74,3.8,3.8,0,0,1,2.1-.628,3.562,3.562,0,0,1,2.883,1.222,5.289,5.289,0,0,1,1.028,3.5v.677H59.137a3.38,3.38,0,0,0,.822,2.272,2.583,2.583,0,0,0,2,.866,2.832,2.832,0,0,0,1.459-.352,3.666,3.666,0,0,0,1.046-.932l.993.773A3.993,3.993,0,0,1,61.871,17.176Zm-.2-8.525a2.169,2.169,0,0,0-1.652.716,3.482,3.482,0,0,0-.826,2.008h4.764v-.123a3.1,3.1,0,0,0-.668-1.92A2.042,2.042,0,0,0,61.668,8.65Zm14.063,7.2a2.342,2.342,0,0,0,1.521-.527A1.855,1.855,0,0,0,77.972,14H79.51a2.949,2.949,0,0,1-.562,1.556,3.7,3.7,0,0,1-1.384,1.178,3.994,3.994,0,0,1-1.833.439,3.918,3.918,0,0,1-3.089-1.3,5.163,5.163,0,0,1-1.147-3.546v-.272A5.725,5.725,0,0,1,72,9.591a3.883,3.883,0,0,1,1.463-1.679,4.157,4.157,0,0,1,2.254-.6,3.814,3.814,0,0,1,2.659.958A3.424,3.424,0,0,1,79.51,10.76H77.972a2.241,2.241,0,0,0-.7-1.516,2.174,2.174,0,0,0-1.551-.593,2.276,2.276,0,0,0-1.92.892,4.19,4.19,0,0,0-.681,2.58v.308a4.106,4.106,0,0,0,.677,2.531A2.287,2.287,0,0,0,75.731,15.849ZM87.209,17a3.416,3.416,0,0,1-.229-1,3.628,3.628,0,0,1-2.707,1.178,3.357,3.357,0,0,1-2.307-.8,2.573,2.573,0,0,1-.9-2.017A2.688,2.688,0,0,1,82.2,12.056a5.325,5.325,0,0,1,3.177-.822h1.582v-.747a1.826,1.826,0,0,0-.51-1.358,2.049,2.049,0,0,0-1.5-.505,2.371,2.371,0,0,0-1.459.439,1.3,1.3,0,0,0-.589,1.063H81.259a2.244,2.244,0,0,1,.505-1.375A3.449,3.449,0,0,1,83.136,7.7a4.613,4.613,0,0,1,1.9-.387,3.759,3.759,0,0,1,2.575.822,2.964,2.964,0,0,1,.967,2.263v4.377a5.351,5.351,0,0,0,.334,2.083V17Zm-2.7-1.239a2.858,2.858,0,0,0,1.45-.4,2.392,2.392,0,0,0,.993-1.028V12.386H85.68q-2.988,0-2.988,1.749a1.48,1.48,0,0,0,.51,1.2A1.959,1.959,0,0,0,84.511,15.761ZM95.726,8.949a4.873,4.873,0,0,0-.8-.062,2.143,2.143,0,0,0-2.171,1.362V17H91.129V7.49h1.582l.026,1.1a2.532,2.532,0,0,1,2.268-1.274,1.661,1.661,0,0,1,.721.123ZM101,17.176a4.155,4.155,0,0,1-3.146-1.27,4.714,4.714,0,0,1-1.213-3.4v-.3a5.707,5.707,0,0,1,.541-2.527,4.217,4.217,0,0,1,1.512-1.74,3.8,3.8,0,0,1,2.1-.628,3.562,3.562,0,0,1,2.883,1.222,5.289,5.289,0,0,1,1.028,3.5v.677H98.266a3.38,3.38,0,0,0,.822,2.272,2.583,2.583,0,0,0,2,.866,2.832,2.832,0,0,0,1.459-.352,3.666,3.666,0,0,0,1.046-.932l.993.773A3.993,3.993,0,0,1,101,17.176Zm-.2-8.525a2.169,2.169,0,0,0-1.652.716,3.482,3.482,0,0,0-.826,2.008h4.764v-.123a3.1,3.1,0,0,0-.668-1.92A2.042,2.042,0,0,0,100.8,8.65Zm13.386,6.144,2.355-7.3H118.2L114.79,17H113.55L110.1,7.49h1.661ZM125.5,17a3.416,3.416,0,0,1-.229-1,3.628,3.628,0,0,1-2.707,1.178,3.357,3.357,0,0,1-2.307-.8,2.573,2.573,0,0,1-.9-2.017,2.688,2.688,0,0,1,1.129-2.307,5.325,5.325,0,0,1,3.177-.822h1.582v-.747a1.826,1.826,0,0,0-.51-1.358,2.049,2.049,0,0,0-1.5-.505,2.371,2.371,0,0,0-1.459.439,1.3,1.3,0,0,0-.589,1.063h-1.635a2.244,2.244,0,0,1,.505-1.375A3.449,3.449,0,0,1,121.43,7.7a4.613,4.613,0,0,1,1.9-.387,3.759,3.759,0,0,1,2.575.822,2.964,2.964,0,0,1,.967,2.263v4.377a5.351,5.351,0,0,0,.334,2.083V17Zm-2.7-1.239a2.858,2.858,0,0,0,1.45-.4,2.392,2.392,0,0,0,.993-1.028V12.386h-1.274q-2.988,0-2.988,1.749a1.48,1.48,0,0,0,.51,1.2A1.959,1.959,0,0,0,122.805,15.761ZM134.02,8.949a4.873,4.873,0,0,0-.8-.062,2.143,2.143,0,0,0-2.171,1.362V17h-1.626V7.49h1.582l.026,1.1A2.532,2.532,0,0,1,133.3,7.314a1.661,1.661,0,0,1,.721.123ZM137.281,17h-1.626V7.49h1.626ZM135.523,4.968a.971.971,0,0,1,.242-.668.907.907,0,0,1,.716-.272.922.922,0,0,1,.721.272.96.96,0,0,1,.246.668.929.929,0,0,1-.246.659.938.938,0,0,1-.721.264.924.924,0,0,1-.716-.264A.938.938,0,0,1,135.523,4.968ZM145.753,17a3.416,3.416,0,0,1-.229-1,3.628,3.628,0,0,1-2.707,1.178,3.357,3.357,0,0,1-2.307-.8,2.573,2.573,0,0,1-.9-2.017,2.688,2.688,0,0,1,1.129-2.307,5.325,5.325,0,0,1,3.177-.822H145.5v-.747a1.826,1.826,0,0,0-.51-1.358,2.049,2.049,0,0,0-1.5-.505,2.371,2.371,0,0,0-1.459.439,1.3,1.3,0,0,0-.589,1.063H139.8a2.244,2.244,0,0,1,.505-1.375A3.449,3.449,0,0,1,141.68,7.7a4.613,4.613,0,0,1,1.9-.387,3.759,3.759,0,0,1,2.575.822,2.964,2.964,0,0,1,.967,2.263v4.377a5.351,5.351,0,0,0,.334,2.083V17Zm-2.7-1.239a2.858,2.858,0,0,0,1.45-.4,2.392,2.392,0,0,0,.993-1.028V12.386h-1.274q-2.988,0-2.988,1.749a1.48,1.48,0,0,0,.51,1.2A1.959,1.959,0,0,0,143.055,15.761Zm8.824-10.573v2.3h1.775V8.747h-1.775v5.9a1.32,1.32,0,0,0,.237.858,1,1,0,0,0,.809.286,3.937,3.937,0,0,0,.773-.105V17a4.742,4.742,0,0,1-1.248.175,2.025,2.025,0,0,1-1.644-.659,2.832,2.832,0,0,1-.554-1.872v-5.9h-1.731V7.49h1.731v-2.3ZM157.32,17h-1.626V7.49h1.626ZM155.562,4.968A.971.971,0,0,1,155.8,4.3a.907.907,0,0,1,.716-.272.922.922,0,0,1,.721.272.96.96,0,0,1,.246.668.929.929,0,0,1-.246.659.938.938,0,0,1-.721.264.924.924,0,0,1-.716-.264A.938.938,0,0,1,155.562,4.968Zm3.929,7.189a5.617,5.617,0,0,1,.549-2.514,4.1,4.1,0,0,1,1.529-1.723,4.163,4.163,0,0,1,2.237-.606,4.01,4.01,0,0,1,3.142,1.345,5.174,5.174,0,0,1,1.2,3.577v.114a5.666,5.666,0,0,1-.532,2.492,4.038,4.038,0,0,1-1.521,1.718,4.211,4.211,0,0,1-2.272.615,4,4,0,0,1-3.133-1.345,5.147,5.147,0,0,1-1.2-3.56Zm1.635.193a4.068,4.068,0,0,0,.734,2.54,2.487,2.487,0,0,0,3.933-.013,4.449,4.449,0,0,0,.729-2.72,4.061,4.061,0,0,0-.743-2.536,2.361,2.361,0,0,0-1.973-.971,2.335,2.335,0,0,0-1.942.958A4.416,4.416,0,0,0,161.125,12.351Zm10.6-4.86.053,1.2a3.465,3.465,0,0,1,2.848-1.371q3.015,0,3.041,3.4V17h-1.626V10.707a2.189,2.189,0,0,0-.47-1.521,1.884,1.884,0,0,0-1.437-.492,2.347,2.347,0,0,0-1.389.422,2.865,2.865,0,0,0-.932,1.107V17h-1.626V7.49Zm8.341,12.059-.923-.633A4.241,4.241,0,0,0,180,16.543V15.075H181.6V16.35a4,4,0,0,1-.435,1.775A4.156,4.156,0,0,1,180.066,19.549ZM14.832,46H13.144V33.2h1.688Zm4.359-9.51.044,1.055a3.512,3.512,0,0,1,2.821-1.23,2.719,2.719,0,0,1,2.716,1.529,3.6,3.6,0,0,1,1.235-1.107,3.647,3.647,0,0,1,1.8-.422q3.129,0,3.182,3.313V46H29.36V39.725a2.184,2.184,0,0,0-.466-1.525,2.051,2.051,0,0,0-1.564-.505,2.156,2.156,0,0,0-1.5.541,2.193,2.193,0,0,0-.694,1.455V46H23.5V39.769a1.814,1.814,0,0,0-2.03-2.074,2.175,2.175,0,0,0-2.188,1.362V46H17.653V36.49Zm22.28,4.86a5.694,5.694,0,0,1-.993,3.5,3.183,3.183,0,0,1-2.689,1.327,3.488,3.488,0,0,1-2.725-1.1v4.579H33.438V36.49h1.485L35,37.545a3.35,3.35,0,0,1,2.76-1.23,3.243,3.243,0,0,1,2.711,1.292,5.756,5.756,0,0,1,1,3.595Zm-1.626-.185a4.2,4.2,0,0,0-.686-2.54,2.208,2.208,0,0,0-1.881-.932A2.39,2.39,0,0,0,35.064,39v4.544a2.4,2.4,0,0,0,2.232,1.3,2.2,2.2,0,0,0,1.859-.927A4.587,4.587,0,0,0,39.845,41.166Zm8.288-3.217a4.873,4.873,0,0,0-.8-.062,2.143,2.143,0,0,0-2.171,1.362V46H43.537V36.49h1.582l.026,1.1a2.532,2.532,0,0,1,2.268-1.274,1.661,1.661,0,0,1,.721.123Zm.888,3.208a5.617,5.617,0,0,1,.549-2.514A4.1,4.1,0,0,1,51.1,36.921a4.163,4.163,0,0,1,2.237-.606,4.01,4.01,0,0,1,3.142,1.345,5.174,5.174,0,0,1,1.2,3.577v.114a5.666,5.666,0,0,1-.532,2.492,4.038,4.038,0,0,1-1.521,1.718,4.211,4.211,0,0,1-2.272.615,4,4,0,0,1-3.133-1.345,5.147,5.147,0,0,1-1.2-3.56Zm1.635.193a4.068,4.068,0,0,0,.734,2.54,2.487,2.487,0,0,0,3.933-.013,4.449,4.449,0,0,0,.729-2.72,4.061,4.061,0,0,0-.743-2.536,2.361,2.361,0,0,0-1.973-.971,2.335,2.335,0,0,0-1.942.958A4.416,4.416,0,0,0,50.656,41.351Zm12.067,2.443,2.355-7.3H66.74L63.33,46H62.09l-3.445-9.51h1.661Zm9.413,2.382a4.155,4.155,0,0,1-3.146-1.27,4.714,4.714,0,0,1-1.213-3.4v-.3a5.707,5.707,0,0,1,.541-2.527,4.217,4.217,0,0,1,1.512-1.74,3.8,3.8,0,0,1,2.1-.628,3.562,3.562,0,0,1,2.883,1.222,5.289,5.289,0,0,1,1.028,3.5v.677H69.4a3.38,3.38,0,0,0,.822,2.272,2.583,2.583,0,0,0,2,.866,2.832,2.832,0,0,0,1.459-.352,3.666,3.666,0,0,0,1.046-.932l.993.773A3.993,3.993,0,0,1,72.136,46.176Zm-.2-8.525a2.169,2.169,0,0,0-1.652.716,3.482,3.482,0,0,0-.826,2.008h4.764v-.123a3.1,3.1,0,0,0-.668-1.92A2.042,2.042,0,0,0,71.934,37.65ZM86,44.849a2.342,2.342,0,0,0,1.521-.527A1.855,1.855,0,0,0,88.238,43h1.538a2.949,2.949,0,0,1-.562,1.556,3.7,3.7,0,0,1-1.384,1.178A3.994,3.994,0,0,1,86,46.176a3.918,3.918,0,0,1-3.089-1.3,5.163,5.163,0,0,1-1.147-3.546v-.272a5.725,5.725,0,0,1,.51-2.47,3.883,3.883,0,0,1,1.463-1.679,4.157,4.157,0,0,1,2.254-.6,3.814,3.814,0,0,1,2.659.958,3.424,3.424,0,0,1,1.129,2.487H88.238a2.241,2.241,0,0,0-.7-1.516,2.174,2.174,0,0,0-1.551-.593,2.276,2.276,0,0,0-1.92.892,4.19,4.19,0,0,0-.681,2.58v.308a4.106,4.106,0,0,0,.677,2.531A2.287,2.287,0,0,0,86,44.849Zm5.177-3.691a5.617,5.617,0,0,1,.549-2.514,4.1,4.1,0,0,1,1.529-1.723,4.163,4.163,0,0,1,2.237-.606,4.01,4.01,0,0,1,3.142,1.345,5.174,5.174,0,0,1,1.2,3.577v.114a5.666,5.666,0,0,1-.532,2.492,4.038,4.038,0,0,1-1.521,1.718,4.211,4.211,0,0,1-2.272.615,4,4,0,0,1-3.133-1.345,5.147,5.147,0,0,1-1.2-3.56Zm1.635.193a4.068,4.068,0,0,0,.734,2.54,2.487,2.487,0,0,0,3.933-.013,4.449,4.449,0,0,0,.729-2.72,4.061,4.061,0,0,0-.743-2.536,2.361,2.361,0,0,0-1.973-.971,2.335,2.335,0,0,0-1.942.958A4.416,4.416,0,0,0,92.808,41.351ZM103.4,36.49l.044,1.055a3.512,3.512,0,0,1,2.821-1.23,2.719,2.719,0,0,1,2.716,1.529,3.6,3.6,0,0,1,1.235-1.107,3.647,3.647,0,0,1,1.8-.422q3.129,0,3.182,3.313V46h-1.626V39.725A2.184,2.184,0,0,0,113.1,38.2a2.051,2.051,0,0,0-1.564-.505,2.156,2.156,0,0,0-1.5.541,2.193,2.193,0,0,0-.694,1.455V46h-1.635V39.769a1.814,1.814,0,0,0-2.03-2.074,2.175,2.175,0,0,0-2.188,1.362V46h-1.626V36.49Zm22.28,4.86a5.694,5.694,0,0,1-.993,3.5A3.183,3.183,0,0,1,122,46.176a3.488,3.488,0,0,1-2.725-1.1v4.579h-1.626V36.49h1.485l.079,1.055a3.35,3.35,0,0,1,2.76-1.23,3.243,3.243,0,0,1,2.711,1.292,5.756,5.756,0,0,1,1,3.595Zm-1.626-.185a4.2,4.2,0,0,0-.686-2.54,2.208,2.208,0,0,0-1.881-.932A2.39,2.39,0,0,0,119.272,39v4.544a2.4,2.4,0,0,0,2.232,1.3,2.2,2.2,0,0,0,1.859-.927A4.587,4.587,0,0,0,124.053,41.166ZM129.511,46h-1.626V32.5h1.626Zm4.368,0h-1.626V36.49h1.626Zm-1.758-12.032a.971.971,0,0,1,.242-.668.907.907,0,0,1,.716-.272.922.922,0,0,1,.721.272.96.96,0,0,1,.246.668.929.929,0,0,1-.246.659.938.938,0,0,1-.721.264.924.924,0,0,1-.716-.264A.938.938,0,0,1,132.122,33.968ZM142.352,46a3.416,3.416,0,0,1-.229-1,3.628,3.628,0,0,1-2.707,1.178,3.357,3.357,0,0,1-2.307-.8,2.573,2.573,0,0,1-.9-2.017,2.688,2.688,0,0,1,1.129-2.307,5.325,5.325,0,0,1,3.177-.822H142.1v-.747a1.826,1.826,0,0,0-.51-1.358,2.049,2.049,0,0,0-1.5-.505,2.371,2.371,0,0,0-1.459.439,1.3,1.3,0,0,0-.589,1.063H136.4a2.244,2.244,0,0,1,.505-1.375,3.449,3.449,0,0,1,1.371-1.05,4.613,4.613,0,0,1,1.9-.387,3.759,3.759,0,0,1,2.575.822,2.964,2.964,0,0,1,.967,2.263v4.377a5.351,5.351,0,0,0,.334,2.083V46Zm-2.7-1.239a2.858,2.858,0,0,0,1.45-.4,2.392,2.392,0,0,0,.993-1.028V41.386h-1.274q-2.988,0-2.988,1.749a1.48,1.48,0,0,0,.51,1.2A1.959,1.959,0,0,0,139.654,44.761Zm8.156-8.271.053,1.2a3.465,3.465,0,0,1,2.848-1.371q3.015,0,3.041,3.4V46h-1.626V39.707a2.189,2.189,0,0,0-.47-1.521,1.884,1.884,0,0,0-1.437-.492,2.347,2.347,0,0,0-1.389.422,2.865,2.865,0,0,0-.932,1.107V46h-1.626V36.49Zm12.208,8.358a2.342,2.342,0,0,0,1.521-.527A1.855,1.855,0,0,0,162.259,43H163.8a2.949,2.949,0,0,1-.562,1.556,3.7,3.7,0,0,1-1.384,1.178,3.994,3.994,0,0,1-1.833.439,3.918,3.918,0,0,1-3.089-1.3,5.163,5.163,0,0,1-1.147-3.546v-.272a5.725,5.725,0,0,1,.51-2.47,3.883,3.883,0,0,1,1.463-1.679,4.157,4.157,0,0,1,2.254-.6,3.814,3.814,0,0,1,2.659.958A3.424,3.424,0,0,1,163.8,39.76h-1.538a2.241,2.241,0,0,0-.7-1.516,2.174,2.174,0,0,0-1.551-.593,2.276,2.276,0,0,0-1.92.892,4.19,4.19,0,0,0-.681,2.58v.308a4.106,4.106,0,0,0,.677,2.531A2.287,2.287,0,0,0,160.018,44.849Zm9.554,1.327a4.155,4.155,0,0,1-3.146-1.27,4.714,4.714,0,0,1-1.213-3.4v-.3a5.707,5.707,0,0,1,.541-2.527,4.217,4.217,0,0,1,1.512-1.74,3.8,3.8,0,0,1,2.1-.628,3.562,3.562,0,0,1,2.883,1.222,5.289,5.289,0,0,1,1.028,3.5v.677h-6.442a3.38,3.38,0,0,0,.822,2.272,2.583,2.583,0,0,0,2,.866,2.832,2.832,0,0,0,1.459-.352,3.666,3.666,0,0,0,1.046-.932l.993.773A3.993,3.993,0,0,1,169.572,46.176Zm-.2-8.525a2.169,2.169,0,0,0-1.652.716,3.482,3.482,0,0,0-.826,2.008h4.764v-.123a3.1,3.1,0,0,0-.668-1.92A2.042,2.042,0,0,0,169.37,37.65Zm5.739,10.9-.923-.633a4.241,4.241,0,0,0,.861-2.373V44.075h1.591V45.35a4,4,0,0,1-.435,1.775A4.156,4.156,0,0,1,175.109,48.549ZM33.728,69.015A7.916,7.916,0,0,1,33.1,72.3a4.793,4.793,0,0,1-1.793,2.14,4.948,4.948,0,0,1-7.2-2.123,7.6,7.6,0,0,1-.664-3.186v-.923a7.822,7.822,0,0,1,.642-3.261,4.745,4.745,0,0,1,4.5-2.918,4.961,4.961,0,0,1,2.711.743A4.784,4.784,0,0,1,33.1,64.923a7.955,7.955,0,0,1,.633,3.283Zm-1.679-.826a5.738,5.738,0,0,0-.914-3.494,3.015,3.015,0,0,0-2.558-1.217,2.982,2.982,0,0,0-2.518,1.217,5.62,5.62,0,0,0-.945,3.379v.94a5.746,5.746,0,0,0,.927,3.467,3.249,3.249,0,0,0,5.084.07,5.714,5.714,0,0,0,.923-3.415Zm11.988,2.162a5.694,5.694,0,0,1-.993,3.5,3.183,3.183,0,0,1-2.689,1.327,3.488,3.488,0,0,1-2.725-1.1v4.579H36V65.49H37.49l.079,1.055a3.35,3.35,0,0,1,2.76-1.23,3.243,3.243,0,0,1,2.711,1.292,5.756,5.756,0,0,1,1,3.595Zm-1.626-.185a4.2,4.2,0,0,0-.686-2.54,2.208,2.208,0,0,0-1.881-.932A2.39,2.39,0,0,0,37.63,68v4.544a2.4,2.4,0,0,0,2.232,1.3,2.2,2.2,0,0,0,1.859-.927A4.587,4.587,0,0,0,42.412,70.166Zm5.9-6.979v2.3h1.775v1.257H48.309v5.9a1.32,1.32,0,0,0,.237.858,1,1,0,0,0,.809.286,3.937,3.937,0,0,0,.773-.105V75a4.742,4.742,0,0,1-1.248.175,2.025,2.025,0,0,1-1.644-.659,2.832,2.832,0,0,1-.554-1.872v-5.9H44.952V65.49h1.731v-2.3ZM53.75,75H52.124V65.49H53.75ZM51.992,62.968a.971.971,0,0,1,.242-.668.907.907,0,0,1,.716-.272.922.922,0,0,1,.721.272.96.96,0,0,1,.246.668.929.929,0,0,1-.246.659.938.938,0,0,1-.721.264.924.924,0,0,1-.716-.264A.938.938,0,0,1,51.992,62.968ZM57.88,65.49l.044,1.055a3.512,3.512,0,0,1,2.821-1.23,2.719,2.719,0,0,1,2.716,1.529A3.6,3.6,0,0,1,64.7,65.736a3.647,3.647,0,0,1,1.8-.422q3.129,0,3.182,3.313V75H68.049V68.725a2.184,2.184,0,0,0-.466-1.525,2.051,2.051,0,0,0-1.564-.505,2.156,2.156,0,0,0-1.5.541,2.193,2.193,0,0,0-.694,1.455V75H62.187V68.769a1.814,1.814,0,0,0-2.03-2.074,2.175,2.175,0,0,0-2.188,1.362V75H56.342V65.49ZM73.894,75H72.268V65.49h1.626ZM72.136,62.968a.971.971,0,0,1,.242-.668.907.907,0,0,1,.716-.272.922.922,0,0,1,.721.272.96.96,0,0,1,.246.668.929.929,0,0,1-.246.659.938.938,0,0,1-.721.264.924.924,0,0,1-.716-.264A.938.938,0,0,1,72.136,62.968Zm5.889,10.705h5.563V75h-7.55V73.8l5.247-6.97H76.118V65.49h7.207v1.151Zm11.2,1.5a4.155,4.155,0,0,1-3.146-1.27,4.714,4.714,0,0,1-1.213-3.4v-.3a5.707,5.707,0,0,1,.541-2.527,4.217,4.217,0,0,1,1.512-1.74,3.8,3.8,0,0,1,2.1-.628A3.562,3.562,0,0,1,91.9,66.536a5.289,5.289,0,0,1,1.028,3.5v.677H86.489a3.38,3.38,0,0,0,.822,2.272,2.583,2.583,0,0,0,2,.866,2.832,2.832,0,0,0,1.459-.352,3.666,3.666,0,0,0,1.046-.932l.993.773A3.993,3.993,0,0,1,89.222,75.176Zm-.2-8.525a2.169,2.169,0,0,0-1.652.716,3.482,3.482,0,0,0-.826,2.008h4.764v-.123a3.1,3.1,0,0,0-.668-1.92A2.042,2.042,0,0,0,89.02,66.65Zm15.785,5.827a1.2,1.2,0,0,0-.5-1.024,4.78,4.78,0,0,0-1.731-.628,8.186,8.186,0,0,1-1.96-.633,2.788,2.788,0,0,1-1.072-.879A2.1,2.1,0,0,1,99.2,68.1a2.467,2.467,0,0,1,.989-1.978,3.861,3.861,0,0,1,2.527-.809,3.974,3.974,0,0,1,2.624.835,2.652,2.652,0,0,1,1.006,2.136h-1.635a1.468,1.468,0,0,0-.567-1.151,2.124,2.124,0,0,0-1.428-.483,2.223,2.223,0,0,0-1.389.387,1.217,1.217,0,0,0-.5,1.011.986.986,0,0,0,.466.888,5.731,5.731,0,0,0,1.683.571,8.77,8.77,0,0,1,1.973.65,2.878,2.878,0,0,1,1.121.91,2.237,2.237,0,0,1,.365,1.3,2.434,2.434,0,0,1-1.02,2.043,4.277,4.277,0,0,1-2.646.769,4.789,4.789,0,0,1-2.021-.4,3.288,3.288,0,0,1-1.375-1.129,2.722,2.722,0,0,1-.5-1.569H100.5a1.683,1.683,0,0,0,.655,1.3,2.54,2.54,0,0,0,1.613.479,2.622,2.622,0,0,0,1.481-.374A1.148,1.148,0,0,0,104.805,72.478Zm7.69,2.7a4.155,4.155,0,0,1-3.146-1.27,4.714,4.714,0,0,1-1.213-3.4v-.3a5.707,5.707,0,0,1,.541-2.527,4.217,4.217,0,0,1,1.512-1.74,3.8,3.8,0,0,1,2.1-.628,3.562,3.562,0,0,1,2.883,1.222,5.289,5.289,0,0,1,1.028,3.5v.677h-6.442a3.38,3.38,0,0,0,.822,2.272,2.583,2.583,0,0,0,2,.866,2.832,2.832,0,0,0,1.459-.352,3.666,3.666,0,0,0,1.046-.932l.993.773A3.993,3.993,0,0,1,112.5,75.176Zm-.2-8.525a2.169,2.169,0,0,0-1.652.716,3.482,3.482,0,0,0-.826,2.008h4.764v-.123a3.1,3.1,0,0,0-.668-1.92A2.042,2.042,0,0,0,112.293,66.65ZM119.852,75h-1.626V61.5h1.626Zm3.4,0V66.747h-1.5V65.49h1.5v-.976a3.238,3.238,0,0,1,.817-2.364,3.088,3.088,0,0,1,2.312-.835,4.293,4.293,0,0,1,1.116.148l-.088,1.311a4.67,4.67,0,0,0-.879-.079,1.586,1.586,0,0,0-1.222.463,1.877,1.877,0,0,0-.431,1.327V65.49h2.03v1.257h-2.03V75Zm13.72-1.151a2.342,2.342,0,0,0,1.521-.527A1.855,1.855,0,0,0,139.214,72h1.538a2.949,2.949,0,0,1-.562,1.556,3.7,3.7,0,0,1-1.384,1.178,3.994,3.994,0,0,1-1.833.439,3.918,3.918,0,0,1-3.089-1.3,5.163,5.163,0,0,1-1.147-3.546v-.272a5.725,5.725,0,0,1,.51-2.47,3.883,3.883,0,0,1,1.463-1.679,4.157,4.157,0,0,1,2.254-.6,3.814,3.814,0,0,1,2.659.958,3.424,3.424,0,0,1,1.129,2.487h-1.538a2.241,2.241,0,0,0-.7-1.516,2.174,2.174,0,0,0-1.551-.593,2.276,2.276,0,0,0-1.92.892,4.19,4.19,0,0,0-.681,2.58v.308a4.106,4.106,0,0,0,.677,2.531A2.287,2.287,0,0,0,136.973,73.849ZM148.452,75a3.416,3.416,0,0,1-.229-1,3.628,3.628,0,0,1-2.707,1.178,3.357,3.357,0,0,1-2.307-.8,2.573,2.573,0,0,1-.9-2.017,2.688,2.688,0,0,1,1.129-2.307,5.325,5.325,0,0,1,3.177-.822H148.2v-.747a1.826,1.826,0,0,0-.51-1.358,2.049,2.049,0,0,0-1.5-.505,2.371,2.371,0,0,0-1.459.439,1.3,1.3,0,0,0-.589,1.063H142.5a2.244,2.244,0,0,1,.505-1.375,3.449,3.449,0,0,1,1.371-1.05,4.613,4.613,0,0,1,1.9-.387,3.759,3.759,0,0,1,2.575.822,2.964,2.964,0,0,1,.967,2.263v4.377a5.351,5.351,0,0,0,.334,2.083V75Zm-2.7-1.239a2.858,2.858,0,0,0,1.45-.4,2.392,2.392,0,0,0,.993-1.028V70.386h-1.274q-2.988,0-2.988,1.749a1.48,1.48,0,0,0,.51,1.2A1.959,1.959,0,0,0,145.753,73.761Zm11.215-6.812a4.873,4.873,0,0,0-.8-.062A2.143,2.143,0,0,0,154,68.25V75h-1.626V65.49h1.582l.026,1.1a2.532,2.532,0,0,1,2.268-1.274,1.661,1.661,0,0,1,.721.123Zm5.273,8.227a4.155,4.155,0,0,1-3.146-1.27,4.714,4.714,0,0,1-1.213-3.4v-.3a5.707,5.707,0,0,1,.541-2.527,4.217,4.217,0,0,1,1.512-1.74,3.8,3.8,0,0,1,2.1-.628,3.562,3.562,0,0,1,2.883,1.222,5.289,5.289,0,0,1,1.028,3.5v.677h-6.442a3.38,3.38,0,0,0,.822,2.272,2.583,2.583,0,0,0,2,.866,2.832,2.832,0,0,0,1.459-.352,3.666,3.666,0,0,0,1.046-.932l.993.773A3.993,3.993,0,0,1,162.242,75.176Zm-.2-8.525a2.169,2.169,0,0,0-1.652.716,3.482,3.482,0,0,0-.826,2.008h4.764v-.123a3.1,3.1,0,0,0-.668-1.92A2.042,2.042,0,0,0,162.04,66.65Z" transform="translate(747 1170)"/><path d="M8.459,4.2l4.184,10.441L16.826,4.2h2.188V17H17.327V12.017l.158-5.379L13.284,17H11.992L7.8,6.664l.167,5.353V17H6.279V4.2ZM27.61,17a3.416,3.416,0,0,1-.229-1,3.628,3.628,0,0,1-2.707,1.178,3.357,3.357,0,0,1-2.307-.8,2.573,2.573,0,0,1-.9-2.017A2.688,2.688,0,0,1,22.6,12.056a5.325,5.325,0,0,1,3.177-.822h1.582v-.747a1.826,1.826,0,0,0-.51-1.358,2.049,2.049,0,0,0-1.5-.505,2.371,2.371,0,0,0-1.459.439,1.3,1.3,0,0,0-.589,1.063H21.66a2.244,2.244,0,0,1,.505-1.375A3.449,3.449,0,0,1,23.537,7.7a4.613,4.613,0,0,1,1.9-.387,3.759,3.759,0,0,1,2.575.822,2.964,2.964,0,0,1,.967,2.263v4.377a5.351,5.351,0,0,0,.334,2.083V17Zm-2.7-1.239a2.858,2.858,0,0,0,1.45-.4,2.392,2.392,0,0,0,.993-1.028V12.386H26.081q-2.988,0-2.988,1.749a1.48,1.48,0,0,0,.51,1.2A1.959,1.959,0,0,0,24.912,15.761ZM33.068,7.49l.053,1.2a3.465,3.465,0,0,1,2.848-1.371q3.015,0,3.041,3.4V17H37.384V10.707a2.189,2.189,0,0,0-.47-1.521,1.884,1.884,0,0,0-1.437-.492,2.347,2.347,0,0,0-1.389.422,2.865,2.865,0,0,0-.932,1.107V17H31.53V7.49ZM47.333,17a3.416,3.416,0,0,1-.229-1A3.628,3.628,0,0,1,44.4,17.176a3.357,3.357,0,0,1-2.307-.8,2.573,2.573,0,0,1-.9-2.017,2.688,2.688,0,0,1,1.129-2.307,5.325,5.325,0,0,1,3.177-.822h1.582v-.747a1.826,1.826,0,0,0-.51-1.358,2.049,2.049,0,0,0-1.5-.505,2.371,2.371,0,0,0-1.459.439,1.3,1.3,0,0,0-.589,1.063H41.383a2.244,2.244,0,0,1,.505-1.375A3.449,3.449,0,0,1,43.259,7.7a4.613,4.613,0,0,1,1.9-.387,3.759,3.759,0,0,1,2.575.822A2.964,2.964,0,0,1,48.7,10.4v4.377a5.351,5.351,0,0,0,.334,2.083V17Zm-2.7-1.239a2.858,2.858,0,0,0,1.45-.4,2.392,2.392,0,0,0,.993-1.028V12.386H45.8q-2.988,0-2.988,1.749a1.48,1.48,0,0,0,.51,1.2A1.959,1.959,0,0,0,44.635,15.761Zm6.231-3.595a5.589,5.589,0,0,1,1.028-3.538,3.545,3.545,0,0,1,5.44-.083l.079-1.055H58.9v9.281a3.869,3.869,0,0,1-1.094,2.909,4.038,4.038,0,0,1-2.94,1.063,4.891,4.891,0,0,1-2.013-.439,3.465,3.465,0,0,1-1.5-1.2l.844-.976a3.18,3.18,0,0,0,2.558,1.292,2.491,2.491,0,0,0,1.85-.668,2.553,2.553,0,0,0,.664-1.881v-.817A3.342,3.342,0,0,1,54.6,17.176a3.248,3.248,0,0,1-2.7-1.345A5.876,5.876,0,0,1,50.866,12.166Zm1.635.185a4.264,4.264,0,0,0,.659,2.527,2.142,2.142,0,0,0,1.846.918,2.382,2.382,0,0,0,2.259-1.4V10.057a2.41,2.41,0,0,0-2.241-1.362,2.161,2.161,0,0,0-1.854.923A4.644,4.644,0,0,0,52.5,12.351Zm12.8,4.825a4.155,4.155,0,0,1-3.146-1.27,4.714,4.714,0,0,1-1.213-3.4v-.3a5.707,5.707,0,0,1,.541-2.527,4.217,4.217,0,0,1,1.512-1.74,3.8,3.8,0,0,1,2.1-.628,3.562,3.562,0,0,1,2.883,1.222,5.289,5.289,0,0,1,1.028,3.5v.677H62.564a3.38,3.38,0,0,0,.822,2.272,2.583,2.583,0,0,0,2,.866,2.832,2.832,0,0,0,1.459-.352,3.666,3.666,0,0,0,1.046-.932l.993.773A3.993,3.993,0,0,1,65.3,17.176ZM65.1,8.65a2.169,2.169,0,0,0-1.652.716,3.482,3.482,0,0,0-.826,2.008h4.764v-.123a3.1,3.1,0,0,0-.668-1.92A2.042,2.042,0,0,0,65.1,8.65Zm14.063,7.2a2.342,2.342,0,0,0,1.521-.527A1.855,1.855,0,0,0,81.4,14h1.538a2.949,2.949,0,0,1-.562,1.556,3.7,3.7,0,0,1-1.384,1.178,3.994,3.994,0,0,1-1.833.439,3.918,3.918,0,0,1-3.089-1.3,5.163,5.163,0,0,1-1.147-3.546v-.272a5.725,5.725,0,0,1,.51-2.47A3.883,3.883,0,0,1,76.9,7.912a4.157,4.157,0,0,1,2.254-.6,3.814,3.814,0,0,1,2.659.958,3.424,3.424,0,0,1,1.129,2.487H81.4a2.241,2.241,0,0,0-.7-1.516,2.174,2.174,0,0,0-1.551-.593,2.276,2.276,0,0,0-1.92.892,4.19,4.19,0,0,0-.681,2.58v.308a4.106,4.106,0,0,0,.677,2.531A2.287,2.287,0,0,0,79.158,15.849Zm7.233-7.207A3.457,3.457,0,0,1,89.2,7.314q3.015,0,3.041,3.4V17H90.619V10.707a2.189,2.189,0,0,0-.47-1.521,1.884,1.884,0,0,0-1.437-.492,2.347,2.347,0,0,0-1.389.422,2.865,2.865,0,0,0-.932,1.107V17H84.766V3.5h1.626Zm12.885.308a4.873,4.873,0,0,0-.8-.062,2.143,2.143,0,0,0-2.171,1.362V17H94.68V7.49h1.582l.026,1.1a2.532,2.532,0,0,1,2.268-1.274,1.661,1.661,0,0,1,.721.123Zm.888,3.208a5.617,5.617,0,0,1,.549-2.514,4.1,4.1,0,0,1,1.529-1.723,4.163,4.163,0,0,1,2.237-.606,4.01,4.01,0,0,1,3.142,1.345,5.174,5.174,0,0,1,1.2,3.577v.114a5.666,5.666,0,0,1-.532,2.492,4.038,4.038,0,0,1-1.521,1.718,4.211,4.211,0,0,1-2.272.615,4,4,0,0,1-3.133-1.345,5.147,5.147,0,0,1-1.2-3.56Zm1.635.193a4.068,4.068,0,0,0,.734,2.54,2.487,2.487,0,0,0,3.933-.013,4.449,4.449,0,0,0,.729-2.72,4.061,4.061,0,0,0-.743-2.536,2.361,2.361,0,0,0-1.973-.971,2.335,2.335,0,0,0-1.942.958A4.416,4.416,0,0,0,101.8,12.351Zm10.6-4.86.053,1.2A3.465,3.465,0,0,1,115.3,7.314q3.015,0,3.041,3.4V17h-1.626V10.707a2.189,2.189,0,0,0-.47-1.521,1.884,1.884,0,0,0-1.437-.492,2.347,2.347,0,0,0-1.389.422,2.865,2.865,0,0,0-.932,1.107V17H110.86V7.49ZM122.559,17h-1.626V7.49h1.626ZM120.8,4.968a.971.971,0,0,1,.242-.668.907.907,0,0,1,.716-.272.922.922,0,0,1,.721.272.96.96,0,0,1,.246.668.929.929,0,0,1-.246.659.938.938,0,0,1-.721.264.924.924,0,0,1-.716-.264A.938.938,0,0,1,120.8,4.968Zm8.174,10.881a2.342,2.342,0,0,0,1.521-.527A1.855,1.855,0,0,0,131.216,14h1.538a2.949,2.949,0,0,1-.562,1.556,3.7,3.7,0,0,1-1.384,1.178,3.994,3.994,0,0,1-1.833.439,3.918,3.918,0,0,1-3.089-1.3,5.163,5.163,0,0,1-1.147-3.546v-.272a5.725,5.725,0,0,1,.51-2.47,3.883,3.883,0,0,1,1.463-1.679,4.157,4.157,0,0,1,2.254-.6,3.814,3.814,0,0,1,2.659.958,3.424,3.424,0,0,1,1.129,2.487h-1.538a2.241,2.241,0,0,0-.7-1.516,2.174,2.174,0,0,0-1.551-.593,2.276,2.276,0,0,0-1.92.892,4.19,4.19,0,0,0-.681,2.58v.308a4.106,4.106,0,0,0,.677,2.531A2.287,2.287,0,0,0,128.975,15.849Zm13.878,0a2.342,2.342,0,0,0,1.521-.527A1.855,1.855,0,0,0,145.094,14h1.538a2.949,2.949,0,0,1-.562,1.556,3.7,3.7,0,0,1-1.384,1.178,3.994,3.994,0,0,1-1.833.439,3.918,3.918,0,0,1-3.089-1.3,5.163,5.163,0,0,1-1.147-3.546v-.272a5.725,5.725,0,0,1,.51-2.47,3.883,3.883,0,0,1,1.463-1.679,4.157,4.157,0,0,1,2.254-.6,3.814,3.814,0,0,1,2.659.958,3.424,3.424,0,0,1,1.129,2.487h-1.538a2.241,2.241,0,0,0-.7-1.516,2.174,2.174,0,0,0-1.551-.593,2.276,2.276,0,0,0-1.92.892,4.19,4.19,0,0,0-.681,2.58v.308a4.106,4.106,0,0,0,.677,2.531A2.287,2.287,0,0,0,142.853,15.849Zm5.177-3.691a5.617,5.617,0,0,1,.549-2.514,4.1,4.1,0,0,1,1.529-1.723,4.163,4.163,0,0,1,2.237-.606,4.01,4.01,0,0,1,3.142,1.345,5.174,5.174,0,0,1,1.2,3.577v.114a5.666,5.666,0,0,1-.532,2.492,4.038,4.038,0,0,1-1.521,1.718,4.211,4.211,0,0,1-2.272.615,4,4,0,0,1-3.133-1.345,5.147,5.147,0,0,1-1.2-3.56Zm1.635.193a4.068,4.068,0,0,0,.734,2.54,2.487,2.487,0,0,0,3.933-.013,4.449,4.449,0,0,0,.729-2.72,4.061,4.061,0,0,0-.743-2.536,2.361,2.361,0,0,0-1.973-.971,2.335,2.335,0,0,0-1.942.958A4.416,4.416,0,0,0,149.664,12.351Zm10.6-4.86.053,1.2a3.465,3.465,0,0,1,2.848-1.371q3.015,0,3.041,3.4V17h-1.626V10.707a2.189,2.189,0,0,0-.47-1.521,1.884,1.884,0,0,0-1.437-.492,2.347,2.347,0,0,0-1.389.422,2.865,2.865,0,0,0-.932,1.107V17h-1.626V7.49Zm8,4.676a5.571,5.571,0,0,1,1.037-3.52,3.529,3.529,0,0,1,5.361-.189V3.5h1.626V17h-1.494l-.079-1.02a3.311,3.311,0,0,1-2.716,1.2,3.248,3.248,0,0,1-2.694-1.354,5.634,5.634,0,0,1-1.042-3.533Zm1.626.185a4.218,4.218,0,0,0,.668,2.531,2.159,2.159,0,0,0,1.846.914,2.372,2.372,0,0,0,2.259-1.389V10.039a2.39,2.39,0,0,0-2.241-1.345,2.17,2.17,0,0,0-1.863.923A4.644,4.644,0,0,0,169.888,12.351ZM180.575,17h-1.626V7.49h1.626ZM178.817,4.968a.971.971,0,0,1,.242-.668.907.907,0,0,1,.716-.272.922.922,0,0,1,.721.272.96.96,0,0,1,.246.668.929.929,0,0,1-.246.659.938.938,0,0,1-.721.264.924.924,0,0,1-.716-.264A.938.938,0,0,1,178.817,4.968Zm6.565.22v2.3h1.775V8.747h-1.775v5.9a1.32,1.32,0,0,0,.237.858,1,1,0,0,0,.809.286,3.937,3.937,0,0,0,.773-.105V17a4.742,4.742,0,0,1-1.248.175,2.025,2.025,0,0,1-1.644-.659,2.832,2.832,0,0,1-.554-1.872v-5.9h-1.731V7.49h1.731v-2.3ZM190.823,17H189.2V7.49h1.626ZM189.065,4.968a.971.971,0,0,1,.242-.668.907.907,0,0,1,.716-.272.922.922,0,0,1,.721.272.96.96,0,0,1,.246.668.929.929,0,0,1-.246.659.938.938,0,0,1-.721.264.924.924,0,0,1-.716-.264A.938.938,0,0,1,189.065,4.968Zm3.929,7.189a5.617,5.617,0,0,1,.549-2.514,4.1,4.1,0,0,1,1.529-1.723,4.163,4.163,0,0,1,2.237-.606,4.01,4.01,0,0,1,3.142,1.345,5.174,5.174,0,0,1,1.2,3.577v.114a5.666,5.666,0,0,1-.532,2.492,4.038,4.038,0,0,1-1.521,1.718,4.211,4.211,0,0,1-2.272.615,4,4,0,0,1-3.133-1.345,5.147,5.147,0,0,1-1.2-3.56Zm1.635.193a4.068,4.068,0,0,0,.734,2.54,2.487,2.487,0,0,0,3.933-.013,4.449,4.449,0,0,0,.729-2.72,4.061,4.061,0,0,0-.743-2.536,2.361,2.361,0,0,0-1.973-.971,2.335,2.335,0,0,0-1.942.958A4.416,4.416,0,0,0,194.629,12.351Zm10.6-4.86.053,1.2a3.465,3.465,0,0,1,2.848-1.371q3.015,0,3.041,3.4V17h-1.626V10.707a2.189,2.189,0,0,0-.47-1.521,1.884,1.884,0,0,0-1.437-.492,2.347,2.347,0,0,0-1.389.422,2.865,2.865,0,0,0-.932,1.107V17H203.69V7.49Zm13.931,6.987a1.2,1.2,0,0,0-.5-1.024,4.78,4.78,0,0,0-1.731-.628,8.186,8.186,0,0,1-1.96-.633,2.788,2.788,0,0,1-1.072-.879,2.1,2.1,0,0,1-.347-1.213,2.467,2.467,0,0,1,.989-1.978,3.861,3.861,0,0,1,2.527-.809,3.974,3.974,0,0,1,2.624.835,2.652,2.652,0,0,1,1.006,2.136h-1.635a1.468,1.468,0,0,0-.567-1.151,2.124,2.124,0,0,0-1.428-.483,2.223,2.223,0,0,0-1.389.387,1.217,1.217,0,0,0-.5,1.011.986.986,0,0,0,.466.888,5.731,5.731,0,0,0,1.683.571,8.77,8.77,0,0,1,1.973.65,2.878,2.878,0,0,1,1.121.91,2.237,2.237,0,0,1,.365,1.3,2.434,2.434,0,0,1-1.02,2.043,4.277,4.277,0,0,1-2.646.769,4.789,4.789,0,0,1-2.021-.4,3.288,3.288,0,0,1-1.375-1.129,2.722,2.722,0,0,1-.5-1.569h1.626a1.683,1.683,0,0,0,.655,1.3,2.54,2.54,0,0,0,1.613.479,2.622,2.622,0,0,0,1.481-.374A1.148,1.148,0,0,0,219.159,14.478Zm3.691,5.071-.923-.633a4.241,4.241,0,0,0,.861-2.373V15.075h1.591V16.35a4,4,0,0,1-.435,1.775A4.156,4.156,0,0,1,222.851,19.549ZM47.838,41.351a5.694,5.694,0,0,1-.993,3.5,3.183,3.183,0,0,1-2.689,1.327,3.488,3.488,0,0,1-2.725-1.1v4.579H39.805V36.49h1.485l.079,1.055a3.35,3.35,0,0,1,2.76-1.23,3.243,3.243,0,0,1,2.711,1.292,5.756,5.756,0,0,1,1,3.595Zm-1.626-.185a4.2,4.2,0,0,0-.686-2.54,2.208,2.208,0,0,0-1.881-.932A2.39,2.39,0,0,0,41.431,39v4.544a2.4,2.4,0,0,0,2.232,1.3,2.2,2.2,0,0,0,1.859-.927A4.587,4.587,0,0,0,46.212,41.166ZM54.5,37.949a4.873,4.873,0,0,0-.8-.062A2.143,2.143,0,0,0,51.53,39.25V46H49.9V36.49h1.582l.026,1.1a2.532,2.532,0,0,1,2.268-1.274,1.661,1.661,0,0,1,.721.123Zm5.273,8.227a4.155,4.155,0,0,1-3.146-1.27,4.714,4.714,0,0,1-1.213-3.4v-.3a5.707,5.707,0,0,1,.541-2.527,4.217,4.217,0,0,1,1.512-1.74,3.8,3.8,0,0,1,2.1-.628,3.562,3.562,0,0,1,2.883,1.222,5.289,5.289,0,0,1,1.028,3.5v.677H57.041a3.38,3.38,0,0,0,.822,2.272,2.583,2.583,0,0,0,2,.866,2.832,2.832,0,0,0,1.459-.352,3.666,3.666,0,0,0,1.046-.932l.993.773A3.993,3.993,0,0,1,59.774,46.176Zm-.2-8.525a2.169,2.169,0,0,0-1.652.716,3.482,3.482,0,0,0-.826,2.008h4.764v-.123a3.1,3.1,0,0,0-.668-1.92A2.042,2.042,0,0,0,59.572,37.65Zm8.815,6.144,2.355-7.3H72.4L68.994,46H67.754l-3.445-9.51H65.97ZM77.8,46.176a4.155,4.155,0,0,1-3.146-1.27,4.714,4.714,0,0,1-1.213-3.4v-.3a5.707,5.707,0,0,1,.541-2.527,4.217,4.217,0,0,1,1.512-1.74,3.8,3.8,0,0,1,2.1-.628,3.562,3.562,0,0,1,2.883,1.222,5.289,5.289,0,0,1,1.028,3.5v.677H75.067a3.38,3.38,0,0,0,.822,2.272,2.583,2.583,0,0,0,2,.866,2.832,2.832,0,0,0,1.459-.352,3.666,3.666,0,0,0,1.046-.932l.993.773A3.993,3.993,0,0,1,77.8,46.176Zm-.2-8.525a2.169,2.169,0,0,0-1.652.716,3.482,3.482,0,0,0-.826,2.008h4.764v-.123a3.1,3.1,0,0,0-.668-1.92A2.042,2.042,0,0,0,77.6,37.65Zm7.33-1.16.053,1.2a3.465,3.465,0,0,1,2.848-1.371q3.015,0,3.041,3.4V46H89.244V39.707a2.189,2.189,0,0,0-.47-1.521,1.884,1.884,0,0,0-1.437-.492,2.347,2.347,0,0,0-1.389.422,2.865,2.865,0,0,0-.932,1.107V46H83.39V36.49Zm10.6-2.3v2.3H97.3v1.257H95.528v5.9a1.32,1.32,0,0,0,.237.858,1,1,0,0,0,.809.286,3.937,3.937,0,0,0,.773-.105V46a4.742,4.742,0,0,1-1.248.175,2.025,2.025,0,0,1-1.644-.659,2.832,2.832,0,0,1-.554-1.872v-5.9H92.17V36.49H93.9v-2.3ZM105.424,46H103.8V36.49h1.626Zm-1.758-12.032a.971.971,0,0,1,.242-.668.907.907,0,0,1,.716-.272.922.922,0,0,1,.721.272.96.96,0,0,1,.246.668.929.929,0,0,1-.246.659.938.938,0,0,1-.721.264.924.924,0,0,1-.716-.264A.938.938,0,0,1,103.667,33.968ZM109.792,46h-1.626V32.5h1.626Zm4.368,0h-1.626V32.5h1.626Zm4.14-9.51.053,1.2a3.465,3.465,0,0,1,2.848-1.371q3.015,0,3.041,3.4V46h-1.626V39.707a2.189,2.189,0,0,0-.47-1.521,1.884,1.884,0,0,0-1.437-.492,2.347,2.347,0,0,0-1.389.422,2.865,2.865,0,0,0-.932,1.107V46h-1.626V36.49Zm12.34,9.686a4.155,4.155,0,0,1-3.146-1.27,4.714,4.714,0,0,1-1.213-3.4v-.3a5.707,5.707,0,0,1,.541-2.527,4.217,4.217,0,0,1,1.512-1.74,3.8,3.8,0,0,1,2.1-.628,3.562,3.562,0,0,1,2.883,1.222,5.289,5.289,0,0,1,1.028,3.5v.677h-6.442a3.38,3.38,0,0,0,.822,2.272,2.583,2.583,0,0,0,2,.866,2.832,2.832,0,0,0,1.459-.352,3.666,3.666,0,0,0,1.046-.932l.993.773A3.993,3.993,0,0,1,130.64,46.176Zm-.2-8.525a2.169,2.169,0,0,0-1.652.716,3.482,3.482,0,0,0-.826,2.008h4.764v-.123a3.1,3.1,0,0,0-.668-1.92A2.042,2.042,0,0,0,130.438,37.65Zm11.329,5.827a1.2,1.2,0,0,0-.5-1.024,4.78,4.78,0,0,0-1.731-.628,8.186,8.186,0,0,1-1.96-.633,2.788,2.788,0,0,1-1.072-.879,2.1,2.1,0,0,1-.347-1.213,2.467,2.467,0,0,1,.989-1.978,3.861,3.861,0,0,1,2.527-.809,3.974,3.974,0,0,1,2.624.835,2.652,2.652,0,0,1,1.006,2.136H141.67a1.468,1.468,0,0,0-.567-1.151,2.124,2.124,0,0,0-1.428-.483,2.223,2.223,0,0,0-1.389.387,1.217,1.217,0,0,0-.5,1.011.986.986,0,0,0,.466.888,5.731,5.731,0,0,0,1.683.571,8.77,8.77,0,0,1,1.973.65,2.878,2.878,0,0,1,1.121.91,2.237,2.237,0,0,1,.365,1.3,2.434,2.434,0,0,1-1.02,2.043,4.277,4.277,0,0,1-2.646.769,4.789,4.789,0,0,1-2.021-.4,3.288,3.288,0,0,1-1.375-1.129,2.722,2.722,0,0,1-.5-1.569h1.626a1.683,1.683,0,0,0,.655,1.3,2.54,2.54,0,0,0,1.613.479,2.622,2.622,0,0,0,1.481-.374A1.148,1.148,0,0,0,141.767,43.478Zm9.281,0a1.2,1.2,0,0,0-.5-1.024,4.78,4.78,0,0,0-1.731-.628,8.186,8.186,0,0,1-1.96-.633,2.788,2.788,0,0,1-1.072-.879,2.1,2.1,0,0,1-.347-1.213,2.467,2.467,0,0,1,.989-1.978,3.861,3.861,0,0,1,2.527-.809,3.974,3.974,0,0,1,2.624.835,2.652,2.652,0,0,1,1.006,2.136h-1.635a1.468,1.468,0,0,0-.567-1.151,2.124,2.124,0,0,0-1.428-.483,2.223,2.223,0,0,0-1.389.387,1.217,1.217,0,0,0-.5,1.011.986.986,0,0,0,.466.888,5.731,5.731,0,0,0,1.683.571,8.77,8.77,0,0,1,1.973.65,2.878,2.878,0,0,1,1.121.91,2.237,2.237,0,0,1,.365,1.3,2.434,2.434,0,0,1-1.02,2.043,4.277,4.277,0,0,1-2.646.769,4.789,4.789,0,0,1-2.021-.4,3.288,3.288,0,0,1-1.375-1.129,2.722,2.722,0,0,1-.5-1.569h1.626a1.683,1.683,0,0,0,.655,1.3,2.54,2.54,0,0,0,1.613.479,2.622,2.622,0,0,0,1.481-.374A1.148,1.148,0,0,0,151.048,43.478Zm3.691,5.071-.923-.633a4.241,4.241,0,0,0,.861-2.373V44.075h1.591V45.35a4,4,0,0,1-.435,1.775A4.156,4.156,0,0,1,154.74,48.549ZM168.653,46a3.416,3.416,0,0,1-.229-1,3.628,3.628,0,0,1-2.707,1.178,3.357,3.357,0,0,1-2.307-.8,2.573,2.573,0,0,1-.9-2.017,2.688,2.688,0,0,1,1.129-2.307,5.325,5.325,0,0,1,3.177-.822H168.4v-.747a1.826,1.826,0,0,0-.51-1.358,2.049,2.049,0,0,0-1.5-.505,2.371,2.371,0,0,0-1.459.439,1.3,1.3,0,0,0-.589,1.063H162.7a2.244,2.244,0,0,1,.505-1.375,3.449,3.449,0,0,1,1.371-1.05,4.613,4.613,0,0,1,1.9-.387,3.759,3.759,0,0,1,2.575.822,2.964,2.964,0,0,1,.967,2.263v4.377a5.351,5.351,0,0,0,.334,2.083V46Zm-2.7-1.239a2.858,2.858,0,0,0,1.45-.4,2.392,2.392,0,0,0,.993-1.028V41.386h-1.274q-2.988,0-2.988,1.749a1.48,1.48,0,0,0,.51,1.2A1.959,1.959,0,0,0,165.955,44.761Zm8.156-8.271.053,1.2a3.465,3.465,0,0,1,2.848-1.371q3.015,0,3.041,3.4V46h-1.626V39.707a2.189,2.189,0,0,0-.47-1.521,1.884,1.884,0,0,0-1.437-.492,2.347,2.347,0,0,0-1.389.422,2.865,2.865,0,0,0-.932,1.107V46h-1.626V36.49Zm8,4.676a5.571,5.571,0,0,1,1.037-3.52,3.529,3.529,0,0,1,5.361-.189V32.5h1.626V46h-1.494l-.079-1.02a3.311,3.311,0,0,1-2.716,1.2,3.248,3.248,0,0,1-2.694-1.354,5.634,5.634,0,0,1-1.042-3.533Zm1.626.185a4.218,4.218,0,0,0,.668,2.531,2.159,2.159,0,0,0,1.846.914,2.372,2.372,0,0,0,2.259-1.389V39.039a2.39,2.39,0,0,0-2.241-1.345,2.17,2.17,0,0,0-1.863.923A4.644,4.644,0,0,0,183.735,41.351ZM11.109,75.176a4.155,4.155,0,0,1-3.146-1.27,4.714,4.714,0,0,1-1.213-3.4v-.3a5.707,5.707,0,0,1,.541-2.527A4.217,4.217,0,0,1,8.8,65.943a3.8,3.8,0,0,1,2.1-.628,3.562,3.562,0,0,1,2.883,1.222,5.289,5.289,0,0,1,1.028,3.5v.677H8.375A3.38,3.38,0,0,0,9.2,72.983a2.583,2.583,0,0,0,2,.866,2.832,2.832,0,0,0,1.459-.352,3.666,3.666,0,0,0,1.046-.932l.993.773A3.993,3.993,0,0,1,11.109,75.176Zm-.2-8.525a2.169,2.169,0,0,0-1.652.716,3.482,3.482,0,0,0-.826,2.008h4.764v-.123a3.1,3.1,0,0,0-.668-1.92A2.042,2.042,0,0,0,10.907,66.65Zm7.321-1.16.044,1.055a3.512,3.512,0,0,1,2.821-1.23,2.719,2.719,0,0,1,2.716,1.529,3.6,3.6,0,0,1,1.235-1.107,3.647,3.647,0,0,1,1.8-.422q3.129,0,3.182,3.313V75H28.4V68.725a2.184,2.184,0,0,0-.466-1.525,2.051,2.051,0,0,0-1.564-.505,2.156,2.156,0,0,0-1.5.541,2.193,2.193,0,0,0-.694,1.455V75H22.535V68.769a1.814,1.814,0,0,0-2.03-2.074,2.175,2.175,0,0,0-2.188,1.362V75H16.69V65.49Zm22.28,4.86a5.694,5.694,0,0,1-.993,3.5,3.183,3.183,0,0,1-2.689,1.327,3.488,3.488,0,0,1-2.725-1.1v4.579H32.475V65.49H33.96l.079,1.055a3.35,3.35,0,0,1,2.76-1.23,3.243,3.243,0,0,1,2.711,1.292,5.756,5.756,0,0,1,1,3.595Zm-1.626-.185a4.2,4.2,0,0,0-.686-2.54,2.208,2.208,0,0,0-1.881-.932A2.39,2.39,0,0,0,34.1,68v4.544a2.4,2.4,0,0,0,2.232,1.3,2.2,2.2,0,0,0,1.859-.927A4.587,4.587,0,0,0,38.882,70.166Zm3.261-.009a5.617,5.617,0,0,1,.549-2.514,4.1,4.1,0,0,1,1.529-1.723,4.163,4.163,0,0,1,2.237-.606A4.01,4.01,0,0,1,49.6,66.659a5.174,5.174,0,0,1,1.2,3.577v.114a5.666,5.666,0,0,1-.532,2.492,4.038,4.038,0,0,1-1.521,1.718,4.211,4.211,0,0,1-2.272.615,4,4,0,0,1-3.133-1.345,5.147,5.147,0,0,1-1.2-3.56Zm1.635.193a4.068,4.068,0,0,0,.734,2.54,2.487,2.487,0,0,0,3.933-.013,4.449,4.449,0,0,0,.729-2.72,4.061,4.061,0,0,0-.743-2.536,2.361,2.361,0,0,0-1.973-.971,2.335,2.335,0,0,0-1.942.958A4.416,4.416,0,0,0,43.778,70.351Zm17.481,2.408,1.828-7.269h1.626L61.945,75H60.626l-2.312-7.207L56.065,75H54.747l-2.76-9.51H53.6l1.872,7.119,2.215-7.119H59Zm9.053,2.417a4.155,4.155,0,0,1-3.146-1.27,4.714,4.714,0,0,1-1.213-3.4v-.3a5.707,5.707,0,0,1,.541-2.527A4.217,4.217,0,0,1,68,65.943a3.8,3.8,0,0,1,2.1-.628,3.562,3.562,0,0,1,2.883,1.222,5.289,5.289,0,0,1,1.028,3.5v.677H67.579a3.38,3.38,0,0,0,.822,2.272,2.583,2.583,0,0,0,2,.866,2.832,2.832,0,0,0,1.459-.352,3.666,3.666,0,0,0,1.046-.932l.993.773A3.993,3.993,0,0,1,70.312,75.176Zm-.2-8.525a2.169,2.169,0,0,0-1.652.716,3.482,3.482,0,0,0-.826,2.008H72.4v-.123a3.1,3.1,0,0,0-.668-1.92A2.042,2.042,0,0,0,70.11,66.65Zm10.389.3a4.873,4.873,0,0,0-.8-.062,2.143,2.143,0,0,0-2.171,1.362V75H75.9V65.49h1.582l.026,1.1a2.532,2.532,0,0,1,2.268-1.274,1.661,1.661,0,0,1,.721.123Zm13.983,3.4a5.694,5.694,0,0,1-.993,3.5A3.183,3.183,0,0,1,90.8,75.176a3.488,3.488,0,0,1-2.725-1.1v4.579H86.449V65.49h1.485l.079,1.055a3.35,3.35,0,0,1,2.76-1.23,3.243,3.243,0,0,1,2.711,1.292,5.756,5.756,0,0,1,1,3.595Zm-1.626-.185a4.2,4.2,0,0,0-.686-2.54,2.208,2.208,0,0,0-1.881-.932A2.39,2.39,0,0,0,88.075,68v4.544a2.4,2.4,0,0,0,2.232,1.3,2.2,2.2,0,0,0,1.859-.927A4.587,4.587,0,0,0,92.856,70.166Zm3.261-.009a5.617,5.617,0,0,1,.549-2.514A4.1,4.1,0,0,1,98.2,65.921a4.163,4.163,0,0,1,2.237-.606,4.01,4.01,0,0,1,3.142,1.345,5.174,5.174,0,0,1,1.2,3.577v.114a5.666,5.666,0,0,1-.532,2.492,4.038,4.038,0,0,1-1.521,1.718,4.211,4.211,0,0,1-2.272.615,4,4,0,0,1-3.133-1.345,5.147,5.147,0,0,1-1.2-3.56Zm1.635.193a4.068,4.068,0,0,0,.734,2.54,2.487,2.487,0,0,0,3.933-.013,4.449,4.449,0,0,0,.729-2.72,4.061,4.061,0,0,0-.743-2.536,2.361,2.361,0,0,0-1.973-.971,2.335,2.335,0,0,0-1.942.958A4.416,4.416,0,0,0,97.751,70.351Zm17.095,0a5.694,5.694,0,0,1-.993,3.5,3.183,3.183,0,0,1-2.689,1.327,3.488,3.488,0,0,1-2.725-1.1v4.579h-1.626V65.49H108.3l.079,1.055a3.35,3.35,0,0,1,2.76-1.23,3.243,3.243,0,0,1,2.711,1.292,5.756,5.756,0,0,1,1,3.595Zm-1.626-.185a4.2,4.2,0,0,0-.686-2.54,2.208,2.208,0,0,0-1.881-.932A2.39,2.39,0,0,0,108.439,68v4.544a2.4,2.4,0,0,0,2.232,1.3,2.2,2.2,0,0,0,1.859-.927A4.587,4.587,0,0,0,113.22,70.166Zm9.563,3.894A3.454,3.454,0,0,1,120,75.176a2.956,2.956,0,0,1-2.316-.883,3.823,3.823,0,0,1-.8-2.615V65.49H118.5v6.144q0,2.162,1.758,2.162a2.434,2.434,0,0,0,2.479-1.389V65.49h1.626V75h-1.547ZM128.6,75h-1.626V61.5H128.6Zm8.473,0a3.416,3.416,0,0,1-.229-1,3.628,3.628,0,0,1-2.707,1.178,3.357,3.357,0,0,1-2.307-.8,2.573,2.573,0,0,1-.9-2.017,2.688,2.688,0,0,1,1.129-2.307,5.325,5.325,0,0,1,3.177-.822h1.582v-.747a1.826,1.826,0,0,0-.51-1.358,2.049,2.049,0,0,0-1.5-.505,2.371,2.371,0,0,0-1.459.439,1.3,1.3,0,0,0-.589,1.063h-1.635a2.244,2.244,0,0,1,.505-1.375A3.449,3.449,0,0,1,133,65.7a4.613,4.613,0,0,1,1.9-.387,3.759,3.759,0,0,1,2.575.822,2.964,2.964,0,0,1,.967,2.263v4.377a5.351,5.351,0,0,0,.334,2.083V75Zm-2.7-1.239a2.858,2.858,0,0,0,1.45-.4,2.392,2.392,0,0,0,.993-1.028V70.386h-1.274q-2.988,0-2.988,1.749a1.48,1.48,0,0,0,.51,1.2A1.959,1.959,0,0,0,134.375,73.761ZM143.2,63.188v2.3h1.775v1.257H143.2v5.9a1.32,1.32,0,0,0,.237.858,1,1,0,0,0,.809.286,3.937,3.937,0,0,0,.773-.105V75a4.742,4.742,0,0,1-1.248.175,2.025,2.025,0,0,1-1.644-.659,2.832,2.832,0,0,1-.554-1.872v-5.9h-1.731V65.49h1.731v-2.3ZM148.64,75h-1.626V65.49h1.626Zm-1.758-12.032a.971.971,0,0,1,.242-.668.907.907,0,0,1,.716-.272.922.922,0,0,1,.721.272.96.96,0,0,1,.246.668.929.929,0,0,1-.246.659.938.938,0,0,1-.721.264.924.924,0,0,1-.716-.264A.938.938,0,0,1,146.882,62.968Zm3.929,7.189a5.617,5.617,0,0,1,.549-2.514,4.1,4.1,0,0,1,1.529-1.723,4.163,4.163,0,0,1,2.237-.606,4.01,4.01,0,0,1,3.142,1.345,5.174,5.174,0,0,1,1.2,3.577v.114a5.666,5.666,0,0,1-.532,2.492,4.038,4.038,0,0,1-1.521,1.718,4.211,4.211,0,0,1-2.272.615,4,4,0,0,1-3.133-1.345,5.147,5.147,0,0,1-1.2-3.56Zm1.635.193a4.068,4.068,0,0,0,.734,2.54,2.487,2.487,0,0,0,3.933-.013,4.449,4.449,0,0,0,.729-2.72,4.061,4.061,0,0,0-.743-2.536,2.361,2.361,0,0,0-1.973-.971,2.335,2.335,0,0,0-1.942.958A4.416,4.416,0,0,0,152.446,70.351Zm10.6-4.86.053,1.2a3.465,3.465,0,0,1,2.848-1.371q3.015,0,3.041,3.4V75h-1.626V68.707a2.189,2.189,0,0,0-.47-1.521,1.884,1.884,0,0,0-1.437-.492,2.347,2.347,0,0,0-1.389.422,2.865,2.865,0,0,0-.932,1.107V75h-1.626V65.49Zm14.476,1.151a3.457,3.457,0,0,1,2.813-1.327q3.015,0,3.041,3.4V75h-1.626V68.707a2.189,2.189,0,0,0-.47-1.521,1.884,1.884,0,0,0-1.437-.492,2.347,2.347,0,0,0-1.389.422,2.865,2.865,0,0,0-.932,1.107V75H175.9V61.5h1.626Zm12.234,8.534a4.155,4.155,0,0,1-3.146-1.27,4.714,4.714,0,0,1-1.213-3.4v-.3a5.707,5.707,0,0,1,.541-2.527,4.217,4.217,0,0,1,1.512-1.74,3.8,3.8,0,0,1,2.1-.628,3.562,3.562,0,0,1,2.883,1.222,5.289,5.289,0,0,1,1.028,3.5v.677h-6.442a3.38,3.38,0,0,0,.822,2.272,2.583,2.583,0,0,0,2,.866A2.832,2.832,0,0,0,191.3,73.5a3.666,3.666,0,0,0,1.046-.932l.993.773A3.993,3.993,0,0,1,189.755,75.176Zm-.2-8.525a2.169,2.169,0,0,0-1.652.716,3.482,3.482,0,0,0-.826,2.008h4.764v-.123a3.1,3.1,0,0,0-.668-1.92A2.042,2.042,0,0,0,189.553,66.65ZM201.216,75a3.416,3.416,0,0,1-.229-1,3.628,3.628,0,0,1-2.707,1.178,3.357,3.357,0,0,1-2.307-.8,2.573,2.573,0,0,1-.9-2.017,2.688,2.688,0,0,1,1.129-2.307,5.325,5.325,0,0,1,3.177-.822h1.582v-.747a1.826,1.826,0,0,0-.51-1.358,2.049,2.049,0,0,0-1.5-.505,2.371,2.371,0,0,0-1.459.439,1.3,1.3,0,0,0-.589,1.063h-1.635a2.244,2.244,0,0,1,.505-1.375,3.449,3.449,0,0,1,1.371-1.05,4.613,4.613,0,0,1,1.9-.387,3.759,3.759,0,0,1,2.575.822,2.964,2.964,0,0,1,.967,2.263v4.377a5.351,5.351,0,0,0,.334,2.083V75Zm-2.7-1.239a2.858,2.858,0,0,0,1.45-.4,2.392,2.392,0,0,0,.993-1.028V70.386h-1.274q-2.988,0-2.988,1.749a1.48,1.48,0,0,0,.51,1.2A1.959,1.959,0,0,0,198.518,73.761ZM206.9,75h-1.626V61.5H206.9Zm4.808-11.812v2.3h1.775v1.257H211.71v5.9a1.32,1.32,0,0,0,.237.858,1,1,0,0,0,.809.286,3.937,3.937,0,0,0,.773-.105V75a4.742,4.742,0,0,1-1.248.175,2.025,2.025,0,0,1-1.644-.659,2.832,2.832,0,0,1-.554-1.872v-5.9h-1.731V65.49h1.731v-2.3Zm5.3,3.454a3.457,3.457,0,0,1,2.813-1.327q3.015,0,3.041,3.4V75h-1.626V68.707a2.189,2.189,0,0,0-.47-1.521,1.884,1.884,0,0,0-1.437-.492,2.347,2.347,0,0,0-1.389.422,2.865,2.865,0,0,0-.932,1.107V75h-1.626V61.5h1.626Z" transform="translate(1121 1124)"/><path d="M19.205,17H17.518V4.2h1.688Zm4.359-9.51.044,1.055a3.512,3.512,0,0,1,2.821-1.23,2.719,2.719,0,0,1,2.716,1.529A3.6,3.6,0,0,1,30.38,7.736a3.647,3.647,0,0,1,1.8-.422q3.129,0,3.182,3.313V17H33.733V10.725A2.184,2.184,0,0,0,33.268,9.2,2.051,2.051,0,0,0,31.7,8.694a2.156,2.156,0,0,0-1.5.541,2.193,2.193,0,0,0-.694,1.455V17H27.871V10.769a1.814,1.814,0,0,0-2.03-2.074,2.175,2.175,0,0,0-2.188,1.362V17H22.026V7.49Zm22.28,4.86a5.694,5.694,0,0,1-.993,3.5,3.183,3.183,0,0,1-2.689,1.327,3.488,3.488,0,0,1-2.725-1.1v4.579H37.812V7.49H39.3l.079,1.055a3.35,3.35,0,0,1,2.76-1.23,3.243,3.243,0,0,1,2.711,1.292,5.756,5.756,0,0,1,1,3.595Zm-1.626-.185a4.2,4.2,0,0,0-.686-2.54,2.208,2.208,0,0,0-1.881-.932A2.39,2.39,0,0,0,39.438,10v4.544a2.4,2.4,0,0,0,2.232,1.3,2.2,2.2,0,0,0,1.859-.927A4.587,4.587,0,0,0,44.219,12.166Zm8.288-3.217a4.873,4.873,0,0,0-.8-.062,2.143,2.143,0,0,0-2.171,1.362V17H47.91V7.49h1.582l.026,1.1a2.532,2.532,0,0,1,2.268-1.274,1.661,1.661,0,0,1,.721.123Zm.888,3.208a5.617,5.617,0,0,1,.549-2.514,4.1,4.1,0,0,1,1.529-1.723,4.163,4.163,0,0,1,2.237-.606,4.01,4.01,0,0,1,3.142,1.345,5.174,5.174,0,0,1,1.2,3.577v.114a5.666,5.666,0,0,1-.532,2.492A4.038,4.038,0,0,1,60,16.561a4.211,4.211,0,0,1-2.272.615,4,4,0,0,1-3.133-1.345,5.147,5.147,0,0,1-1.2-3.56Zm1.635.193a4.068,4.068,0,0,0,.734,2.54,2.487,2.487,0,0,0,3.933-.013,4.449,4.449,0,0,0,.729-2.72,4.061,4.061,0,0,0-.743-2.536A2.361,2.361,0,0,0,57.71,8.65a2.335,2.335,0,0,0-1.942.958A4.416,4.416,0,0,0,55.029,12.351ZM67.1,14.794l2.355-7.3h1.661L67.7,17H66.464L63.019,7.49H64.68Zm9.413,2.382a4.155,4.155,0,0,1-3.146-1.27,4.714,4.714,0,0,1-1.213-3.4v-.3a5.707,5.707,0,0,1,.541-2.527A4.217,4.217,0,0,1,74.2,7.943a3.8,3.8,0,0,1,2.1-.628A3.562,3.562,0,0,1,79.19,8.536a5.289,5.289,0,0,1,1.028,3.5v.677H73.776a3.38,3.38,0,0,0,.822,2.272,2.583,2.583,0,0,0,2,.866,2.832,2.832,0,0,0,1.459-.352,3.666,3.666,0,0,0,1.046-.932l.993.773A3.993,3.993,0,0,1,76.51,17.176Zm-.2-8.525a2.169,2.169,0,0,0-1.652.716,3.482,3.482,0,0,0-.826,2.008h4.764v-.123a3.1,3.1,0,0,0-.668-1.92A2.042,2.042,0,0,0,76.308,8.65ZM88.085,7.49l.044,1.055a3.512,3.512,0,0,1,2.821-1.23,2.719,2.719,0,0,1,2.716,1.529A3.6,3.6,0,0,1,94.9,7.736a3.647,3.647,0,0,1,1.8-.422q3.129,0,3.182,3.313V17H98.254V10.725A2.184,2.184,0,0,0,97.788,9.2a2.051,2.051,0,0,0-1.564-.505,2.156,2.156,0,0,0-1.5.541,2.193,2.193,0,0,0-.694,1.455V17H92.392V10.769a1.814,1.814,0,0,0-2.03-2.074,2.175,2.175,0,0,0-2.188,1.362V17H86.547V7.49Zm18.193,9.686a4.155,4.155,0,0,1-3.146-1.27,4.714,4.714,0,0,1-1.213-3.4v-.3a5.707,5.707,0,0,1,.541-2.527,4.217,4.217,0,0,1,1.512-1.74,3.8,3.8,0,0,1,2.1-.628,3.562,3.562,0,0,1,2.883,1.222,5.289,5.289,0,0,1,1.028,3.5v.677h-6.442a3.38,3.38,0,0,0,.822,2.272,2.583,2.583,0,0,0,2,.866,2.832,2.832,0,0,0,1.459-.352,3.666,3.666,0,0,0,1.046-.932l.993.773A3.993,3.993,0,0,1,106.278,17.176Zm-.2-8.525a2.169,2.169,0,0,0-1.652.716,3.482,3.482,0,0,0-.826,2.008h4.764v-.123a3.1,3.1,0,0,0-.668-1.92A2.042,2.042,0,0,0,106.076,8.65Zm5.4,3.516a5.571,5.571,0,0,1,1.037-3.52,3.529,3.529,0,0,1,5.361-.189V3.5H119.5V17H118l-.079-1.02a3.311,3.311,0,0,1-2.716,1.2,3.248,3.248,0,0,1-2.694-1.354,5.634,5.634,0,0,1-1.042-3.533Zm1.626.185a4.218,4.218,0,0,0,.668,2.531,2.159,2.159,0,0,0,1.846.914,2.372,2.372,0,0,0,2.259-1.389V10.039a2.39,2.39,0,0,0-2.241-1.345,2.17,2.17,0,0,0-1.863.923A4.644,4.644,0,0,0,113.1,12.351ZM123.786,17H122.16V7.49h1.626ZM122.028,4.968a.971.971,0,0,1,.242-.668.907.907,0,0,1,.716-.272.922.922,0,0,1,.721.272.96.96,0,0,1,.246.668.929.929,0,0,1-.246.659.938.938,0,0,1-.721.264.924.924,0,0,1-.716-.264A.938.938,0,0,1,122.028,4.968ZM130.2,15.849a2.342,2.342,0,0,0,1.521-.527A1.855,1.855,0,0,0,132.443,14h1.538a2.949,2.949,0,0,1-.562,1.556,3.7,3.7,0,0,1-1.384,1.178,3.994,3.994,0,0,1-1.833.439,3.918,3.918,0,0,1-3.089-1.3,5.163,5.163,0,0,1-1.147-3.546v-.272a5.725,5.725,0,0,1,.51-2.47,3.883,3.883,0,0,1,1.463-1.679,4.157,4.157,0,0,1,2.254-.6,3.814,3.814,0,0,1,2.659.958,3.424,3.424,0,0,1,1.129,2.487h-1.538a2.241,2.241,0,0,0-.7-1.516,2.174,2.174,0,0,0-1.551-.593,2.276,2.276,0,0,0-1.92.892,4.19,4.19,0,0,0-.681,2.58v.308a4.106,4.106,0,0,0,.677,2.531A2.287,2.287,0,0,0,130.2,15.849ZM141.681,17a3.416,3.416,0,0,1-.229-1,3.628,3.628,0,0,1-2.707,1.178,3.357,3.357,0,0,1-2.307-.8,2.573,2.573,0,0,1-.9-2.017,2.688,2.688,0,0,1,1.129-2.307,5.325,5.325,0,0,1,3.177-.822h1.582v-.747a1.826,1.826,0,0,0-.51-1.358,2.049,2.049,0,0,0-1.5-.505,2.371,2.371,0,0,0-1.459.439,1.3,1.3,0,0,0-.589,1.063H135.73a2.244,2.244,0,0,1,.505-1.375,3.449,3.449,0,0,1,1.371-1.05,4.613,4.613,0,0,1,1.9-.387,3.759,3.759,0,0,1,2.575.822,2.964,2.964,0,0,1,.967,2.263v4.377a5.351,5.351,0,0,0,.334,2.083V17Zm-2.7-1.239a2.858,2.858,0,0,0,1.45-.4,2.392,2.392,0,0,0,.993-1.028V12.386h-1.274q-2.988,0-2.988,1.749a1.48,1.48,0,0,0,.51,1.2A1.959,1.959,0,0,0,138.982,15.761Zm8.824-10.573v2.3h1.775V8.747h-1.775v5.9a1.32,1.32,0,0,0,.237.858,1,1,0,0,0,.809.286,3.937,3.937,0,0,0,.773-.105V17a4.742,4.742,0,0,1-1.248.175,2.025,2.025,0,0,1-1.644-.659,2.832,2.832,0,0,1-.554-1.872v-5.9h-1.731V7.49h1.731v-2.3ZM153.247,17h-1.626V7.49h1.626ZM151.489,4.968a.971.971,0,0,1,.242-.668.907.907,0,0,1,.716-.272.922.922,0,0,1,.721.272.96.96,0,0,1,.246.668.929.929,0,0,1-.246.659.938.938,0,0,1-.721.264.924.924,0,0,1-.716-.264A.938.938,0,0,1,151.489,4.968Zm3.929,7.189a5.617,5.617,0,0,1,.549-2.514A4.1,4.1,0,0,1,157.5,7.921a4.163,4.163,0,0,1,2.237-.606,4.01,4.01,0,0,1,3.142,1.345,5.174,5.174,0,0,1,1.2,3.577v.114a5.666,5.666,0,0,1-.532,2.492,4.038,4.038,0,0,1-1.521,1.718,4.211,4.211,0,0,1-2.272.615,4,4,0,0,1-3.133-1.345,5.147,5.147,0,0,1-1.2-3.56Zm1.635.193a4.068,4.068,0,0,0,.734,2.54,2.487,2.487,0,0,0,3.933-.013,4.449,4.449,0,0,0,.729-2.72,4.061,4.061,0,0,0-.743-2.536,2.361,2.361,0,0,0-1.973-.971,2.335,2.335,0,0,0-1.942.958A4.416,4.416,0,0,0,157.053,12.351Zm10.6-4.86.053,1.2a3.465,3.465,0,0,1,2.848-1.371q3.015,0,3.041,3.4V17h-1.626V10.707a2.189,2.189,0,0,0-.47-1.521,1.884,1.884,0,0,0-1.437-.492,2.347,2.347,0,0,0-1.389.422,2.865,2.865,0,0,0-.932,1.107V17h-1.626V7.49ZM186.373,17a3.416,3.416,0,0,1-.229-1,3.628,3.628,0,0,1-2.707,1.178,3.357,3.357,0,0,1-2.307-.8,2.573,2.573,0,0,1-.9-2.017,2.688,2.688,0,0,1,1.129-2.307,5.325,5.325,0,0,1,3.177-.822h1.582v-.747a1.826,1.826,0,0,0-.51-1.358,2.049,2.049,0,0,0-1.5-.505,2.371,2.371,0,0,0-1.459.439,1.3,1.3,0,0,0-.589,1.063h-1.635a2.244,2.244,0,0,1,.505-1.375A3.449,3.449,0,0,1,182.3,7.7a4.613,4.613,0,0,1,1.9-.387,3.759,3.759,0,0,1,2.575.822,2.964,2.964,0,0,1,.967,2.263v4.377a5.351,5.351,0,0,0,.334,2.083V17Zm-2.7-1.239a2.858,2.858,0,0,0,1.45-.4,2.392,2.392,0,0,0,.993-1.028V12.386h-1.274q-2.988,0-2.988,1.749a1.48,1.48,0,0,0,.51,1.2A1.959,1.959,0,0,0,183.675,15.761Zm6.223-3.595a5.571,5.571,0,0,1,1.037-3.52,3.529,3.529,0,0,1,5.361-.189V3.5h1.626V17h-1.494l-.079-1.02a3.311,3.311,0,0,1-2.716,1.2,3.248,3.248,0,0,1-2.694-1.354,5.634,5.634,0,0,1-1.042-3.533Zm1.626.185a4.218,4.218,0,0,0,.668,2.531,2.159,2.159,0,0,0,1.846.914,2.372,2.372,0,0,0,2.259-1.389V10.039a2.39,2.39,0,0,0-2.241-1.345,2.17,2.17,0,0,0-1.863.923A4.644,4.644,0,0,0,191.523,12.351ZM202.07,8.642a3.457,3.457,0,0,1,2.813-1.327q3.015,0,3.041,3.4V17H206.3V10.707a2.189,2.189,0,0,0-.47-1.521,1.884,1.884,0,0,0-1.437-.492A2.347,2.347,0,0,0,203,9.116a2.865,2.865,0,0,0-.932,1.107V17h-1.626V3.5h1.626ZM214.3,17.176a4.155,4.155,0,0,1-3.146-1.27,4.714,4.714,0,0,1-1.213-3.4v-.3a5.707,5.707,0,0,1,.541-2.527A4.217,4.217,0,0,1,212,7.943a3.8,3.8,0,0,1,2.1-.628,3.562,3.562,0,0,1,2.883,1.222,5.289,5.289,0,0,1,1.028,3.5v.677h-6.442a3.38,3.38,0,0,0,.822,2.272,2.583,2.583,0,0,0,2,.866,2.832,2.832,0,0,0,1.459-.352,3.666,3.666,0,0,0,1.046-.932l.993.773A3.993,3.993,0,0,1,214.3,17.176Zm-.2-8.525a2.169,2.169,0,0,0-1.652.716,3.482,3.482,0,0,0-.826,2.008h4.764v-.123a3.1,3.1,0,0,0-.668-1.92A2.042,2.042,0,0,0,214.1,8.65Zm10.389.3a4.873,4.873,0,0,0-.8-.062,2.143,2.143,0,0,0-2.171,1.362V17h-1.626V7.49h1.582l.026,1.1a2.532,2.532,0,0,1,2.268-1.274,1.661,1.661,0,0,1,.721.123Zm5.273,8.227a4.155,4.155,0,0,1-3.146-1.27,4.714,4.714,0,0,1-1.213-3.4v-.3a5.707,5.707,0,0,1,.541-2.527,4.217,4.217,0,0,1,1.512-1.74,3.8,3.8,0,0,1,2.1-.628,3.562,3.562,0,0,1,2.883,1.222,5.289,5.289,0,0,1,1.028,3.5v.677h-6.442a3.38,3.38,0,0,0,.822,2.272,2.583,2.583,0,0,0,2,.866,2.832,2.832,0,0,0,1.459-.352,3.666,3.666,0,0,0,1.046-.932l.993.773A3.993,3.993,0,0,1,229.765,17.176Zm-.2-8.525a2.169,2.169,0,0,0-1.652.716,3.482,3.482,0,0,0-.826,2.008h4.764v-.123a3.1,3.1,0,0,0-.668-1.92A2.042,2.042,0,0,0,229.563,8.65Zm7.33-1.16.053,1.2a3.465,3.465,0,0,1,2.848-1.371q3.015,0,3.041,3.4V17h-1.626V10.707a2.189,2.189,0,0,0-.47-1.521,1.884,1.884,0,0,0-1.437-.492,2.347,2.347,0,0,0-1.389.422,2.865,2.865,0,0,0-.932,1.107V17h-1.626V7.49ZM249.1,15.849a2.342,2.342,0,0,0,1.521-.527A1.855,1.855,0,0,0,251.342,14h1.538a2.949,2.949,0,0,1-.562,1.556,3.7,3.7,0,0,1-1.384,1.178,3.994,3.994,0,0,1-1.833.439,3.918,3.918,0,0,1-3.089-1.3,5.163,5.163,0,0,1-1.147-3.546v-.272a5.725,5.725,0,0,1,.51-2.47,3.883,3.883,0,0,1,1.463-1.679,4.157,4.157,0,0,1,2.254-.6,3.814,3.814,0,0,1,2.659.958,3.424,3.424,0,0,1,1.129,2.487h-1.538a2.241,2.241,0,0,0-.7-1.516,2.174,2.174,0,0,0-1.551-.593,2.276,2.276,0,0,0-1.92.892,4.19,4.19,0,0,0-.681,2.58v.308a4.106,4.106,0,0,0,.677,2.531A2.287,2.287,0,0,0,249.1,15.849Zm9.554,1.327a4.155,4.155,0,0,1-3.146-1.27,4.714,4.714,0,0,1-1.213-3.4v-.3a5.707,5.707,0,0,1,.541-2.527,4.217,4.217,0,0,1,1.512-1.74,3.8,3.8,0,0,1,2.1-.628,3.562,3.562,0,0,1,2.883,1.222,5.289,5.289,0,0,1,1.028,3.5v.677h-6.442a3.38,3.38,0,0,0,.822,2.272,2.583,2.583,0,0,0,2,.866A2.832,2.832,0,0,0,260.2,15.5a3.666,3.666,0,0,0,1.046-.932l.993.773A3.993,3.993,0,0,1,258.654,17.176Zm-.2-8.525a2.169,2.169,0,0,0-1.652.716,3.482,3.482,0,0,0-.826,2.008h4.764v-.123a3.1,3.1,0,0,0-.668-1.92A2.042,2.042,0,0,0,258.452,8.65Zm5.739,10.9-.923-.633a4.241,4.241,0,0,0,.861-2.373V15.075h1.591V16.35a4,4,0,0,1-.435,1.775A4.156,4.156,0,0,1,264.191,19.549ZM60.052,41.166a5.571,5.571,0,0,1,1.037-3.52,3.529,3.529,0,0,1,5.361-.189V32.5h1.626V46H66.583L66.5,44.98a3.311,3.311,0,0,1-2.716,1.2,3.248,3.248,0,0,1-2.694-1.354,5.634,5.634,0,0,1-1.042-3.533Zm1.626.185a4.218,4.218,0,0,0,.668,2.531,2.159,2.159,0,0,0,1.846.914,2.372,2.372,0,0,0,2.259-1.389V39.039a2.39,2.39,0,0,0-2.241-1.345,2.17,2.17,0,0,0-1.863.923A4.644,4.644,0,0,0,61.678,41.351Zm12.867,4.825a4.155,4.155,0,0,1-3.146-1.27,4.714,4.714,0,0,1-1.213-3.4v-.3a5.707,5.707,0,0,1,.541-2.527,4.217,4.217,0,0,1,1.512-1.74,3.8,3.8,0,0,1,2.1-.628,3.562,3.562,0,0,1,2.883,1.222,5.289,5.289,0,0,1,1.028,3.5v.677H71.812a3.38,3.38,0,0,0,.822,2.272,2.583,2.583,0,0,0,2,.866,2.832,2.832,0,0,0,1.459-.352,3.666,3.666,0,0,0,1.046-.932l.993.773A3.993,3.993,0,0,1,74.545,46.176Zm-.2-8.525a2.169,2.169,0,0,0-1.652.716,3.482,3.482,0,0,0-.826,2.008h4.764v-.123a3.1,3.1,0,0,0-.668-1.92A2.042,2.042,0,0,0,74.343,37.65Zm9.606,7.2a2.342,2.342,0,0,0,1.521-.527A1.855,1.855,0,0,0,86.191,43h1.538a2.949,2.949,0,0,1-.562,1.556,3.7,3.7,0,0,1-1.384,1.178,3.994,3.994,0,0,1-1.833.439,3.918,3.918,0,0,1-3.089-1.3,5.163,5.163,0,0,1-1.147-3.546v-.272a5.725,5.725,0,0,1,.51-2.47,3.883,3.883,0,0,1,1.463-1.679,4.157,4.157,0,0,1,2.254-.6,3.814,3.814,0,0,1,2.659.958,3.424,3.424,0,0,1,1.129,2.487H86.191a2.241,2.241,0,0,0-.7-1.516,2.174,2.174,0,0,0-1.551-.593,2.276,2.276,0,0,0-1.92.892,4.19,4.19,0,0,0-.681,2.58v.308a4.106,4.106,0,0,0,.677,2.531A2.287,2.287,0,0,0,83.95,44.849Zm10.2-6.9a4.873,4.873,0,0,0-.8-.062,2.143,2.143,0,0,0-2.171,1.362V46H89.557V36.49h1.582l.026,1.1a2.532,2.532,0,0,1,2.268-1.274,1.661,1.661,0,0,1,.721.123Zm5.273,8.227a4.155,4.155,0,0,1-3.146-1.27,4.714,4.714,0,0,1-1.213-3.4v-.3a5.707,5.707,0,0,1,.541-2.527,4.217,4.217,0,0,1,1.512-1.74,3.8,3.8,0,0,1,2.1-.628,3.562,3.562,0,0,1,2.883,1.222,5.289,5.289,0,0,1,1.028,3.5v.677H96.694a3.38,3.38,0,0,0,.822,2.272,2.583,2.583,0,0,0,2,.866,2.832,2.832,0,0,0,1.459-.352,3.666,3.666,0,0,0,1.046-.932l.993.773A3.993,3.993,0,0,1,99.427,46.176Zm-.2-8.525a2.169,2.169,0,0,0-1.652.716,3.482,3.482,0,0,0-.826,2.008h4.764v-.123a3.1,3.1,0,0,0-.668-1.92A2.042,2.042,0,0,0,99.225,37.65ZM110.888,46a3.416,3.416,0,0,1-.229-1,3.628,3.628,0,0,1-2.707,1.178,3.357,3.357,0,0,1-2.307-.8,2.573,2.573,0,0,1-.9-2.017,2.688,2.688,0,0,1,1.129-2.307,5.325,5.325,0,0,1,3.177-.822h1.582v-.747a1.826,1.826,0,0,0-.51-1.358,2.049,2.049,0,0,0-1.5-.505,2.371,2.371,0,0,0-1.459.439,1.3,1.3,0,0,0-.589,1.063h-1.635a2.244,2.244,0,0,1,.505-1.375,3.449,3.449,0,0,1,1.371-1.05,4.613,4.613,0,0,1,1.9-.387,3.759,3.759,0,0,1,2.575.822,2.964,2.964,0,0,1,.967,2.263v4.377a5.351,5.351,0,0,0,.334,2.083V46Zm-2.7-1.239a2.858,2.858,0,0,0,1.45-.4,2.392,2.392,0,0,0,.993-1.028V41.386h-1.274q-2.988,0-2.988,1.749a1.48,1.48,0,0,0,.51,1.2A1.959,1.959,0,0,0,108.19,44.761Zm12.155-1.283a1.2,1.2,0,0,0-.5-1.024,4.78,4.78,0,0,0-1.731-.628,8.186,8.186,0,0,1-1.96-.633,2.788,2.788,0,0,1-1.072-.879,2.1,2.1,0,0,1-.347-1.213,2.467,2.467,0,0,1,.989-1.978,3.861,3.861,0,0,1,2.527-.809,3.974,3.974,0,0,1,2.624.835,2.652,2.652,0,0,1,1.006,2.136h-1.635a1.468,1.468,0,0,0-.567-1.151,2.124,2.124,0,0,0-1.428-.483,2.223,2.223,0,0,0-1.389.387,1.217,1.217,0,0,0-.5,1.011.986.986,0,0,0,.466.888,5.731,5.731,0,0,0,1.683.571,8.77,8.77,0,0,1,1.973.65,2.878,2.878,0,0,1,1.121.91,2.237,2.237,0,0,1,.365,1.3,2.434,2.434,0,0,1-1.02,2.043,4.277,4.277,0,0,1-2.646.769,4.789,4.789,0,0,1-2.021-.4,3.288,3.288,0,0,1-1.375-1.129,2.722,2.722,0,0,1-.5-1.569h1.626a1.683,1.683,0,0,0,.655,1.3,2.54,2.54,0,0,0,1.613.479,2.622,2.622,0,0,0,1.481-.374A1.148,1.148,0,0,0,120.345,43.478Zm7.69,2.7a4.155,4.155,0,0,1-3.146-1.27,4.714,4.714,0,0,1-1.213-3.4v-.3a5.707,5.707,0,0,1,.541-2.527,4.217,4.217,0,0,1,1.512-1.74,3.8,3.8,0,0,1,2.1-.628,3.562,3.562,0,0,1,2.883,1.222,5.289,5.289,0,0,1,1.028,3.5v.677H125.3a3.38,3.38,0,0,0,.822,2.272,2.583,2.583,0,0,0,2,.866,2.832,2.832,0,0,0,1.459-.352,3.666,3.666,0,0,0,1.046-.932l.993.773A3.993,3.993,0,0,1,128.036,46.176Zm-.2-8.525a2.169,2.169,0,0,0-1.652.716,3.482,3.482,0,0,0-.826,2.008h4.764v-.123a3.1,3.1,0,0,0-.668-1.92A2.042,2.042,0,0,0,127.833,37.65Zm14.063,7.2a2.342,2.342,0,0,0,1.521-.527A1.855,1.855,0,0,0,144.137,43h1.538a2.949,2.949,0,0,1-.562,1.556,3.7,3.7,0,0,1-1.384,1.178,3.994,3.994,0,0,1-1.833.439,3.918,3.918,0,0,1-3.089-1.3,5.163,5.163,0,0,1-1.147-3.546v-.272a5.725,5.725,0,0,1,.51-2.47,3.883,3.883,0,0,1,1.463-1.679,4.157,4.157,0,0,1,2.254-.6,3.814,3.814,0,0,1,2.659.958,3.424,3.424,0,0,1,1.129,2.487h-1.538a2.241,2.241,0,0,0-.7-1.516,2.174,2.174,0,0,0-1.551-.593,2.276,2.276,0,0,0-1.92.892,4.19,4.19,0,0,0-.681,2.58v.308a4.106,4.106,0,0,0,.677,2.531A2.287,2.287,0,0,0,141.9,44.849ZM153.375,46a3.416,3.416,0,0,1-.229-1,3.628,3.628,0,0,1-2.707,1.178,3.357,3.357,0,0,1-2.307-.8,2.573,2.573,0,0,1-.9-2.017,2.688,2.688,0,0,1,1.129-2.307,5.325,5.325,0,0,1,3.177-.822h1.582v-.747a1.826,1.826,0,0,0-.51-1.358,2.049,2.049,0,0,0-1.5-.505,2.371,2.371,0,0,0-1.459.439,1.3,1.3,0,0,0-.589,1.063h-1.635a2.244,2.244,0,0,1,.505-1.375A3.449,3.449,0,0,1,149.3,36.7a4.613,4.613,0,0,1,1.9-.387,3.759,3.759,0,0,1,2.575.822,2.964,2.964,0,0,1,.967,2.263v4.377a5.351,5.351,0,0,0,.334,2.083V46Zm-2.7-1.239a2.858,2.858,0,0,0,1.45-.4,2.392,2.392,0,0,0,.993-1.028V41.386h-1.274q-2.988,0-2.988,1.749a1.48,1.48,0,0,0,.51,1.2A1.959,1.959,0,0,0,150.676,44.761Zm11.215-6.812a4.873,4.873,0,0,0-.8-.062,2.143,2.143,0,0,0-2.171,1.362V46h-1.626V36.49h1.582l.026,1.1a2.532,2.532,0,0,1,2.268-1.274,1.661,1.661,0,0,1,.721.123Zm5.273,8.227a4.155,4.155,0,0,1-3.146-1.27,4.714,4.714,0,0,1-1.213-3.4v-.3a5.707,5.707,0,0,1,.541-2.527,4.217,4.217,0,0,1,1.512-1.74,3.8,3.8,0,0,1,2.1-.628,3.562,3.562,0,0,1,2.883,1.222,5.289,5.289,0,0,1,1.028,3.5v.677h-6.442a3.38,3.38,0,0,0,.822,2.272,2.583,2.583,0,0,0,2,.866,2.832,2.832,0,0,0,1.459-.352,3.666,3.666,0,0,0,1.046-.932l.993.773A3.993,3.993,0,0,1,167.165,46.176Zm-.2-8.525a2.169,2.169,0,0,0-1.652.716,3.482,3.482,0,0,0-.826,2.008h4.764v-.123a3.1,3.1,0,0,0-.668-1.92A2.042,2.042,0,0,0,166.962,37.65Zm9.861,3.516a5.589,5.589,0,0,1,1.028-3.538,3.545,3.545,0,0,1,5.44-.083l.079-1.055h1.485v9.281a3.869,3.869,0,0,1-1.094,2.909,4.038,4.038,0,0,1-2.94,1.063,4.891,4.891,0,0,1-2.013-.439,3.465,3.465,0,0,1-1.5-1.2l.844-.976a3.18,3.18,0,0,0,2.558,1.292,2.491,2.491,0,0,0,1.85-.668,2.553,2.553,0,0,0,.664-1.881v-.817a3.342,3.342,0,0,1-2.663,1.125,3.248,3.248,0,0,1-2.7-1.345A5.876,5.876,0,0,1,176.824,41.166Zm1.635.185a4.264,4.264,0,0,0,.659,2.527,2.142,2.142,0,0,0,1.846.918,2.382,2.382,0,0,0,2.259-1.4V39.057a2.41,2.41,0,0,0-2.241-1.362,2.161,2.161,0,0,0-1.854.923A4.644,4.644,0,0,0,178.458,41.351ZM193.18,46a3.416,3.416,0,0,1-.229-1,3.628,3.628,0,0,1-2.707,1.178,3.357,3.357,0,0,1-2.307-.8,2.573,2.573,0,0,1-.9-2.017,2.688,2.688,0,0,1,1.129-2.307,5.325,5.325,0,0,1,3.177-.822h1.582v-.747a1.826,1.826,0,0,0-.51-1.358,2.049,2.049,0,0,0-1.5-.505,2.371,2.371,0,0,0-1.459.439,1.3,1.3,0,0,0-.589,1.063H187.23a2.244,2.244,0,0,1,.505-1.375,3.449,3.449,0,0,1,1.371-1.05,4.613,4.613,0,0,1,1.9-.387,3.759,3.759,0,0,1,2.575.822,2.964,2.964,0,0,1,.967,2.263v4.377a5.351,5.351,0,0,0,.334,2.083V46Zm-2.7-1.239a2.858,2.858,0,0,0,1.45-.4,2.392,2.392,0,0,0,.993-1.028V41.386h-1.274q-2.988,0-2.988,1.749a1.48,1.48,0,0,0,.51,1.2A1.959,1.959,0,0,0,190.482,44.761Zm14.651-3.41a5.694,5.694,0,0,1-.993,3.5,3.183,3.183,0,0,1-2.689,1.327,3.488,3.488,0,0,1-2.725-1.1v4.579H197.1V36.49h1.485l.079,1.055a3.35,3.35,0,0,1,2.76-1.23,3.243,3.243,0,0,1,2.711,1.292,5.756,5.756,0,0,1,1,3.595Zm-1.626-.185a4.2,4.2,0,0,0-.686-2.54,2.208,2.208,0,0,0-1.881-.932A2.39,2.39,0,0,0,198.726,39v4.544a2.4,2.4,0,0,0,2.232,1.3,2.2,2.2,0,0,0,1.859-.927A4.587,4.587,0,0,0,203.507,41.166Zm9.229,2.312a1.2,1.2,0,0,0-.5-1.024,4.78,4.78,0,0,0-1.731-.628,8.186,8.186,0,0,1-1.96-.633,2.788,2.788,0,0,1-1.072-.879,2.1,2.1,0,0,1-.347-1.213,2.467,2.467,0,0,1,.989-1.978,3.861,3.861,0,0,1,2.527-.809,3.974,3.974,0,0,1,2.624.835,2.652,2.652,0,0,1,1.006,2.136h-1.635a1.468,1.468,0,0,0-.567-1.151,2.124,2.124,0,0,0-1.428-.483,2.223,2.223,0,0,0-1.389.387,1.217,1.217,0,0,0-.5,1.011.986.986,0,0,0,.466.888,5.731,5.731,0,0,0,1.683.571,8.77,8.77,0,0,1,1.973.65,2.878,2.878,0,0,1,1.121.91,2.237,2.237,0,0,1,.365,1.3,2.434,2.434,0,0,1-1.02,2.043,4.277,4.277,0,0,1-2.646.769,4.789,4.789,0,0,1-2.021-.4,3.288,3.288,0,0,1-1.375-1.129,2.722,2.722,0,0,1-.5-1.569h1.626a1.683,1.683,0,0,0,.655,1.3,2.54,2.54,0,0,0,1.613.479,2.622,2.622,0,0,0,1.481-.374A1.148,1.148,0,0,0,212.736,43.478Zm3.691,5.071-.923-.633a4.241,4.241,0,0,0,.861-2.373V44.075h1.591V45.35a4,4,0,0,1-.435,1.775A4.156,4.156,0,0,1,216.427,48.549ZM24.162,75H22.475V62.2h1.688Zm4.359-9.51.044,1.055a3.512,3.512,0,0,1,2.821-1.23A2.719,2.719,0,0,1,34.1,66.844a3.6,3.6,0,0,1,1.235-1.107,3.647,3.647,0,0,1,1.8-.422q3.129,0,3.182,3.313V75H38.69V68.725a2.184,2.184,0,0,0-.466-1.525,2.051,2.051,0,0,0-1.564-.505,2.156,2.156,0,0,0-1.5.541,2.193,2.193,0,0,0-.694,1.455V75H32.828V68.769a1.814,1.814,0,0,0-2.03-2.074,2.175,2.175,0,0,0-2.188,1.362V75H26.983V65.49Zm22.28,4.86a5.694,5.694,0,0,1-.993,3.5,3.183,3.183,0,0,1-2.689,1.327,3.488,3.488,0,0,1-2.725-1.1v4.579H42.769V65.49h1.485l.079,1.055a3.35,3.35,0,0,1,2.76-1.23A3.243,3.243,0,0,1,49.8,66.606a5.756,5.756,0,0,1,1,3.595Zm-1.626-.185a4.2,4.2,0,0,0-.686-2.54,2.208,2.208,0,0,0-1.881-.932A2.39,2.39,0,0,0,44.395,68v4.544a2.4,2.4,0,0,0,2.232,1.3,2.2,2.2,0,0,0,1.859-.927A4.587,4.587,0,0,0,49.176,70.166Zm8.288-3.217a4.873,4.873,0,0,0-.8-.062,2.143,2.143,0,0,0-2.171,1.362V75H52.867V65.49h1.582l.026,1.1a2.532,2.532,0,0,1,2.268-1.274,1.661,1.661,0,0,1,.721.123Zm.888,3.208a5.617,5.617,0,0,1,.549-2.514,4.1,4.1,0,0,1,1.529-1.723,4.163,4.163,0,0,1,2.237-.606,4.01,4.01,0,0,1,3.142,1.345,5.174,5.174,0,0,1,1.2,3.577v.114a5.666,5.666,0,0,1-.532,2.492,4.038,4.038,0,0,1-1.521,1.718,4.211,4.211,0,0,1-2.272.615,4,4,0,0,1-3.133-1.345,5.147,5.147,0,0,1-1.2-3.56Zm1.635.193a4.068,4.068,0,0,0,.734,2.54,2.487,2.487,0,0,0,3.933-.013,4.449,4.449,0,0,0,.729-2.72,4.061,4.061,0,0,0-.743-2.536,2.361,2.361,0,0,0-1.973-.971,2.335,2.335,0,0,0-1.942.958A4.416,4.416,0,0,0,59.986,70.351Zm12.067,2.443,2.355-7.3H76.07L72.66,75H71.421l-3.445-9.51h1.661Zm9.413,2.382a4.155,4.155,0,0,1-3.146-1.27,4.714,4.714,0,0,1-1.213-3.4v-.3a5.707,5.707,0,0,1,.541-2.527,4.217,4.217,0,0,1,1.512-1.74,3.8,3.8,0,0,1,2.1-.628,3.562,3.562,0,0,1,2.883,1.222,5.289,5.289,0,0,1,1.028,3.5v.677H78.733a3.38,3.38,0,0,0,.822,2.272,2.583,2.583,0,0,0,2,.866,2.832,2.832,0,0,0,1.459-.352,3.666,3.666,0,0,0,1.046-.932l.993.773A3.993,3.993,0,0,1,81.467,75.176Zm-.2-8.525a2.169,2.169,0,0,0-1.652.716,3.482,3.482,0,0,0-.826,2.008H83.55v-.123a3.1,3.1,0,0,0-.668-1.92A2.042,2.042,0,0,0,81.265,66.65Zm19.916,4.289a4.708,4.708,0,0,1-1.5,3.133,4.911,4.911,0,0,1-3.353,1.1,4.509,4.509,0,0,1-3.634-1.626A6.542,6.542,0,0,1,91.328,69.2v-1.23a7.291,7.291,0,0,1,.637-3.138,4.76,4.76,0,0,1,1.806-2.079,5.029,5.029,0,0,1,2.707-.725,4.624,4.624,0,0,1,3.27,1.138,4.765,4.765,0,0,1,1.433,3.151h-1.7a3.677,3.677,0,0,0-.954-2.222,2.885,2.885,0,0,0-2.052-.688,3.019,3.019,0,0,0-2.536,1.2,5.492,5.492,0,0,0-.918,3.4v1.24a5.645,5.645,0,0,0,.87,3.316A2.812,2.812,0,0,0,96.329,73.8a3.247,3.247,0,0,0,2.158-.637,3.536,3.536,0,0,0,1-2.219ZM105,75h-1.626V61.5H105Zm4.368,0h-1.626V65.49h1.626Zm-1.758-12.032a.971.971,0,0,1,.242-.668.907.907,0,0,1,.716-.272.922.922,0,0,1,.721.272.96.96,0,0,1,.246.668.929.929,0,0,1-.246.659.938.938,0,0,1-.721.264.924.924,0,0,1-.716-.264A.938.938,0,0,1,107.605,62.968Zm5.9,2.522.053,1.2a3.465,3.465,0,0,1,2.848-1.371q3.015,0,3.041,3.4V75h-1.626V68.707a2.189,2.189,0,0,0-.47-1.521,1.884,1.884,0,0,0-1.437-.492,2.347,2.347,0,0,0-1.389.422,2.865,2.865,0,0,0-.932,1.107V75h-1.626V65.49ZM123.663,75h-1.626V65.49h1.626Zm-1.758-12.032a.971.971,0,0,1,.242-.668.907.907,0,0,1,.716-.272.922.922,0,0,1,.721.272.96.96,0,0,1,.246.668.929.929,0,0,1-.246.659.938.938,0,0,1-.721.264.924.924,0,0,1-.716-.264A.938.938,0,0,1,121.905,62.968Zm8.174,10.881a2.342,2.342,0,0,0,1.521-.527A1.855,1.855,0,0,0,132.32,72h1.538a2.949,2.949,0,0,1-.562,1.556,3.7,3.7,0,0,1-1.384,1.178,3.994,3.994,0,0,1-1.833.439,3.918,3.918,0,0,1-3.089-1.3,5.163,5.163,0,0,1-1.147-3.546v-.272a5.725,5.725,0,0,1,.51-2.47,3.883,3.883,0,0,1,1.463-1.679,4.157,4.157,0,0,1,2.254-.6,3.814,3.814,0,0,1,2.659.958,3.424,3.424,0,0,1,1.129,2.487H132.32a2.241,2.241,0,0,0-.7-1.516,2.174,2.174,0,0,0-1.551-.593,2.276,2.276,0,0,0-1.92.892,4.19,4.19,0,0,0-.681,2.58v.308a4.106,4.106,0,0,0,.677,2.531A2.287,2.287,0,0,0,130.079,73.849ZM141.558,75a3.416,3.416,0,0,1-.229-1,3.628,3.628,0,0,1-2.707,1.178,3.357,3.357,0,0,1-2.307-.8,2.573,2.573,0,0,1-.9-2.017,2.688,2.688,0,0,1,1.129-2.307,5.325,5.325,0,0,1,3.177-.822H141.3v-.747a1.826,1.826,0,0,0-.51-1.358,2.049,2.049,0,0,0-1.5-.505,2.371,2.371,0,0,0-1.459.439,1.3,1.3,0,0,0-.589,1.063h-1.635a2.244,2.244,0,0,1,.505-1.375,3.449,3.449,0,0,1,1.371-1.05,4.613,4.613,0,0,1,1.9-.387,3.759,3.759,0,0,1,2.575.822,2.964,2.964,0,0,1,.967,2.263v4.377a5.351,5.351,0,0,0,.334,2.083V75Zm-2.7-1.239a2.858,2.858,0,0,0,1.45-.4,2.392,2.392,0,0,0,.993-1.028V70.386h-1.274q-2.988,0-2.988,1.749a1.48,1.48,0,0,0,.51,1.2A1.959,1.959,0,0,0,138.859,73.761ZM147.244,75h-1.626V61.5h1.626Zm9-5.01V75h-1.687V62.2h4.72a4.742,4.742,0,0,1,3.292,1.072,3.635,3.635,0,0,1,1.191,2.839,3.587,3.587,0,0,1-1.165,2.87,4.954,4.954,0,0,1-3.335,1.006Zm0-1.38h3.032a3.032,3.032,0,0,0,2.074-.638,2.334,2.334,0,0,0,.721-1.845,2.411,2.411,0,0,0-.721-1.831,2.84,2.84,0,0,0-1.978-.713h-3.129Zm13.245,6.565a4.155,4.155,0,0,1-3.146-1.27,4.714,4.714,0,0,1-1.213-3.4v-.3a5.707,5.707,0,0,1,.541-2.527,4.217,4.217,0,0,1,1.512-1.74,3.8,3.8,0,0,1,2.1-.628,3.562,3.562,0,0,1,2.883,1.222,5.289,5.289,0,0,1,1.028,3.5v.677h-6.442a3.38,3.38,0,0,0,.822,2.272,2.583,2.583,0,0,0,2,.866,2.832,2.832,0,0,0,1.459-.352,3.666,3.666,0,0,0,1.046-.932l.993.773A3.993,3.993,0,0,1,169.489,75.176Zm-.2-8.525a2.169,2.169,0,0,0-1.652.716,3.482,3.482,0,0,0-.826,2.008h4.764v-.123a3.1,3.1,0,0,0-.668-1.92A2.042,2.042,0,0,0,169.287,66.65Zm10.389.3a4.873,4.873,0,0,0-.8-.062,2.143,2.143,0,0,0-2.171,1.362V75h-1.626V65.49h1.582l.026,1.1a2.532,2.532,0,0,1,2.268-1.274,1.661,1.661,0,0,1,.721.123ZM182.1,75V66.747h-1.5V65.49h1.5v-.976a3.238,3.238,0,0,1,.817-2.364,3.088,3.088,0,0,1,2.312-.835,4.293,4.293,0,0,1,1.116.148l-.088,1.311a4.67,4.67,0,0,0-.879-.079,1.586,1.586,0,0,0-1.222.463,1.877,1.877,0,0,0-.431,1.327V65.49h2.03v1.257h-2.03V75Zm5.019-4.843a5.617,5.617,0,0,1,.549-2.514,4.1,4.1,0,0,1,1.529-1.723,4.163,4.163,0,0,1,2.237-.606,4.01,4.01,0,0,1,3.142,1.345,5.174,5.174,0,0,1,1.2,3.577v.114a5.666,5.666,0,0,1-.532,2.492,4.038,4.038,0,0,1-1.521,1.718,4.211,4.211,0,0,1-2.272.615,4,4,0,0,1-3.133-1.345,5.147,5.147,0,0,1-1.2-3.56Zm1.635.193a4.068,4.068,0,0,0,.734,2.54,2.487,2.487,0,0,0,3.933-.013,4.449,4.449,0,0,0,.729-2.72,4.061,4.061,0,0,0-.743-2.536,2.361,2.361,0,0,0-1.973-.971,2.335,2.335,0,0,0-1.942.958A4.416,4.416,0,0,0,188.755,70.351Zm13.658-3.4a4.873,4.873,0,0,0-.8-.062,2.143,2.143,0,0,0-2.171,1.362V75h-1.626V65.49H199.4l.026,1.1a2.532,2.532,0,0,1,2.268-1.274,1.661,1.661,0,0,1,.721.123Zm3.023-1.459.044,1.055a3.512,3.512,0,0,1,2.821-1.23,2.719,2.719,0,0,1,2.716,1.529,3.6,3.6,0,0,1,1.235-1.107,3.647,3.647,0,0,1,1.8-.422q3.129,0,3.182,3.313V75h-1.626V68.725a2.184,2.184,0,0,0-.466-1.525,2.051,2.051,0,0,0-1.564-.505,2.156,2.156,0,0,0-1.5.541,2.193,2.193,0,0,0-.694,1.455V75h-1.635V68.769a1.814,1.814,0,0,0-2.03-2.074,2.175,2.175,0,0,0-2.188,1.362V75H203.9V65.49ZM225.555,75a3.416,3.416,0,0,1-.229-1,3.628,3.628,0,0,1-2.707,1.178,3.357,3.357,0,0,1-2.307-.8,2.573,2.573,0,0,1-.9-2.017,2.688,2.688,0,0,1,1.129-2.307,5.325,5.325,0,0,1,3.177-.822H225.3v-.747a1.826,1.826,0,0,0-.51-1.358,2.049,2.049,0,0,0-1.5-.505,2.371,2.371,0,0,0-1.459.439,1.3,1.3,0,0,0-.589,1.063H219.6a2.244,2.244,0,0,1,.505-1.375,3.449,3.449,0,0,1,1.371-1.05,4.613,4.613,0,0,1,1.9-.387,3.759,3.759,0,0,1,2.575.822,2.964,2.964,0,0,1,.967,2.263v4.377a5.351,5.351,0,0,0,.334,2.083V75Zm-2.7-1.239a2.858,2.858,0,0,0,1.45-.4,2.392,2.392,0,0,0,.993-1.028V70.386h-1.274q-2.988,0-2.988,1.749a1.48,1.48,0,0,0,.51,1.2A1.959,1.959,0,0,0,222.856,73.761Zm8.156-8.271.053,1.2a3.465,3.465,0,0,1,2.848-1.371q3.015,0,3.041,3.4V75h-1.626V68.707a2.189,2.189,0,0,0-.47-1.521,1.884,1.884,0,0,0-1.437-.492,2.347,2.347,0,0,0-1.389.422,2.865,2.865,0,0,0-.932,1.107V75h-1.626V65.49Zm12.208,8.358a2.342,2.342,0,0,0,1.521-.527A1.855,1.855,0,0,0,245.462,72H247a2.949,2.949,0,0,1-.562,1.556,3.7,3.7,0,0,1-1.384,1.178,3.994,3.994,0,0,1-1.833.439,3.918,3.918,0,0,1-3.089-1.3,5.163,5.163,0,0,1-1.147-3.546v-.272a5.725,5.725,0,0,1,.51-2.47,3.883,3.883,0,0,1,1.463-1.679,4.157,4.157,0,0,1,2.254-.6,3.814,3.814,0,0,1,2.659.958A3.424,3.424,0,0,1,247,68.76h-1.538a2.241,2.241,0,0,0-.7-1.516,2.174,2.174,0,0,0-1.551-.593,2.276,2.276,0,0,0-1.92.892,4.19,4.19,0,0,0-.681,2.58v.308a4.106,4.106,0,0,0,.677,2.531A2.287,2.287,0,0,0,243.221,73.849Zm9.554,1.327a4.155,4.155,0,0,1-3.146-1.27,4.714,4.714,0,0,1-1.213-3.4v-.3a5.707,5.707,0,0,1,.541-2.527,4.217,4.217,0,0,1,1.512-1.74,3.8,3.8,0,0,1,2.1-.628,3.562,3.562,0,0,1,2.883,1.222,5.289,5.289,0,0,1,1.028,3.5v.677h-6.442a3.38,3.38,0,0,0,.822,2.272,2.583,2.583,0,0,0,2,.866,2.832,2.832,0,0,0,1.459-.352,3.666,3.666,0,0,0,1.046-.932l.993.773A3.993,3.993,0,0,1,252.774,75.176Zm-.2-8.525a2.169,2.169,0,0,0-1.652.716,3.482,3.482,0,0,0-.826,2.008h4.764v-.123a3.1,3.1,0,0,0-.668-1.92A2.042,2.042,0,0,0,252.572,66.65Z" transform="translate(1064 1484)"/></g></svg>