<svg xmlns="http://www.w3.org/2000/svg" xmlns:xlink="http://www.w3.org/1999/xlink" width="288.251" height="237.721" viewBox="0 0 288.251 237.721"><defs><clipPath id="a"><path d="M730.612,1630.467l1.948,8.856,16.117-3.031L746,1624.129Z" transform="translate(-730.612 -1624.129)" fill="#f0bc99"/></clipPath><clipPath id="b"><path d="M1125.632,1258.659l5.788,17.758a6.438,6.438,0,0,0,8.119,4.119l.74-.242a6.438,6.438,0,0,0,4.119-8.119l-6.379-19.893Z" transform="translate(-1125.632 -1252.282)" fill="#f0bc99"/></clipPath><clipPath id="c"><path d="M1042.558,1365.833,1019.6,1378.79l2.085,5.524,31.273-9.969a4.371,4.371,0,0,0,2.762-5.709c-.907-2.4-5.074-3.451-8.747-3.451a13.227,13.227,0,0,0-4.417.647" transform="translate(-1019.602 -1365.186)" fill="#f0bc99"/></clipPath><clipPath id="d"><path d="M714.423,1272.175a6.438,6.438,0,0,0,4.119,8.119l.74.242a6.438,6.438,0,0,0,8.119-4.119l5.788-17.758-12.388-6.377Z" transform="translate(-714.103 -1252.282)" fill="#f0bc99"/></clipPath><clipPath id="e"><path d="M714.387,1368.637a4.372,4.372,0,0,0,2.762,5.709l31.273,9.969,2.085-5.524-22.956-12.957a13.227,13.227,0,0,0-4.418-.647c-3.672,0-7.84,1.048-8.746,3.451" transform="translate(-714.103 -1365.186)" fill="#f0bc99"/></clipPath><clipPath id="f"><path d="M946.532,1072.44l-1.423,11.905H957.08l-1.422-11.905Z" transform="translate(-945.109 -1072.44)" fill="#f0bc99"/></clipPath><clipPath id="g"><path d="M935.124,991.68a1.994,1.994,0,0,0-1.993,2.064l.065,1.854a1.434,1.434,0,0,1-.992,1.415c-.052,0-.1-.016-.157-.016a1.858,1.858,0,0,0,0,3.717c.054,0,.1-.011.157-.016v.214a6.486,6.486,0,0,0,12.971,0v-.2a1.858,1.858,0,0,0,0-3.717l-.1-.036a1.581,1.581,0,0,1-1.037-1.608l.118-1.527a1.994,1.994,0,0,0-1.988-2.147Z" transform="translate(-930.189 -991.68)" fill="#f0bc99"/></clipPath></defs><g transform="translate(4435.221 -19843.494)"><path d="M459.948,500.729a131.417,131.417,0,1,0-218.188.36Z" transform="translate(-4641.829 19547.299)" fill="#e6eff2"/><path d="M382.275,1025.187h0a28.791,28.791,0,0,0-12.588,2.879V1013.4a11.641,11.641,0,0,0-11.641-11.641H203.816a11.641,11.641,0,0,0-11.641,11.641v18.779a28.788,28.788,0,0,0-18.844-7,2.445,2.445,0,0,0-2.445,2.445l8.54,62.531H202.24v-10.318a6.923,6.923,0,0,1,6.923-6.923h137.28a6.923,6.923,0,0,1,6.923,6.923v10.318l19.461-.324,11.893-62.207a2.445,2.445,0,0,0-2.445-2.445" transform="translate(-4601.308 18956.961)" fill="#bbe0f8"/><path d="M1285.671,1184.872a.64.64,0,0,1-.066,0,.668.668,0,0,1-.6-.731,29.593,29.593,0,0,1,15.893-23.369.669.669,0,1,1,.614,1.189,28.255,28.255,0,0,0-15.176,22.311.669.669,0,0,1-.665.6" transform="translate(-5533.472 18823.984)" fill="#72c4f4"/><path d="M307.043,1207.047a.669.669,0,0,1-.664-.6,28.188,28.188,0,0,0-9.016-17.784.669.669,0,0,1,.9-.987,29.524,29.524,0,0,1,9.443,18.628.669.669,0,0,1-.594.736.687.687,0,0,1-.072,0" transform="translate(-4706.948 18801.555)" fill="#72c4f4"/><path d="M359.445,1301.118a.669.669,0,0,1-.6-.965,14.738,14.738,0,0,1,13.223-8.23H497.943a14.7,14.7,0,0,1,13.05,7.89l.171.325a.669.669,0,0,1-1.185.622l-.171-.325a13.363,13.363,0,0,0-11.865-7.173H372.068a13.315,13.315,0,0,0-12.022,7.483.67.67,0,0,1-.6.374" transform="translate(-4758.513 18714.188)" fill="#72c4f4"/><path d="M1247.953,655.852H1211.2a2.572,2.572,0,0,1-2.572-2.572V616.527a2.572,2.572,0,0,1,2.572-2.572h36.754a2.572,2.572,0,0,1,2.572,2.572v36.754a2.572,2.572,0,0,1-2.572,2.572" transform="translate(-5469.57 19281.434)" fill="#bbe0f8"/><path d="M1263.738,670.839h-31.082a1.773,1.773,0,0,1-1.773-1.773V637.984a1.773,1.773,0,0,1,1.773-1.773h31.082a1.773,1.773,0,0,1,1.773,1.773v31.082a1.773,1.773,0,0,1-1.773,1.773" transform="translate(-5488.191 19262.813)" fill="#fff"/><path d="M1231.118,748.594h0a.35.35,0,0,1,.1-.336l8.786-8.156a3.988,3.988,0,0,1,5.586.208l3.561,3.794a1.918,1.918,0,0,0,2.748.05l13.2-13.027a.35.35,0,0,1,.6.249v.048a.351.351,0,0,1-.1.249L1252.442,744.7a2.684,2.684,0,0,1-3.845-.07l-3.562-3.794a3.219,3.219,0,0,0-4.51-.167l-8.829,8.106a.35.35,0,0,1-.578-.179" transform="translate(-5488.381 19183.482)" fill="#72c4f4"/><path d="M1342.247,750.942a2.674,2.674,0,1,1-2.674-2.674,2.674,2.674,0,0,1,2.674,2.674" transform="translate(-5576.894 19169.055)" fill="#72c4f4"/><path d="M1265.71,665.727h-10.852a1.957,1.957,0,0,1-.19-3.905,3.141,3.141,0,0,1,3.092-2.762,3.6,3.6,0,0,1,6.995-.42,3.608,3.608,0,1,1,.956,7.087m-10.852-3.148a1.191,1.191,0,1,0,0,2.382h10.852a2.842,2.842,0,1,0-1.083-5.469l-.441.182-.083-.47a2.838,2.838,0,0,0-5.626.285l-.029.4-.4-.045a2.358,2.358,0,0,0-2.639,2.342c0,.01,0,.019,0,.029v.427l-.486-.054a.522.522,0,0,0-.069-.007" transform="translate(-5506.613 19246.18)" fill="#72c4f4"/><path d="M592.61,335.1H506.265a7.03,7.03,0,0,0-7.03,7.03v23.554a7.03,7.03,0,0,0,7.03,7.03h71.167l2.605,11.142a1.517,1.517,0,0,0,2.941.051l3.03-11.193h6.6a7.03,7.03,0,0,0,7.03-7.03V342.132a7.03,7.03,0,0,0-7.03-7.03" transform="translate(-4876.033 19514.746)" fill="#bbe0f8"/><path d="M796.669,403.367H753.563a1.8,1.8,0,1,1,0-3.592h43.106a1.8,1.8,0,1,1,0,3.592" transform="translate(-5087.323 19460.635)" fill="#fff"/><path d="M796.669,442.47H753.563a1.8,1.8,0,1,1,0-3.592h43.106a1.8,1.8,0,1,1,0,3.592" transform="translate(-5087.323 19427.918)" fill="#fff"/><path d="M774.66,482.04h-21.1a1.8,1.8,0,1,1,0-3.592h21.1a1.8,1.8,0,1,1,0,3.592" transform="translate(-5087.323 19394.811)" fill="#fff"/><path d="M573.259,392.425l-11.733,9.421-11.733-9.421a2.665,2.665,0,0,0-1.452,2.367V408.9a2.676,2.676,0,0,0,2.676,2.676h21.018a2.676,2.676,0,0,0,2.676-2.676V394.792a2.665,2.665,0,0,0-1.452-2.367" transform="translate(-4917.119 19466.785)" fill="#72c4f4"/><path d="M580.7,390.841a2.646,2.646,0,0,0-1.224-.309H558.457a2.645,2.645,0,0,0-1.224.309l11.733,9.421Z" transform="translate(-4924.559 19468.367)" fill="#fff"/><path d="M298.778,602.044h-98.8a8.044,8.044,0,0,0-8.044,8.044V637.04a8.044,8.044,0,0,0,8.044,8.044H281.41l7,13.868a1.488,1.488,0,0,0,2.817-.67v-13.2h7.554a8.044,8.044,0,0,0,8.044-8.044V610.088a8.044,8.044,0,0,0-8.044-8.044" transform="translate(-4618.918 19291.398)" fill="#72c4f4"/><path d="M491.913,679.66H442.589a2.055,2.055,0,0,1,0-4.11h49.324a2.055,2.055,0,0,1,0,4.11" transform="translate(-4826.918 19229.898)" fill="#fff"/><path d="M491.913,724.4H442.589a2.055,2.055,0,0,1,0-4.11h49.324a2.055,2.055,0,1,1,0,4.11" transform="translate(-4826.918 19192.461)" fill="#fff"/><path d="M466.729,769.682h-24.14a2.055,2.055,0,0,1,0-4.11h24.14a2.055,2.055,0,0,1,0,4.11" transform="translate(-4826.918 19154.578)" fill="#fff"/><path d="M247.1,665.186a5.5,5.5,0,1,1,5.5-5.5,5.5,5.5,0,0,1-5.5,5.5,12.5,12.5,0,0,1,10.148,5.2,14.183,14.183,0,1,0-20.3,0,12.5,12.5,0,0,1,10.148-5.2" transform="translate(-4653.209 19254.373)" fill="#bbe0f8"/><path d="M297.08,700.085a5.5,5.5,0,1,0-5.5,5.5,5.5,5.5,0,0,0,5.5-5.5" transform="translate(-4697.686 19213.973)" fill="#fff"/><path d="M267.777,771.438a14.138,14.138,0,0,0,10.148-4.278,12.5,12.5,0,0,0-20.3,0,14.138,14.138,0,0,0,10.148,4.278" transform="translate(-4673.884 19157.6)" fill="#fff"/><path d="M1660.032,873.679s-7.1-44.01-14.067-45.263,5.989,45.263,5.989,45.263Z" transform="translate(-5833.765 19102.018)" fill="#b3e0dc"/><path d="M1666.7,890.836a.167.167,0,0,1-.162-.129l-9.361-40.272a.167.167,0,1,1,.326-.076l9.361,40.272a.167.167,0,0,1-.125.2.172.172,0,0,1-.038,0" transform="translate(-5844.862 19083.744)"/><path d="M1674.858,895.695a.161.161,0,0,1-.049-.008.167.167,0,0,1-.11-.209l1.819-5.9a.167.167,0,0,1,.32.1l-1.82,5.9a.167.167,0,0,1-.16.118" transform="translate(-5859.519 19050.924)"/><path d="M1661.735,936.922a.167.167,0,0,1-.133-.066l-4.4-5.745a.167.167,0,1,1,.266-.2l4.4,5.745a.167.167,0,0,1-.133.269" transform="translate(-5844.862 19016.299)"/><path d="M1696.649,977.387a.172.172,0,0,1-.056-.01.167.167,0,0,1-.1-.214l2.941-8.255a.167.167,0,0,1,.316.112l-2.941,8.255a.168.168,0,0,1-.158.111" transform="translate(-5877.752 18984.541)"/><path d="M1684.827,1042.255a.166.166,0,0,1-.12-.052l-4.4-4.59a.167.167,0,0,1,.242-.232l4.4,4.591a.167.167,0,0,1-.121.283" transform="translate(-5864.18 18927.201)"/><path d="M1769.4,772.515s-.842-59.971,9.049-64.6-1.263,64.6-1.263,64.6Z" transform="translate(-5938.743 19203.004)" fill="#b3e0dc"/><path d="M1790.739,806.328h-.017a.167.167,0,0,1-.15-.183l5.73-58.088a.167.167,0,1,1,.333.033l-5.73,58.088a.167.167,0,0,1-.166.151" transform="translate(-5956.475 19169.359)"/><path d="M1804.582,784.65a.168.168,0,0,1-.16-.117l-2.616-8.4a.167.167,0,1,1,.319-.1l2.616,8.4a.167.167,0,0,1-.11.209.171.171,0,0,1-.05.008" transform="translate(-5965.869 19145.926)"/><path d="M1813.1,848.188a.167.167,0,0,1-.13-.273l4.6-5.664a.167.167,0,1,1,.26.211l-4.6,5.664a.167.167,0,0,1-.13.062" transform="translate(-5975.186 19090.473)"/><path d="M1793.689,869.816a.167.167,0,0,1-.16-.12l-2.95-9.952a.167.167,0,1,1,.321-.1l2.95,9.952a.167.167,0,0,1-.16.215" transform="translate(-5956.475 19075.965)"/><path d="M1802.894,947.653a.167.167,0,0,1-.134-.267l4.778-6.451a.167.167,0,0,1,.269.2l-4.778,6.45a.166.166,0,0,1-.135.068" transform="translate(-5966.645 19007.91)"/><path d="M1783.2,991.006a.167.167,0,0,1-.16-.119l-2.747-9.107a.167.167,0,1,1,.32-.1l2.747,9.107a.167.167,0,0,1-.112.208.174.174,0,0,1-.048.007" transform="translate(-5947.869 18973.859)"/><path d="M1793.45,1048.857a.167.167,0,0,1-.126-.277l4.692-5.383a.167.167,0,1,1,.252.22l-4.692,5.383a.167.167,0,0,1-.126.057" transform="translate(-5958.743 18922.34)"/><path d="M1697.818,666.271c.161,0-10.311-84.258,0-85.547s9.827,85.547,9.827,85.547Z" transform="translate(-5875.065 19309.248)" fill="#8bd0ca"/><path d="M1729.6,692.944a.167.167,0,0,1-.167-.158l-4.24-78.9a.167.167,0,0,1,.334-.018l4.239,78.9a.167.167,0,0,1-.158.176h-.009" transform="translate(-5901.772 19281.637)"/><path d="M1707.022,714.818a.168.168,0,0,1-.153-.1l-5.28-11.99a.167.167,0,1,1,.306-.135l5.28,11.991a.168.168,0,0,1-.086.22.17.17,0,0,1-.067.014" transform="translate(-5882.012 19207.355)"/><path d="M1739.286,821.844a.168.168,0,0,1-.157-.226l3.757-10.031a.167.167,0,1,1,.313.117l-3.757,10.031a.168.168,0,0,1-.156.109" transform="translate(-5913.425 19116.168)"/><path d="M1714.646,889.476a.167.167,0,0,1-.152-.1l-5.639-12.27a.167.167,0,0,1,.3-.14l5.639,12.27a.167.167,0,0,1-.152.237" transform="translate(-5888.091 19061.455)"/><path d="M1748.433,1003.653a.167.167,0,0,1-.147-.245l4.108-7.773a.167.167,0,1,1,.3.156l-4.108,7.773a.167.167,0,0,1-.148.089" transform="translate(-5921.078 18962.162)"/><path d="M1720.462,1025.1a.168.168,0,0,1-.145-.083L1714.512,1015a.167.167,0,0,1,.29-.168l5.8,10.019a.167.167,0,0,1-.061.228.163.163,0,0,1-.083.023" transform="translate(-5892.818 18946.094)"/><path d="M1684.542,1143.051h0a13.2,13.2,0,0,1-13.2-13.2v-32.008h26.4v32.008a13.2,13.2,0,0,1-13.2,13.2" transform="translate(-5856.716 18876.572)" fill="#72c4f4"/><path d="M1683.654,1101.143h-29.136a1.65,1.65,0,1,1,0-3.3h29.136a1.65,1.65,0,1,1,0,3.3" transform="translate(-5841.26 18876.57)" fill="#bbe0f8"/><path d="M1668.2,1294.02v2.437h-31.555v-2.437h-3.167v40.393h3.167V1300.05H1668.2v34.363h3.167V1294.02Z" transform="translate(-5825.037 18712.434)" fill="#bbe0f8"/><path d="M216.376,1541.692c-73.915,0-74.407-.246-74.65-.365a.408.408,0,0,1,.3-.757c1.4.228,32.735.3,74.232.3,84.51,0,211.181-.318,213.082-.323h0a.408.408,0,0,1,0,.816c-.715,0-72.307.183-143.16.272-28.541.036-51.444.051-69.8.051m-74.294-1.1h0" transform="translate(-4576.718 18506.164)"/><path d="M629.584,1558.72c0,8.652-35.287,15.667-78.817,15.667s-78.817-7.015-78.817-15.667,35.288-15.667,78.817-15.667,78.817,7.014,78.817,15.667" transform="translate(-4853.204 18504.07)" fill="#bbe0f8"/><path d="M949.032,936.443H938.907c-11.547,0-7.98,5.833-7.98,5.833-2.068,3.936.87,9.577.87,9.577h14.077s2.938-5.641.87-9.577c-.036-.068-.081-.126-.119-.192,3.589-1.323,2.407-5.641,2.407-5.641" transform="translate(-5236.605 19011.611)"/><rect width="86.782" height="19.369" transform="translate(-4343.987 20030.004)" fill="#050542"/><path d="M722.267,1452.464v15.367H654.842a7.277,7.277,0,0,1-3.861-1.109c-5.221-3.263-18.849-13.411-10.464-26.124a7.274,7.274,0,0,1,7.509-3.114Z" transform="translate(-4992.013 18592.52)" fill="#050542"/><g transform="translate(-4339.01 20060.365)"><g clip-path="url(#a)"><rect width="20.692" height="18.439" transform="matrix(0.981, -0.196, 0.196, 0.981, -2.92, 0.584)" fill="#f0bc99"/></g></g><path d="M805.683,1473.514l65.914-14.193a7.273,7.273,0,0,0,3.541-1.9c4.417-4.29,15.6-17.078,4.731-27.742a7.275,7.275,0,0,0-8-1.463l-69.424,30.273" transform="translate(-5129.727 18600.66)" fill="#050542"/><path d="M800.735,1513.613a.335.335,0,0,1-.125-.645l49.159-19.852a.335.335,0,1,1,.25.62l-49.158,19.852a.333.333,0,0,1-.125.025" transform="translate(-5128.013 18545.873)" fill="#bbe0f8"/><path d="M690.461,1662.157a1.6,1.6,0,0,0,2.248,1.092,8.973,8.973,0,0,0-3.762-17.1,1.6,1.6,0,0,0-1.582,1.934Z" transform="translate(-5033.406 18417.813)"/><path d="M776.219,1451.979a.368.368,0,0,1-.063-.006l-45.5-8.621a.335.335,0,0,1,.125-.657l45.5,8.621a.334.334,0,0,1-.062.663" transform="translate(-5069.43 18588.043)" fill="#bbe0f8"/><g transform="translate(-4274.498 19999.637)" clip-path="url(#b)"><rect width="30.588" height="35.058" transform="translate(-11.422 5.458) rotate(-25.542)" fill="#f0bc99"/></g><g transform="translate(-4291.814 20018.076)"><g clip-path="url(#c)"><rect width="40.972" height="29.078" transform="matrix(0.957, -0.291, 0.291, 0.957, -5.33, 1.623)" fill="#f0bc99"/></g></g><g transform="translate(-4341.707 19999.637)"><g clip-path="url(#d)"><rect width="35.058" height="30.588" transform="translate(-12.206 23.901) rotate(-64.458)" fill="#f0bc99"/></g></g><g transform="translate(-4341.707 20018.076)"><g clip-path="url(#e)"><rect width="29.078" height="40.972" transform="translate(-5.932 17.505) rotate(-73.065)" fill="#f0bc99"/></g></g><g transform="translate(-4303.98 19970.266)"><g clip-path="url(#f)"><rect width="11.971" height="11.905" transform="translate(0 0)" fill="#f0bc99"/></g></g><path d="M821.037,1130.7l-5.786-11.239a21.862,21.862,0,0,0-19.926-11.853,14.635,14.635,0,0,0-2.259-.19h-20.81a14.643,14.643,0,0,0-2.255.189,21.858,21.858,0,0,0-19.626,11.854L744.59,1130.7l14.531,7.48,1.278,30.9a1.728,1.728,0,0,0,1.726,1.656H803.2a1.728,1.728,0,0,0,1.726-1.656l1.271-30.742Z" transform="translate(-5081.318 18868.563)" fill="#007cf4"/><path d="M1120.643,1230.158h-.01a.19.19,0,0,1-.18-.2l.676-12.623a.19.19,0,1,1,.379.021l-.676,12.623a.19.19,0,0,1-.189.18" transform="translate(-5395.796 18776.744)" fill="#1f191a"/><path d="M828.811,1230.159a.19.19,0,0,1-.19-.18l-.676-12.623a.19.19,0,1,1,.38-.021l.676,12.624a.19.19,0,0,1-.18.2h-.01" transform="translate(-5151.06 18776.744)" fill="#1f191a"/><g transform="translate(-4306.417 19957.076)" clip-path="url(#g)"><rect width="15.849" height="16.967" transform="translate(-0.123 15.717) rotate(-89.552)" fill="#f0bc99"/></g><path d="M865,1311.024H822.623a1.544,1.544,0,0,1-1.538-1.4l-3.218-34.71a1.544,1.544,0,0,1,1.538-1.687H868.83a1.545,1.545,0,0,1,1.535,1.714l-3.831,34.709a1.545,1.545,0,0,1-1.535,1.375" transform="translate(-5142.621 18729.832)" fill="#bbe0f8"/><path d="M960.984,1366.9a4.3,4.3,0,1,1-4.3-4.3,4.3,4.3,0,0,1,4.3,4.3" transform="translate(-5255.169 18655.057)" fill="#72c4f4"/><rect width="48.16" height="0.403" transform="translate(-4322.639 20003.982)" fill="#72c4f4"/></g></svg>